<svg xmlns="http://www.w3.org/2000/svg" xmlns:xlink="http://www.w3.org/1999/xlink" viewBox="0 0 40.772 15.346" height="58" width="154.1"><defs><path id="a" d="M243.1 74.4l-1.1-9.6 11.2 10.9-10.1-1.3zm-38.3 36.9L177.2 95l10.5-10.4 17.6 16.8L242 64.8l1.6 9-38.8 37.5zm.7 11.5L177.2 95l27.6 16.3 38.9-37.5 9.5 2-47.7 47z"/><path id="b" d="M243.1 74.4l10.1 1.3L242 64.8z"/><path id="c" d="M204.8 111.3L177.2 95l10.5-10.4 17.6 16.8L242 64.8l1.1 9.6z"/><path id="d" d="M259.9 91.4c-.4-.4-1-.6-1.7-.6s-1.3.2-1.7.5c-.4.3-.6.7-.6 1.2 0 .4.2.8.7 1.2.5.3 1.3.7 2.5 1.1 1.2.4 2.1.8 2.9 1.2 1.8 1 2.8 2.5 2.8 4.3 0 1.5-.6 2.6-1.7 3.4-1.1.8-2.7 1.2-4.6 1.2-1.4 0-2.6-.2-3.7-.7-1.1-.5-2-1.1-2.5-2-.6-.8-.8-1.8-.8-2.9h4.1c0 .9.2 1.5.7 2 .5.4 1.2.6 2.3.6.7 0 1.2-.1 1.6-.4.4-.3.6-.7.6-1.2 0-.6-.2-1-.6-1.4-.4-.4-1.2-.7-2.2-1-1.1-.3-1.9-.7-2.6-1-2.2-1.1-3.3-2.5-3.3-4.4 0-.9.3-1.7.8-2.4s1.3-1.3 2.3-1.6c1-.4 2.1-.6 3.4-.6 1.2 0 2.3.2 3.3.6 1 .4 1.7 1 2.3 1.8.5.8.8 1.7.8 2.7h-4.1c-.4-.8-.6-1.3-1-1.6zm15.3-.3v13.5h-4.1V91.1h-5V88h14.2v3.1h-5.1zm11.2 0v3.5h6.4v3h-6.4v4h7.6v3.1h-11.7V88H294v3.1h-7.6zm20.6 13.5l-1-3.1h-5.6l-1 3.1H295l6.2-16.6h3.9l6.3 16.6H307zm-3.8-11.9l-1.8 5.8h3.7l-1.9-5.8zm23.9 11.9v-3.9l.4-7.9-4.1 11.8h-2.7l-4.1-11.8.4 7.9v3.9h-4.1V88h5.4l3.8 11.6 3.8-11.6h5.4v16.6h-4.2z"/><path id="e" d="M277.9 116.6c-.1-.1-.1-.3-.2-.6-.5.4-1 .7-1.7.7s-1.2-.2-1.6-.5c-.4-.3-.6-.8-.6-1.3 0-.6.3-1.1.8-1.5.5-.3 1.2-.5 2.2-.5h.9v-.4c0-.3-.1-.6-.3-.7-.2-.1-.5-.3-.9-.3-.3 0-.6.1-.8.2-.2.2-.3.3-.3.6h-1.5c0-.3.1-.6.4-.9.2-.3.6-.5 1-.7.4-.2.9-.2 1.4-.2.8 0 1.4.2 1.8.5.5.3.7.8.7 1.5v2.7c0 .5.1 1 .2 1.3v.1h-1.5zm-.3-2.7h-.8c-.5 0-.9.1-1.2.3-.3.2-.4.4-.4.7 0 .3.1.5.3.6.2.2.4.2.7.2.3 0 .6-.1.8-.2.2-.1.4-.3.6-.5v-1.1zm6.5-1.9c-.2-.2-.5-.3-.9-.3-.5 0-.8.2-1.1.5-.3.3-.4.8-.4 1.4v.2c0 .6.1 1.1.4 1.4.3.3.6.5 1.1.5.4 0 .7-.1.9-.3.2-.2.4-.4.4-.7h1.4c0 .4-.1.7-.4 1-.2.3-.6.6-1 .8-.4.2-.8.3-1.3.3-.9 0-1.6-.3-2.2-.8-.5-.5-.8-1.3-.8-2.2v-.1c0-.9.3-1.6.8-2.2.5-.5 1.2-.8 2.2-.8.8 0 1.4.2 1.9.6.5.4.7.9.8 1.6h-1.4c0-.4-.2-.7-.4-.9zm6.6 0c-.2-.2-.5-.3-.9-.3-.5 0-.8.2-1.1.5-.3.3-.4.8-.4 1.4v.2c0 .6.1 1.1.4 1.4.3.3.6.5 1.1.5.4 0 .7-.1.9-.3.2-.2.4-.4.4-.7h1.4c0 .4-.1.7-.4 1-.2.3-.6.6-1 .8-.4.2-.8.3-1.3.3-.9 0-1.6-.3-2.2-.8-.5-.5-.8-1.3-.8-2.2v-.1c0-.9.3-1.6.8-2.2.5-.5 1.2-.8 2.2-.8.8 0 1.4.2 1.9.6.5.4.7.9.8 1.6h-1.4c0-.4-.1-.7-.4-.9zm8.5 3.3c-.2.5-.6.8-1.1 1.1-.5.3-1 .4-1.6.4-.9 0-1.6-.3-2.2-.8-.5-.6-.8-1.3-.8-2.2v-.1c0-.6.1-1.1.4-1.6.3-.5.6-.8 1.1-1.1.5-.2 1-.4 1.6-.4.9 0 1.6.3 2.1.8s.8 1.2.9 2v.3c0 .6-.1 1.2-.4 1.6zm-1.5-3.1c-.3-.4-.7-.5-1.1-.5-.5 0-.9.2-1.1.5-.3.3-.4.9-.4 1.5s.1 1.1.4 1.4c.3.3.7.5 1.1.5.4 0 .9-.2 1.1-.5.3-.4.4-.9.4-1.5s-.1-1-.4-1.4zm7 4.4v-.6c-.4.5-1 .7-1.8.7-.7 0-1.2-.2-1.6-.6-.4-.4-.5-.9-.5-1.6v-3.8h1.5v3.8c0 .8.3 1.1 1 1.1s1.2-.2 1.4-.7v-4.3h1.5v5.9h-1.5zm6.6 0v-3.8c0-.4-.1-.7-.3-.8-.2-.2-.5-.3-.9-.3-.6 0-1 .2-1.3.7v4.2h-1.5v-5.9h1.4v.7c.5-.5 1.1-.8 1.9-.8 1.4 0 2 .7 2.1 2.1v3.9h-1.4zm5.1-1.1c.1.1.3.2.5.2s.3 0 .5-.1v1c-.3.1-.6.1-1 .1-1.1 0-1.7-.6-1.7-1.7v-3.4h-1.1v-1h1.1v-1.4h1.5v1.4h1.1v1h-1.1v3.3c.1.3.1.5.2.6zm3.4 1c-.1.1-.4.2-.6.2-.3 0-.5-.1-.6-.2-.2-.1-.2-.3-.2-.5s.1-.4.2-.5c.1-.1.4-.2.6-.2.3 0 .5.1.6.2.1.1.2.3.2.5.1.2 0 .4-.2.5zm4.8-4.6h-.6c-.7 0-1.1.2-1.3.7v4.1h-1.5v-5.9h1.4v.7c.4-.5.8-.8 1.5-.8.2 0 .4 0 .5.1v1.1zm5.2 4.7v-.6c-.4.5-1 .7-1.8.7-.7 0-1.2-.2-1.6-.6-.4-.4-.5-.9-.5-1.6v-3.8h1.5v3.8c0 .8.3 1.1 1 1.1s1.2-.2 1.4-.7v-4.3h1.5v5.9h-1.5z"/></defs><use overflow="visible" xlink:href="#a" width="100%" height="100%" fill="#3ab54b" transform="translate(-46.884 -17.145) scale(.26458)"/><use overflow="visible" xlink:href="#b" width="100%" height="100%" fill="#5ccc63" transform="translate(-46.884 -17.145) scale(.26458)"/><use overflow="visible" xlink:href="#c" width="100%" height="100%" fill="#42d14e" transform="translate(-46.884 -17.145) scale(.26458)"/><use overflow="visible" xlink:href="#d" width="100%" height="100%" fill="#212121" transform="translate(-46.884 -17.145) scale(.26458)"/><use overflow="visible" xlink:href="#e" width="100%" height="100%" fill="#212121" transform="translate(-46.884 -17.145) scale(.26458)"/></svg>