<svg xmlns="http://www.w3.org/2000/svg" width="512" height="512" viewBox="0 0 612.004 612.004"><g fill="#26c6da"><path d="M22.376 506.828h146.466l-22.93-76.521H45.347l-22.971 76.521zm159.296 19.125H9.547v-.021c-.896 0-1.813-.12-2.729-.397-5.041-1.494-7.929-6.813-6.415-11.874l28.528-95.088c.976-4.242 4.781-7.41 9.323-7.41h114.75v.021a9.542 9.542 0 0 1 9.144 6.833l28.488 94.987a9.555 9.555 0 0 1 .618 3.387c0 5.279-4.303 9.562-9.582 9.562zm261.475-19.125h146.465l-22.949-76.521H466.097l-22.95 76.521zm159.295 19.125H430.317v-.021c-.896 0-1.813-.12-2.729-.397-5.04-1.494-7.929-6.813-6.435-11.874l28.527-95.088c.977-4.242 4.781-7.41 9.323-7.41h114.75v.021a9.546 9.546 0 0 1 9.146 6.833l28.487 94.987a9.554 9.554 0 0 1 .617 3.387c.002 5.279-4.281 9.562-9.561 9.562zm-369.671-19.125h146.466l-22.949-76.521H255.722l-22.951 76.521zm159.296 19.125H219.942v-.021c-.896 0-1.813-.12-2.729-.397-5.04-1.494-7.929-6.813-6.435-11.874l28.528-95.088c.976-4.242 4.781-7.41 9.323-7.41h114.75v.021a9.546 9.546 0 0 1 9.146 6.833l28.487 94.987a9.554 9.554 0 0 1 .617 3.387c.001 5.279-4.282 9.562-9.562 9.562zM117.982 372.934h146.465l-22.93-76.5H140.952l-22.97 76.5zm159.295 19.144H105.152v-.021c-.896 0-1.813-.12-2.729-.397-5.041-1.494-7.929-6.813-6.435-11.874l28.548-95.087a9.575 9.575 0 0 1 9.323-7.391h114.75v.02c4.104 0 7.909 2.67 9.144 6.813l28.488 94.987a9.555 9.555 0 0 1 .618 3.387c-.02 5.26-4.322 9.563-9.582 9.563zm70.245-19.144h146.465l-22.949-76.5H370.472l-22.95 76.5zm159.295 19.144H334.692v-.021c-.896 0-1.813-.12-2.729-.397-5.04-1.494-7.929-6.813-6.435-11.874l28.527-95.087c.977-4.243 4.781-7.411 9.323-7.411h114.75v.02c4.104 0 7.909 2.669 9.146 6.813l28.487 94.988a9.564 9.564 0 0 1 .617 3.388c.002 5.278-4.281 9.581-9.561 9.581zM392.048 239.039c5.279 0 9.563 4.283 9.563 9.563s-4.283 9.563-9.563 9.563H219.922c-5.279 0-9.563-4.283-9.563-9.563 0-1.195.199-2.331.618-3.367l28.508-94.988c1.235-4.144 5.04-6.813 9.144-6.813v-.04h28.708c5.279 0 9.563 4.303 9.563 9.563 0 5.279-4.283 9.563-9.563 9.563h-21.615l-22.97 76.52h73.233l86.063-.001z"/><path d="M381.469 91.298l17.812 35.341 35.341 17.81c4.702 2.351 6.574 8.108 4.224 12.81a9.604 9.604 0 0 1-4.224 4.223l-35.341 17.811-17.812 35.341c-2.351 4.702-8.107 6.594-12.81 4.223a9.617 9.617 0 0 1-4.225-4.223l-17.81-35.341-35.342-17.811c-4.702-2.351-6.595-8.108-4.225-12.81a9.619 9.619 0 0 1 4.225-4.224l35.342-17.81 17.81-35.341c2.352-4.702 8.108-6.594 12.811-4.224a9.63 9.63 0 0 1 4.224 4.225zm2.191 46.737l-10.718-21.237-10.698 21.237a9.507 9.507 0 0 1-4.225 4.223l-21.256 10.718 21.256 10.698a9.604 9.604 0 0 1 4.225 4.224l10.698 21.257 10.697-21.257a9.514 9.514 0 0 1 4.225-4.224l21.256-10.698-21.236-10.718c-1.774-.896-3.287-2.331-4.224-4.223z"/></g></svg>