<svg xmlns="http://www.w3.org/2000/svg" height="98.2" width="83.039" viewBox="-0.4 -0.6 83.039 98.2"><path d="M80.364 15.077c-16.5 0-29.1-4.7-39.8-15-10.7 10.3-23.3 15-39.8 15 0 26.9-5.6 65.5 39.8 81.2 45.4-15.7 39.8-54.2 39.8-81.2z" fill="#33993d"/><path d="M.664 15.077l7.2 6.3s10.8.4 19.8-3.6c8.6-3.9 12.9-8.7 12.9-8.7l.1-9c-5.6 4.1-11.7 8.7-18.1 11.2-10.3 4-21.9 3.8-21.9 3.8z" fill="#42d14e"/><path d="M73.164 21.477c-13.5 0-23.9-3.9-32.7-12.4-8.8 8.5-19.1 12.4-32.7 12.4 0 22.1-4.6 53.9 32.7 66.7 37.3-12.9 32.7-44.6 32.7-66.7z" fill="#3ab54b"/><path d="M25.064 43.177l13.1 10.7 17.9-20.6 5.4 5.1-22.9 25.6-18.1-15.1z" fill="#fff"/></svg>