<?xml version="1.0" encoding="utf-8"?>
<!-- Generator: Adobe Illustrator 22.1.0, SVG Export Plug-In . SVG Version: 6.00 Build 0)  -->
<svg version="1.1" id="Layer_1" xmlns="http://www.w3.org/2000/svg" xmlns:xlink="http://www.w3.org/1999/xlink" x="0px" y="0px"
	 viewBox="0 0 442 298" style="enable-background:new 0 0 442 298;" xml:space="preserve">
<style type="text/css">
	.st0{fill:none;stroke:#000000;stroke-width:3;stroke-miterlimit:10;}
	.st1{fill:none;stroke:#000000;stroke-width:3;stroke-miterlimit:10;stroke-dasharray:7.0329,7.0329;}
	.st2{fill:none;stroke:#000000;stroke-width:3;stroke-miterlimit:10;stroke-dasharray:6.9531,6.9531;}
	.st3{fill:none;stroke:#000000;stroke-width:3;stroke-miterlimit:10;stroke-dasharray:7.123,7.123;}
	.st4{opacity:0.5;}
	.st5{fill:#9B0090;}
</style>
<g>
	<g>
		<g>
			<polyline class="st0" points="68.5,2.4 63.9,2.4 63,6.9 			"/>
		</g>
		<g>
			<g>
				<line class="st0" x1="61.1" y1="16" x2="60.3" y2="19.6"/>
				<line class="st1" x1="58.9" y1="26.6" x2="6.8" y2="279"/>
				<line class="st0" x1="6.1" y1="282.5" x2="5.4" y2="286"/>
			</g>
		</g>
		<g>
			<polyline class="st0" points="4.4,290.6 3.5,295.2 8.1,295.2 			"/>
		</g>
		<g>
			<g>
				<line class="st0" x1="17.1" y1="295.2" x2="20.6" y2="295.2"/>
				<line class="st2" x1="27.8" y1="295.2" x2="422.3" y2="295.2"/>
				<line class="st0" x1="425.8" y1="295.2" x2="429.4" y2="295.2"/>
			</g>
		</g>
		<g>
			<polyline class="st0" points="433.9,295.2 438.5,295.2 437.6,290.6 			"/>
		</g>
		<g>
			<g>
				<line class="st0" x1="435.7" y1="281.4" x2="434.9" y2="277.9"/>
				<line class="st1" x1="433.5" y1="270.8" x2="381.5" y2="18.6"/>
				<line class="st0" x1="380.7" y1="15" x2="380" y2="11.5"/>
			</g>
		</g>
		<g>
			<polyline class="st0" points="379,6.9 378.1,2.4 373.5,2.4 			"/>
		</g>
		<g>
			<g>
				<line class="st0" x1="364.2" y1="2.4" x2="360.6" y2="2.4"/>
				<line class="st3" x1="353.4" y1="2.4" x2="80.3" y2="2.4"/>
				<line class="st0" x1="76.7" y1="2.4" x2="73.1" y2="2.4"/>
			</g>
		</g>
	</g>
</g>
<g class="st4">
	<polygon class="st5" points="0,0 0,297.4 61.4,0 	"/>
</g>
<g class="st4">
	<polygon class="st5" points="380.6,0 442,297.4 442,0 	"/>
</g>
</svg>
