<?xml version="1.0" encoding="utf-8"?>
<!-- Generator: Adobe Illustrator 19.0.1, SVG Export Plug-In . SVG Version: 6.00 Build 0)  -->
<svg version="1.1"
	 id="Слой_1" xmlns:dc="http://purl.org/dc/elements/1.1/" xmlns:cc="http://creativecommons.org/ns#" xmlns:rdf="http://www.w3.org/1999/02/22-rdf-syntax-ns#" xmlns:svg="http://www.w3.org/2000/svg" xmlns:sodipodi="http://sodipodi.sourceforge.net/DTD/sodipodi-0.dtd" xmlns:inkscape="http://www.inkscape.org/namespaces/inkscape"
	 xmlns="http://www.w3.org/2000/svg" xmlns:xlink="http://www.w3.org/1999/xlink" x="0px" y="0px" viewBox="-206.6 229.7 60.6 52"
	 style="enable-background:new -206.6 229.7 60.6 52;" xml:space="preserve">
<style type="text/css">
	.st0{fill:#FFFFFF;}
	.st1{fill:#F7921D;}
</style>
<g>
	<g>
		<path class="st0" d="M-189.1,280.6c-4.9,0-9-1.7-12-5c-3-3.3-4.5-7.8-4.5-13.4v-13.3c0-5.6,1.5-10.1,4.4-13.5c3-3.3,7-5,11.9-5
			c4.9,0,9,1.7,11.9,5c3,3.3,4.5,7.8,4.5,13.5v13.3c0,5.6-1.5,10.2-4.4,13.5C-180.2,279-184.2,280.6-189.1,280.6z M-189.2,238.7
			c-2.1,0-3.7,0.7-4.8,2.3c-1.2,1.6-1.8,3.9-1.8,6.8v15.6c0,2.9,0.6,5.2,1.8,6.8c1.1,1.5,2.7,2.3,4.8,2.3c2.1,0,3.6-0.7,4.8-2.2
			c1.2-1.6,1.8-3.9,1.8-6.8v-15.6c0-2.9-0.6-5.2-1.8-6.8C-185.6,239.4-187.1,238.7-189.2,238.7z"/>
		<path class="st1" d="M-189.2,231.4c4.7,0,8.4,1.6,11.2,4.7c2.8,3.1,4.2,7.4,4.2,12.8v13.3c0,5.4-1.4,9.7-4.2,12.8
			c-2.8,3.1-6.5,4.7-11.2,4.7c-4.7,0-8.4-1.6-11.2-4.7c-2.8-3.1-4.2-7.4-4.2-12.8v-13.3c0-5.4,1.4-9.7,4.2-12.8
			C-197.6,232.9-193.9,231.4-189.2,231.4 M-189.1,273.4c2.4,0,4.3-0.9,5.6-2.6c1.3-1.8,2-4.2,2-7.4v-15.6c0-3.1-0.7-5.6-2-7.4
			c-1.3-1.8-3.2-2.7-5.6-2.7c-2.4,0-4.3,0.9-5.6,2.7c-1.3,1.8-2,4.2-2,7.4v15.6c0,3.2,0.7,5.7,2,7.4
			C-193.4,272.5-191.5,273.4-189.1,273.4 M-189.2,229.4c-5.2,0-9.5,1.8-12.7,5.4c-3.1,3.5-4.7,8.3-4.7,14.1v13.3
			c0,5.9,1.6,10.6,4.7,14.1c3.2,3.5,7.5,5.4,12.7,5.4c5.2,0,9.5-1.8,12.7-5.3c3.1-3.5,4.7-8.2,4.7-14.1v-13.3
			c0-5.9-1.6-10.6-4.7-14.1C-179.7,231.2-184,229.4-189.2,229.4L-189.2,229.4z M-189.1,271.4c-1.8,0-3.1-0.6-4-1.9
			c-1.1-1.4-1.6-3.5-1.6-6.2v-15.6c0-2.7,0.5-4.8,1.6-6.2c0.9-1.3,2.2-1.8,4-1.8c1.8,0,3,0.6,4,1.9c1.1,1.4,1.6,3.5,1.6,6.2v15.6
			c0,2.7-0.5,4.9-1.6,6.3C-186.1,270.8-187.4,271.4-189.1,271.4L-189.1,271.4z"/>
	</g>
</g>
<g>
	<path class="st1" d="M-167.2,262.4c0-1.4,0.4-2.5,1.3-3.5c0.9-0.9,2.1-1.4,3.6-1.4c1.5,0,2.8,0.5,3.6,1.4c0.9,0.9,1.3,2.1,1.3,3.5
		v1.2c0,1.4-0.4,2.5-1.3,3.4c-0.9,0.9-2.1,1.4-3.6,1.4c-1.5,0-2.8-0.5-3.7-1.4c-0.9-0.9-1.3-2.1-1.3-3.4V262.4z M-164.5,263.6
		c0,0.7,0.2,1.3,0.6,1.7c0.4,0.5,1,0.7,1.7,0.7c0.7,0,1.3-0.2,1.6-0.7c0.4-0.5,0.6-1.1,0.6-1.8v-1.2c0-0.7-0.2-1.3-0.6-1.8
		s-0.9-0.7-1.7-0.7c-0.7,0-1.3,0.2-1.7,0.7s-0.6,1.1-0.6,1.8V263.6z M-161.4,279.6l-2-1.2l11.5-18.3l2,1.2L-161.4,279.6z
		 M-155.9,275.6c0-1.4,0.4-2.5,1.3-3.4c0.9-0.9,2.1-1.4,3.6-1.4c1.5,0,2.8,0.5,3.6,1.4c0.9,0.9,1.3,2.1,1.3,3.4v1.3
		c0,1.4-0.4,2.5-1.3,3.5c-0.9,0.9-2.1,1.4-3.6,1.4c-1.5,0-2.8-0.5-3.7-1.4c-0.9-0.9-1.3-2.1-1.3-3.4V275.6z M-153.2,276.8
		c0,0.7,0.2,1.3,0.6,1.8c0.4,0.5,1,0.7,1.7,0.7c0.8,0,1.3-0.2,1.7-0.7c0.4-0.5,0.5-1.1,0.5-1.8v-1.3c0-0.7-0.2-1.3-0.6-1.8
		c-0.4-0.5-0.9-0.7-1.7-0.7s-1.3,0.2-1.7,0.7s-0.6,1.1-0.6,1.8V276.8z"/>
</g>
</svg>
