<?xml version="1.0" encoding="utf-8"?>
<!-- Generator: Adobe Illustrator 19.0.1, SVG Export Plug-In . SVG Version: 6.00 Build 0)  -->
<svg version="1.1" id="Слой_1" xmlns="http://www.w3.org/2000/svg" xmlns:xlink="http://www.w3.org/1999/xlink" x="0px" y="0px"
	 viewBox="0 0 173.4 79" style="enable-background:new 0 0 173.4 79;" xml:space="preserve">
<style type="text/css">
	.st0{fill:#F39222;}
</style>
<g>
	<path class="st0" d="M81.9,78H36.1v-8.2l22.2-25.7c3.6-4.3,6.1-7.8,7.5-10.5c1.4-2.8,2.1-5.4,2.1-8c0-3-0.8-5.5-2.5-7.4
		c-1.7-1.9-4.1-2.9-7.3-2.9c-3.7,0-6.5,1.2-8.4,3.6c-2,2.4-2.9,5.4-2.9,9H35.2l-0.1-0.3c-0.2-6.1,1.8-11.2,6-15.5
		C45.3,8,51,5.9,58.1,5.9c6.8,0,12.1,1.8,15.9,5.5c3.8,3.6,5.7,8.4,5.7,14.4c0,4-1.1,7.8-3.2,11.3c-2.1,3.5-5.6,8.2-10.5,14.1
		L51,68.3l0.1,0.2h30.8V78z"/>
	<path class="st0" d="M94.1,46.6l4.1-39.6h37.5v10.3H108l-2.1,18.1c1.4-1,3.1-1.9,5-2.5c1.9-0.7,4.1-1,6.4-1.1
		c6.6-0.1,11.8,2,15.4,6.2c3.7,4.2,5.5,10,5.5,17.4c0,7-1.9,12.7-5.8,17.1c-3.9,4.4-9.7,6.6-17.4,6.6c-6.3,0-11.5-1.7-15.8-5.1
		c-4.3-3.4-6.4-8.2-6.2-14.4l0.1-0.2l11.1-0.3c0,3.3,1,5.9,3,7.8c2,1.9,4.6,2.8,7.8,2.8c3.7,0,6.5-1.3,8.4-3.8
		c1.9-2.5,2.9-6,2.9-10.4c0-4.3-1-7.7-3-10.3c-2-2.6-4.8-3.9-8.5-3.9c-3.3,0-5.7,0.5-7.3,1.6c-1.6,1-2.7,2.6-3.4,4.6L94.1,46.6z"/>
</g>
<g>
	<path class="st0" d="M-166.4,69.6c4.1,0,7.4-1.4,10-4.3c2.6-2.9,3.8-7,3.8-12.2v-5.1c-1.6,2.2-3.5,3.8-5.7,4.9
		c-2.2,1.1-4.7,1.7-7.3,1.7c-6.7,0-12-2.1-15.8-6.4c-3.8-4.3-5.7-10.1-5.7-17.6c0-7.1,2.1-13,6.4-17.6c4.3-4.6,9.7-6.9,16.1-6.9
		c7.1,0,12.9,2.3,17.3,7c4.4,4.7,6.6,11.2,6.6,19.5v20.2c0,8.2-2.4,14.7-7.2,19.4c-4.8,4.7-11,7.1-18.5,7.1c-2.5,0-5.1-0.3-7.7-0.8
		c-2.6-0.5-5.1-1.3-7.3-2.3l1.9-9c2.1,0.9,4.2,1.6,6.2,2C-171.3,69.4-169,69.6-166.4,69.6z M-164.5,45.3c2.8,0,5.3-0.6,7.3-1.8
		c2-1.2,3.6-2.7,4.6-4.7v-8.4c0-4.8-1-8.5-3.1-11.1s-5-3.9-8.7-3.9c-3.2,0-5.8,1.4-7.8,4.3c-2.1,2.8-3.1,6.4-3.1,10.8
		c0,4.5,0.9,8,2.8,10.7C-170.7,43.9-168,45.3-164.5,45.3z"/>
</g>
</svg>
