<?xml version="1.0" encoding="utf-8"?>
<!-- Generator: Adobe Illustrator 19.0.1, SVG Export Plug-In . SVG Version: 6.00 Build 0)  -->
<svg version="1.1"
	 id="Слой_1" xmlns:dc="http://purl.org/dc/elements/1.1/" xmlns:cc="http://creativecommons.org/ns#" xmlns:rdf="http://www.w3.org/1999/02/22-rdf-syntax-ns#" xmlns:svg="http://www.w3.org/2000/svg" xmlns:sodipodi="http://sodipodi.sourceforge.net/DTD/sodipodi-0.dtd" xmlns:inkscape="http://www.inkscape.org/namespaces/inkscape"
	 xmlns="http://www.w3.org/2000/svg" xmlns:xlink="http://www.w3.org/1999/xlink" x="0px" y="0px" viewBox="-193 194 88 88"
	 style="enable-background:new -193 194 88 88;" xml:space="preserve">
<style type="text/css">
	.st0{fill:#F7921D;}
</style>
<g transform="translate(0,-952.36218)">
	<path class="st0" d="M-185,1146.4c-4.4,0-8,3.6-8,8v72c0,4.4,3.6,8,8,8h72c4.4,0,8-3.6,8-8v-72c0-4.4-3.6-8-8-8H-185z M-185,1150.4
		h34v38h-38v-34C-189,1152.1-187.3,1150.4-185,1150.4z M-147,1150.4h34c2.3,0,4,1.7,4,4v34h-38V1150.4z M-128.2,1158.3
		c-1,0.1-1.8,1-1.8,2v7h-7c-0.1,0-0.1,0-0.2,0c-1,0-2,1-1.9,2.1c0,1,1,2,2.1,1.9h7v7c0,1.1,0.9,2,2,2c1.1,0,2-1,2-2v-7h7
		c1.1,0,2-0.9,2-2s-1-2-2-2h-7v-7C-126,1159.2-127.1,1158.2-128.2,1158.3z M-179.2,1167.4c-1,0-2,1-1.9,2.1c0,1,1,2,2.1,1.9h18
		c1.1,0,2-0.9,2-2s-1-2-2-2h-18C-179.1,1167.4-179.1,1167.4-179.2,1167.4z M-189,1192.4h38v38h-34c-2.3,0-4-1.7-4-4V1192.4z
		 M-147,1192.4h38v34c0,2.3-1.7,4-4,4h-34V1192.4z M-178.2,1201.3c-0.8,0.1-1.4,0.6-1.7,1.3c-0.2,0.7,0,1.6,0.5,2.1l6.6,6.6
		l-6.6,6.6c-0.8,0.7-0.8,2.1,0,2.9s2.1,0.7,2.9,0l6.6-6.6l6.6,6.6c0.7,0.8,2.1,0.8,2.9,0s0.7-2.1,0-2.9l-6.6-6.6l6.6-6.6
		c0.6-0.6,0.8-1.6,0.4-2.3c-0.4-0.8-1.3-1.2-2.1-1.1c-0.4,0.1-0.9,0.3-1.2,0.6l-6.6,6.6l-6.6-6.6
		C-177,1201.5-177.6,1201.3-178.2,1201.3z M-137.2,1204.4c-1,0-2,1-1.9,2.1c0,1,1,2,2.1,1.9h18c1.1,0,2-0.9,2-2s-1-2-2-2h-18
		C-137.1,1204.4-137.1,1204.4-137.2,1204.4z M-137.2,1214.4c-1,0-2,1-1.9,2.1c0,1,1,2,2.1,1.9h18c1.1,0,2-0.9,2-2s-1-2-2-2h-18
		C-137.1,1214.4-137.1,1214.4-137.2,1214.4z"/>
</g>
</svg>
