<?xml version="1.0" encoding="utf-8"?>
<!-- Generator: Adobe Illustrator 19.0.1, SVG Export Plug-In . SVG Version: 6.00 Build 0)  -->
<svg version="1.1" id="Слой_1" xmlns="http://www.w3.org/2000/svg" xmlns:xlink="http://www.w3.org/1999/xlink" x="0px" y="0px"
	 viewBox="-215 208 68 68" style="enable-background:new -215 208 68 68;" xml:space="preserve">
<style type="text/css">
	.st0{fill:#F7921D;}
</style>
<path class="st0" d="M-147,242c0,1.1-0.9,2-2,2s-2-0.9-2-2c0-16.6-13.4-30-30-30c-1.1,0-2-0.9-2-2s0.9-2,2-2
	C-162.2,208-147,223.2-147,242z M-159,242c0,1.1-0.9,2-2,2s-2-0.9-2-2c0-9.9-8.1-18-18-18c-1.1,0-2-0.9-2-2s0.9-2,2-2
	C-168.8,220-159,229.8-159,242z M-158,267.2l-6.7,6.7c-6,6-25.2-1.9-35.7-12.4c-10.5-10.5-18.4-29.7-12.4-35.7l6.7-6.7
	c2-2,5.2-1.8,7,0.4l8.9,10.9c1.7,2.1,1.6,5.2-0.3,7.1l-4.2,4.2c-0.5,0.5-0.7,1.6-0.3,2.3c0.1,0.2,0.2,0.4,0.3,0.6
	c0.2,0.4,0.6,0.9,0.9,1.5c1.1,1.6,2.4,3.2,4,4.8c1.6,1.6,3.2,2.9,4.8,4c0.5,0.4,1,0.7,1.5,0.9c0.2,0.1,0.4,0.2,0.5,0.3
	c0.8,0.4,1.9,0.3,2.4-0.2l4.2-4.2c1.9-1.9,5.1-2,7.1-0.3l10.9,8.9C-156.2,262-156,265.2-158,267.2z M-197.6,238.9l4.2-4.2
	c0.4-0.4,0.5-1.3,0.1-1.8l-8.9-10.9c-0.3-0.4-0.7-0.4-1.1-0.1l-6.7,6.7c-3.8,3.8,3.3,21,12.4,30.1c9.1,9.1,26.3,16.1,30.1,12.4
	l6.7-6.7c0.3-0.3,0.3-0.8-0.1-1.1l-10.9-8.9c-0.5-0.4-1.3-0.4-1.8,0.1l-4.2,4.2c-1.8,1.8-4.9,2.2-7.1,1c-0.5-0.3-1.3-0.7-2.4-1.4
	c-1.8-1.2-3.6-2.7-5.4-4.5c-1.8-1.8-3.3-3.6-4.5-5.4c-0.7-1-1.2-1.8-1.4-2.4C-199.9,243.8-199.4,240.7-197.6,238.9z"/>
</svg>
