<?xml version="1.0" encoding="utf-8"?>
<!-- Generator: Adobe Illustrator 19.0.1, SVG Export Plug-In . SVG Version: 6.00 Build 0)  -->
<svg version="1.1"
	 id="Слой_1" xmlns:inkscape="http://www.inkscape.org/namespaces/inkscape" xmlns:cc="http://creativecommons.org/ns#" xmlns:sodipodi="http://sodipodi.sourceforge.net/DTD/sodipodi-0.dtd" xmlns:dc="http://purl.org/dc/elements/1.1/" xmlns:svg="http://www.w3.org/2000/svg" xmlns:rdf="http://www.w3.org/1999/02/22-rdf-syntax-ns#"
	 xmlns="http://www.w3.org/2000/svg" xmlns:xlink="http://www.w3.org/1999/xlink" x="0px" y="0px" viewBox="-191 209 84 58"
	 style="enable-background:new -191 209 84 58;" xml:space="preserve">
<style type="text/css">
	.st0{fill:#F7921D;}
</style>
<g transform="translate(0,-952.36218)">
	<path class="st0" d="M-187,1161.4c-2.2,0-4,1.8-4,4v50c0,2.2,1.8,4,4,4h76c2.2,0,4-1.8,4-4v-50c0-2.2-1.8-4-4-4
		C-111,1161.4-187,1161.4-187,1161.4z M-185,1165.4h72l-34.4,32.4c-0.8,0.7-2.5,0.7-3.3,0C-150.6,1197.8-185,1165.4-185,1165.4z
		 M-187,1169l23.4,22l-23.4,21.8C-187,1212.7-187,1169-187,1169z M-111,1169v43.8l-23.4-21.8C-134.4,1191-111,1169-111,1169z
		 M-160.7,1193.7l7.3,6.9c2.4,2.3,6.3,2.3,8.8,0l7.3-6.9l23.2,21.6h-69.9C-183.9,1215.4-160.7,1193.7-160.7,1193.7z"/>
</g>
</svg>
