<?xml version="1.0" encoding="utf-8"?>
<!-- Generator: Adobe Illustrator 19.0.1, SVG Export Plug-In . SVG Version: 6.00 Build 0)  -->
<svg version="1.1" id="Слой_1" xmlns="http://www.w3.org/2000/svg" xmlns:xlink="http://www.w3.org/1999/xlink" x="0px" y="0px"
	 viewBox="-198 189 98 98" style="enable-background:new -198 189 98 98;" xml:space="preserve">
<style type="text/css">
	.st0{fill:#9E9E9E;}
</style>
<title>Artboard 7</title>
<path class="st0" d="M-103,215l-4.7-0.8c-0.6-2.1-1.4-4-2.4-5.9l2.8-3.9c1-1.4,0.8-3.4-0.4-4.7l-2.8-2.9c-1.2-1.2-3.2-1.4-4.7-0.4
	l-3.9,2.8c-1.8-1.1-3.8-1.9-5.9-2.4l-0.9-4.7c-0.3-1.7-1.8-3-3.6-3h-4c-1.8,0-3.3,1.3-3.6,3l-0.8,4.7c-2.1,0.6-4,1.4-5.9,2.4
	l-3.9-2.8c-1.4-1-3.4-0.8-4.7,0.4l-2.8,2.8c-1.2,1.2-1.4,3.2-0.4,4.7l2.8,3.9c-1.1,1.8-1.9,3.8-2.4,5.9l-4.7,0.9
	c-1.7,0.3-3,1.8-3,3.6v4c0,1.8,1.3,3.3,3,3.6l4.7,0.8c0.6,2.1,1.4,4,2.4,5.9l-2.8,3.9c-1,1.4-0.8,3.4,0.4,4.7l2.8,2.8
	c1.2,1.2,3.2,1.4,4.7,0.4l3.9-2.8c1.8,1.1,3.8,1.9,5.9,2.4l0.8,4.7c0.3,1.7,1.8,3,3.6,3h4c1.8,0,3.3-1.3,3.6-3l0.8-4.7
	c2.1-0.6,4-1.4,5.9-2.4l3.9,2.8c1.4,1,3.4,0.8,4.7-0.4l2.8-2.8c1.2-1.2,1.4-3.2,0.4-4.7l-2.8-3.9c1.1-1.8,1.9-3.8,2.5-5.9l4.7-0.9
	c1.7-0.3,3-1.8,3-3.6v-4C-100,216.8-101.3,215.3-103,215z M-131.6,231.4c-6,0-10.8-4.8-10.8-10.8s4.8-10.8,10.8-10.8
	c6,0,10.8,4.8,10.8,10.8C-120.7,226.5-125.6,231.4-131.6,231.4C-131.5,231.4-131.5,231.4-131.6,231.4z M-195.9,261.6
	c-1.6,0.7-2.5,2.5-2,4.2l1,3.9c0.5,1.7,2.1,2.9,3.9,2.7l4.3-0.4c1.5,2.3,3.4,4.2,5.7,5.7l-0.4,4.3c-0.2,1.8,1,3.4,2.7,3.8l3.9,1
	c1.7,0.5,3.5-0.4,4.2-2l1.8-3.8c2.7-0.2,5.3-0.9,7.8-2.1l3.5,2.5c1.4,1,3.4,0.9,4.7-0.4l2.8-2.9c1.2-1.2,1.4-3.2,0.4-4.7l-2.4-3.5
	c1.2-2.4,1.9-5.1,2-7.8l4-1.8c1.6-0.7,2.5-2.5,2-4.2l-1-3.9c-0.5-1.7-2.1-2.8-3.8-2.7l-4.3,0.4c-1.5-2.3-3.4-4.2-5.7-5.7l0.4-4.3
	c0.2-1.8-1-3.4-2.7-3.8l-3.9-1c-1.7-0.5-3.5,0.4-4.2,2l-1.9,3.9c-2.7,0.1-5.3,0.8-7.8,2l-3.5-2.5c-1.5-1-3.4-0.8-4.7,0.5l-2.9,2.8
	c-1.2,1.2-1.4,3.2-0.4,4.7l2.5,3.5c-1.2,2.4-1.9,5.1-2.1,7.8L-195.9,261.6z M-177.3,255.6c3-3,7.8-3,10.7,0c3,3,3,7.8,0,10.7
	c-3,3-7.8,3-10.7,0c0,0,0,0,0,0C-180.3,263.4-180.3,258.6-177.3,255.6z"/>
</svg>
