<?xml version="1.0" encoding="utf-8"?>
<!-- Generator: Adobe Illustrator 22.1.0, SVG Export Plug-In . SVG Version: 6.00 Build 0)  -->
<svg version="1.1" xmlns="http://www.w3.org/2000/svg" xmlns:xlink="http://www.w3.org/1999/xlink" x="0px" y="0px"
	 viewBox="0 0 154.4 73.5" style="enable-background:new 0 0 154.4 73.5;" xml:space="preserve">
<style type="text/css">
	.st0{fill:#6B555B;}
	.st1{fill:#525656;}
	.st2{fill:#3B3D3D;}
	.st3{fill:#9B9D9E;}
	.st4{fill:#514147;}
	.st5{fill:#747677;}
	.st6{fill:#333333;}
	.st7{fill:#7F6970;}
	.st8{fill:#87DAE8;}
	.st9{fill:#66AFB2;}
	.st10{fill:#CECECE;}
</style>
<g id="background">
</g>
<g id="object">
	<polygon class="st0" points="154.4,73.5 154.4,58.5 141.7,28.9 141.7,4.4 124.5,4.4 124.5,73.5 	"/>
	<polygon class="st1" points="0,73.5 144.9,73.5 124.5,21.6 0,21.6 	"/>
	<path id="XMLID_151_" class="st2" d="M102,54.8c-2.2,7.9-14.3,14.8-22.5,18.7H12.7l62-52h30.5C105.6,28.7,104.6,45.5,102,54.8z"/>
	<g>
		<polygon class="st3" points="144.9,65.3 95.4,16 45.9,65.3 45.9,73.5 144.9,73.5 		"/>
	</g>
	<g>
		<g>
			<path class="st4" d="M129.6,17.2h-5.1v4.4h5.1V17.2z M141.7,10.8h-5.1v4.4h5.1V10.8z M127.9,31.4h10.3V27h-10.3V31.4z M146.5,40
				h-5.8v4.4h7.6L146.5,40z M146.8,63.1v4.4h7.6v-4.4H146.8z"/>
		</g>
	</g>
	<polygon id="XMLID_264_" class="st5" points="144.9,65.3 144.9,70.7 95.3,21.2 45.9,70.7 45.9,65.3 95.4,16 	"/>
	<g id="XMLID_91_">
		<polygon id="XMLID_94_" class="st6" points="151.6,75 154.4,72.1 95.3,13 39.8,68.5 42.6,71.4 95.3,18.7 		"/>
	</g>
	
		<rect id="XMLID_89_" x="121.8" y="0" transform="matrix(-1 -4.486557e-11 4.486557e-11 -1 265.8298 4.3842)" class="st7" width="22.3" height="4.4"/>
	<rect id="XMLID_154_" x="124.5" y="4.4" class="st4" width="17.2" height="2.2"/>
	<circle id="XMLID_115_" class="st8" cx="95.4" cy="50.3" r="8.1"/>
	<path id="XMLID_186_" class="st9" d="M102.3,51.4c0-4.5-3.6-8.1-8.1-8.1c-2,0-3.7,0.7-5.1,1.8c1.5-1.8,3.7-3,6.2-3
		c4.5,0,8.1,3.6,8.1,8.1c0,2.5-1.2,4.8-3,6.2C101.7,55.1,102.3,53.3,102.3,51.4z"/>
	<path id="XMLID_126_" class="st10" d="M84.7,50.3c0,5.9,4.8,10.6,10.6,10.6S106,56.1,106,50.3s-4.8-10.6-10.6-10.6
		S84.7,44.4,84.7,50.3z M94.3,42.2v6.9h-6.9C87.8,45.6,90.7,42.7,94.3,42.2z M103.4,49.2h-6.9v-6.9C100,42.7,102.9,45.6,103.4,49.2z
		 M96.5,58.3v-6.9h6.9C102.9,54.9,100,57.8,96.5,58.3z M87.3,51.4h6.9v6.9C90.7,57.8,87.8,54.9,87.3,51.4z"/>
</g>
<g id="designed_by_freepik">
</g>
</svg>
