<?xml version="1.0" encoding="utf-8"?>
<!-- Generator: Adobe Illustrator 19.0.1, SVG Export Plug-In . SVG Version: 6.00 Build 0)  -->
<svg version="1.1" id="Слой_1" xmlns="http://www.w3.org/2000/svg" xmlns:xlink="http://www.w3.org/1999/xlink" x="0px" y="0px"
	 viewBox="-217 220 40 48" style="enable-background:new -217 220 40 48;" xml:space="preserve">
<style type="text/css">
	.st0{fill:#F7921D;}
</style>
<g>
	<g>
		<g>
			<path class="st0" d="M-186.3,230h-27.4c-1.8,0-3.3-1.5-3.3-3.3v-3.4c0-1.8,1.5-3.3,3.3-3.3h27.4c1.8,0,3.3,1.5,3.3,3.3v3.4
				C-183,228.5-184.5,230-186.3,230z M-213.7,222c-0.7,0-1.3,0.6-1.3,1.3v3.4c0,0.7,0.6,1.3,1.3,1.3h27.4c0.7,0,1.3-0.6,1.3-1.3
				v-3.4c0-0.7-0.6-1.3-1.3-1.3H-213.7z"/>
		</g>
		<g>
			<path class="st0" d="M-201,244c-0.6,0-1-0.4-1-1c0-3.9,3.1-7,7-7h11c2.8,0,5-2.2,5-5s-2.2-5-5-5c-0.6,0-1-0.4-1-1s0.4-1,1-1
				c3.9,0,7,3.1,7,7s-3.1,7-7,7h-11c-2.8,0-5,2.2-5,5C-200,243.5-200.4,244-201,244z"/>
		</g>
		<g>
			<path class="st0" d="M-201,268c-3.3,0-6-2.7-6-6v-12.5c0-0.4,0.1-0.9,0.2-1.3l1.2-3.5c0.5-1.6,2.1-2.7,3.8-2.7h1.7
				c1.7,0,3.2,1.1,3.8,2.7l1.2,3.5c0.1,0.4,0.2,0.8,0.2,1.3V262C-195,265.3-197.7,268-201,268z M-201.8,244c-0.9,0-1.6,0.5-1.9,1.4
				l-1.2,3.5c-0.1,0.2-0.1,0.4-0.1,0.6V262c0,2.2,1.8,4,4,4s4-1.8,4-4v-12.5c0-0.2,0-0.4-0.1-0.6l-1.2-3.5c-0.3-0.8-1-1.4-1.9-1.4
				H-201.8z"/>
		</g>
	</g>
	<g>
		<path class="st0" d="M-196,262h-10c-0.6,0-1-0.4-1-1s0.4-1,1-1h10c0.6,0,1,0.4,1,1S-195.4,262-196,262z"/>
	</g>
</g>
</svg>
