<?xml version="1.0" encoding="utf-8"?>
<!-- Generator: Adobe Illustrator 19.0.1, SVG Export Plug-In . SVG Version: 6.00 Build 0)  -->
<svg version="1.1" id="Слой_1" xmlns="http://www.w3.org/2000/svg" xmlns:xlink="http://www.w3.org/1999/xlink" x="0px" y="0px"
	 viewBox="-223.4 221 44.8 48" style="enable-background:new -223.4 221 44.8 48;" xml:space="preserve">
<style type="text/css">
	.st0{fill:#F7921D;}
</style>
<g>
	<path class="st0" d="M-192.3,255h-12.5c-7.5,0-13.7-5.7-13.7-12.7c0-0.6,0.4-1,1-1h37.8c0.6,0,1,0.4,1,1
		C-178.6,249.3-184.8,255-192.3,255z M-216.4,243.3c0.6,5.4,5.6,9.7,11.6,9.7h12.5c6.1,0,11.1-4.3,11.6-9.7H-216.4z"/>
	<path class="st0" d="M-179.7,243.1c0,0-0.1,0-0.1,0c-0.5-0.1-0.9-0.5-0.9-1.1c0.1-0.6,0.1-1.2,0.1-1.8c0-9.5-7.7-17.3-17.3-17.3
		c-0.6,0-1-0.4-1-1s0.4-1,1-1c10.6,0,19.3,8.6,19.3,19.3c0,0.7,0,1.3-0.1,2C-178.8,242.8-179.2,243.1-179.7,243.1z"/>
	<path class="st0" d="M-197.9,243.3c-0.1,0-0.2,0-0.3-0.1c-0.4-0.1-0.7-0.5-0.7-0.9V222c0-0.6,0.4-1,1-1s1,0.4,1,1v17.5l10.8-13.1
		c0.3-0.4,1-0.5,1.4-0.1c0.4,0.4,0.5,1,0.1,1.4l-12.6,15.3C-197.3,243.2-197.6,243.3-197.9,243.3z"/>
	<path class="st0" d="M-217.4,242.3c-0.4,0-0.8-0.2-0.9-0.6l-4.9-11.5c-0.2-0.5,0-1.1,0.5-1.3s1.1,0,1.3,0.5l4.9,11.5
		c0.2,0.5,0,1.1-0.5,1.3C-217.2,242.3-217.3,242.3-217.4,242.3z"/>
	<path class="st0" d="M-206.7,269c-3.3,0-6.1-2.7-6.1-6.1c0-3.3,2.7-6.1,6.1-6.1c3.3,0,6.1,2.7,6.1,6.1
		C-200.7,266.3-203.4,269-206.7,269z M-206.7,258.9c-2.2,0-4.1,1.8-4.1,4.1s1.8,4.1,4.1,4.1s4.1-1.8,4.1-4.1
		S-204.5,258.9-206.7,258.9z"/>
	<path class="st0" d="M-191.6,269c-3.3,0-6.1-2.7-6.1-6.1s2.7-6.1,6.1-6.1s6.1,2.7,6.1,6.1S-188.3,269-191.6,269z M-191.6,258.9
		c-2.2,0-4.1,1.8-4.1,4.1c0,2.2,1.8,4.1,4.1,4.1s4.1-1.8,4.1-4.1C-187.5,260.7-189.4,258.9-191.6,258.9z"/>
</g>
</svg>
