<?xml version="1.0" encoding="utf-8"?>
<!-- Generator: Adobe Illustrator 19.0.1, SVG Export Plug-In . SVG Version: 6.00 Build 0)  -->
<svg version="1.1" id="Слой_1" xmlns="http://www.w3.org/2000/svg" xmlns:xlink="http://www.w3.org/1999/xlink" x="0px" y="0px"
	 viewBox="-227 228.1 36.6 36.6" style="enable-background:new -227 228.1 36.6 36.6;" xml:space="preserve">
<style type="text/css">
	.st0{fill:#F7921D;stroke:#F7921D;stroke-miterlimit:10;}
</style>
<path class="st0" d="M-212,257.3h-1v-20.2h5.5c3.2,0,5.8,2.6,5.8,5.8s-2.6,5.8-5.8,5.8h-4.4C-212,248.6-212,257.3-212,257.3z
	 M-212,247.6h4.4c2.6,0,4.7-2.1,4.7-4.7s-2.1-4.7-4.7-4.7h-4.4V247.6z"/>
<path class="st0" d="M-208.7,264.2c-9.8,0-17.8-8-17.8-17.8c0-9.8,8-17.8,17.8-17.8c9.8,0,17.8,8,17.8,17.8
	C-190.9,256.2-198.9,264.2-208.7,264.2z M-208.7,229.6c-9.2,0-16.8,7.5-16.8,16.8s7.5,16.8,16.8,16.8c9.2,0,16.8-7.5,16.8-16.8
	S-199.5,229.6-208.7,229.6z"/>
</svg>
