<?xml version="1.0" encoding="utf-8"?>
<!-- Generator: Adobe Illustrator 19.0.1, SVG Export Plug-In . SVG Version: 6.00 Build 0)  -->
<svg version="1.1" id="Слой_1" xmlns="http://www.w3.org/2000/svg" xmlns:xlink="http://www.w3.org/1999/xlink" x="0px" y="0px"
	 viewBox="-192 262.2 65.4 59.8" style="enable-background:new -192 262.2 65.4 59.8;" xml:space="preserve">
<style type="text/css">
	.st0{fill:#F7921D;}
</style>
<g>
	<path class="st0" d="M-144.7,299.8c-0.8-0.3-1.6,0.1-1.9,0.8c-2,5.3-7.2,8.8-12.8,8.8c-5.4,0-10.4-3.2-12.6-8.2
		c-0.3-0.7-1.2-1.1-1.9-0.7c-0.7,0.3-1.1,1.2-0.7,1.9c2.7,6,8.7,9.9,15.3,9.9c6.8,0,13.1-4.3,15.6-10.7
		C-143.6,300.9-143.9,300.1-144.7,299.8z"/>
	<circle class="st0" cx="-168.8" cy="290.4" r="2.9"/>
	<circle class="st0" cx="-150.1" cy="290.4" r="2.9"/>
	<path class="st0" d="M-132.2,289c-0.6,0-1.1,0.1-1.6,0.3c-2.9-11.5-13.2-20-25.6-20c-0.6,0-1.2,0-1.8,0.1c-1.2-1.5-0.7-2.9-0.2-3.6
		c0.1-0.1,0.7-0.9,1.3-0.5c0.7,0.4,1.6,0.2,2-0.5c0.4-0.7,0.2-1.6-0.5-2c-1.7-1-3.8-0.4-5.1,1.3c-1.1,1.5-1.6,3.7-0.7,5.8
		c-10,1.9-18,9.6-20.5,19.4c-0.5-0.1-0.9-0.2-1.4-0.2c-3.3,0-5.6,2.6-5.6,6.2c0,3.6,2.4,6.2,5.6,6.2c0.4,0,0.8-0.1,1.2-0.1
		c2.6,11.9,13.1,20.8,25.7,20.8c12.6,0,23.2-8.9,25.8-20.8c0.5,0.1,0.9,0.2,1.4,0.2c3.3,0,5.6-2.6,5.6-6.2
		C-126.6,291.6-129,289-132.2,289z M-186.4,298.4c-1.6,0-2.7-1.3-2.7-3.2c0-2,1.1-3.2,2.7-3.2c0.3,0,0.6,0.1,0.9,0.2
		c-0.2,1.2-0.2,2.3-0.2,3.5c0,0.9,0,1.8,0.1,2.7C-185.9,298.4-186.1,298.4-186.4,298.4z M-159.4,319.1c-12.9,0-23.4-10.5-23.4-23.4
		c0-11.9,8.9-21.7,20.4-23.2c0.2,0.2,0.4,0.4,0.6,0.5c1.2,1.2,2.4,2.3,2.4,2.9c0,0.2-0.1,0.6-1,1.5c-0.6,0.6-0.6,1.5,0,2.1
		c0.3,0.3,0.7,0.4,1,0.4c0.4,0,0.8-0.1,1-0.4c0.8-0.8,1.9-2.1,1.9-3.6c0-1.3-0.7-2.4-1.9-3.6c12.4,0.5,22.4,10.8,22.4,23.4
		C-136,308.6-146.5,319.1-159.4,319.1z M-132.2,298.4c-0.3,0-0.7-0.1-1-0.2c0.1-0.8,0.1-1.7,0.1-2.6c0-1.2-0.1-2.3-0.2-3.4
		c0.3-0.2,0.7-0.3,1.1-0.3c1.6,0,2.7,1.3,2.7,3.2S-130.6,298.4-132.2,298.4z"/>
</g>
</svg>
