<svg xmlns="http://www.w3.org/2000/svg" xmlns:xlink="http://www.w3.org/1999/xlink" width="19" height="16" viewBox="0 0 19 16"><defs><path id="zcmba" d="M787.88 406.83a.75.75 0 0 1-.07.09l-8.72 9.82-.04.03-.01.02-.02.01a.82.82 0 0 1-.04.04l-.02.01a.66.66 0 0 1-.05.03l-.02.01-.03.02-.02.01-.02.01a.9.9 0 0 1-.05.02l-.03.01h-.01a.8.8 0 0 1-.1.03h-.01-.11l-.01.01h-.1l-.02-.01h-.02a.81.81 0 0 1-.09-.02h-.01l-.03-.02a.88.88 0 0 1-.05-.02h-.02l-.02-.02c-.01 0-.03 0-.04-.02h-.01a.7.7 0 0 1-.05-.04l-.02-.01a.82.82 0 0 1-.05-.04l-.01-.01-.02-.02a.8.8 0 0 1-.02-.03h-.01l-8.72-9.82a.75.75 0 0 1-.07-.1h-.01a.75.75 0 0 1-.05-.1v-.02a.77.77 0 0 1-.04-.1v-.02a.75.75 0 0 1-.02-.13v-.03-.08l.02-.11.01-.02a.75.75 0 0 1 .04-.1v-.02a.75.75 0 0 1 .07-.1l3.26-4.66c.15-.2.39-.33.65-.33h10.9c.26 0 .5.12.65.33l3.26 4.66.06.1v.02l.05.1v.02l.02.1v.12a.63.63 0 0 1-.01.13v.02l-.04.1v.01a.76.76 0 0 1-.05.1l-.01.02zm-16.38.36l5.05 5.68-1.9-5.68zm5.55-4.66l-.82 3.12h4.53l-.81-3.12zm-.75 4.66l2.2 6.57 2.2-6.57zm4.14 5.68l5.06-5.68h-3.16zm3.1-10.34h-1.98l.82 3.12h3.35zm-12.27 3.12h3.35l.81-3.12h-1.97z"/><linearGradient id="zcmbb" x1="787" x2="770" y1="417" y2="401" gradientUnits="userSpaceOnUse"><stop offset="0" stop-color="#339dff"/><stop offset="1" stop-color="#2bb2f8"/></linearGradient></defs><g><g transform="translate(-769 -401)"><use fill="url(#zcmbb)" xlink:href="#zcmba"/></g></g></svg>