<svg xmlns="http://www.w3.org/2000/svg" xmlns:xlink="http://www.w3.org/1999/xlink" width="16" height="17" viewBox="0 0 16 17"><defs><path id="nvsya" d="M306.15 415.7c-.7.2-1.43.3-2.15.3a8.07 8.07 0 0 1-7.7-6.06 8.43 8.43 0 0 1 1.85-7.86.67.67 0 0 1 .65-.2.7.7 0 0 1 .5.47 3.58 3.58 0 0 0 1.75 2.27c.36-.27 1.25-1.31 1.3-4.92 0-.2.1-.4.26-.53a.67.67 0 0 1 .55-.15c2.38.46 4.12 2.07 5.04 4.66.39 1.1.55 2.14.61 2.84a4.76 4.76 0 0 0 1.74-1.3.67.67 0 0 1 .66-.22.7.7 0 0 1 .5.5 8.32 8.32 0 0 1-5.56 10.2zm4.46-8.63a4 4 0 0 1-2.4 1.01h-.07a.7.7 0 0 1-.64-.71c0-.01 0-1.59-.6-3.24-.65-1.8-1.73-2.98-3.21-3.51-.11 1.89-.47 3.33-1.09 4.3-.6.96-1.26 1.14-1.38 1.17-.1.02-.21.01-.31-.02a4.39 4.39 0 0 1-2.44-2.14 7.01 7.01 0 0 0-.86 5.63 6.69 6.69 0 0 0 6.39 5.03c.6 0 1.2-.09 1.78-.26a6.87 6.87 0 0 0 4.83-7.26zm-4.77 4.76a.7.7 0 0 1-.48.87c-.46.13-.93.2-1.4.2a5.23 5.23 0 0 1-5-3.94.71.71 0 0 1 .48-.87c.36-.1.74.12.84.5a3.82 3.82 0 0 0 4.72 2.74c.36-.1.74.12.84.5z"/><linearGradient id="nvsyb" x1="312" x2="296" y1="415.01" y2="400" gradientUnits="userSpaceOnUse"><stop offset="0" stop-color="#ed242d"/><stop offset="1" stop-color="#ff3942"/></linearGradient></defs><g><g transform="translate(-296 -399)"><use fill="url(#nvsyb)" xlink:href="#nvsya"/></g></g></svg>