<svg xmlns="http://www.w3.org/2000/svg" xmlns:xlink="http://www.w3.org/1999/xlink" width="22" height="23" viewBox="0 0 22 23"><defs><path id="gfgha" d="M364.44 311.08a7.25 7.25 0 0 1-3.77 3.86 6.95 6.95 0 0 1-6.18-.32l-4.5 4.6 1.67 1.7c.2.2.26.5.14.8a.56.56 0 0 1-.11.16l-1.88 1.92c-.2.2-.5.26-.78.14a.54.54 0 0 1-.15-.12l-1.7-1.73-1.17 1.2c-.2.2-.5.27-.78.15a.55.55 0 0 1-.16-.12l-1.9-1.94a.5.5 0 0 1-.1-.16.72.72 0 0 1 .13-.8l8.49-8.68a7.38 7.38 0 0 1 1.2-8.62 7.07 7.07 0 0 1 5.02-2.12 6.9 6.9 0 0 1 5.01 2.12 7.25 7.25 0 0 1 2.08 5.13c0 .98-.19 1.93-.56 2.83zm-3.02-2.83c0-.96-.37-1.86-1.03-2.54a3.46 3.46 0 0 0-4.98 0 3.62 3.62 0 0 0-1.03 2.54c0 .96.37 1.87 1.04 2.55a3.46 3.46 0 0 0 4.97 0 3.58 3.58 0 0 0 1.03-2.55z"/><linearGradient id="gfghb" x1="365" x2="343" y1="324" y2="301" gradientUnits="userSpaceOnUse"><stop offset="0" stop-color="#ff9b25"/><stop offset="1" stop-color="#ffcd34"/></linearGradient></defs><g><g transform="translate(-343 -301)"><use fill="url(#gfghb)" xlink:href="#gfgha"/></g></g></svg>