<svg xmlns="http://www.w3.org/2000/svg" xmlns:xlink="http://www.w3.org/1999/xlink" width="100%" height="100%" viewBox="0 0 410 407"><defs><path id="1sdja" d="M989.35 204l7.02.28c8.76.35 24.73 1.81 25.09 2.28.07.08-3.48 27.54-7.85 61.06-4.38 33.53-11.56 88.71-15.98 122.67-4.38 33.96-8.12 62.09-8.32 62.52-.28.55-.32.08-.16-1.38.12-1.18.2-57.35.2-124.8zm-33.53 3.27c0 .2 3.27 25.01 7.3 55.1 3.98 30.1 11.28 84.85 16.17 121.61 4.9 36.76 8.95 67.5 9.07 68.24.36 2.45-.12.83-3.7-12.62-1.94-7.26-6.24-23.23-9.51-35.5l-11.05-41.22c-2.8-10.41-8.12-30.3-11.83-44.18-25.68-95.73-28.12-104.88-28.16-105.51-.04-.4.87-.79 2.92-1.26 5.8-1.38 14.47-3.16 20.11-4.06 6.31-1.03 8.68-1.19 8.68-.6zm99.12 6.04l6.55 2.01c6.2 1.9 18.18 6.23 21.66 7.85l1.89.87-45.28 109.65c-24.9 60.31-46.2 111.9-47.3 114.7-1.14 2.77-2.09 4.97-2.17 4.9-.11-.08 1.19-5.01 14.05-52.94 3.7-13.88 9.07-33.84 11.87-44.37l21.26-79.29c4.73-17.67 14.28-53.32 16.6-62.04.24-.9.6-1.46.87-1.34zM892.32 223.8c0 .2 2.48 6.35 5.56 13.69 3.03 7.37 9.86 23.74 15.14 36.44 5.29 12.7 13.77 33.14 18.9 45.44a51620.6 51620.6 0 0 0 18.62 44.77l32.73 78.77c2.25 5.4 4.07 9.86 3.99 9.94-.04.04-7.22-12.27-15.94-27.37-8.75-15.11-36.72-63.63-62.24-107.76l-46.3-80.23 3.03-1.74a332.71 332.71 0 0 1 20.79-10.17c4.8-2.13 5.72-2.41 5.72-1.78zm223.45 14.63c1.06 0 23.39 15.03 26.38 17.75.28.28-148.94 195.84-150.75 197.62-.55.55-.55.51 0-.4.67-1.1 52.7-91.23 94.98-164.48 15.42-26.78 28.32-49.1 28.64-49.62.31-.47.67-.87.75-.87zm-280.84 18.58c.31 0 147.71 191.23 151.03 195.92.39.6-38.86-38.5-87.25-86.9-48.44-48.35-88.04-88.03-88.04-88.15 0-.63 12.26-11.4 22.32-19.6a6.55 6.55 0 0 1 1.94-1.27zm332.9 22.17c.99.35 13.93 15.03 18.9 21.5l1.93 2.52-.95.87c-.51.51-44.06 34.08-96.8 74.59-52.73 40.5-96 73.88-96.24 74.07-.2.24.32 0 1.19-.51.86-.47 48.6-28.04 106.02-61.22a97559 97559 0 0 1 104.92-60.5c.51-.16.55-.08 5.52 9.1 3.9 7.27 9.43 19.22 9.04 19.57-.16.16-9.67 4.18-21.18 8.96-11.48 4.77-31 12.9-43.4 18.02l-37.46 15.58a157771.4 157771.4 0 0 1-85.6 35.58 9707.95 9707.95 0 0 0-41.8 17.51c-.24.08 39.16-39.4 87.56-87.8 48.36-48.36 88.15-87.92 88.35-87.84zm-379.72 23.94c.07 0 2.64 1.94 5.71 4.26 4.82 3.67 70.53 53.92 89.82 68.71 21.61 16.53 85.63 65.56 93.2 71.32 8.2 6.23 10.14 8 8.29 7.45-1.38-.4-45.72-12.3-102.48-27.49-10.41-2.8-28.95-7.77-41.22-11.04-36.72-9.86-59.56-15.98-78.3-20.99-9.74-2.6-17.78-4.77-17.82-4.81-.44-.4 6.39-20.4 9.35-27.53l1.26-3.04 1.46.6c.79.3 6.3 2.6 12.27 5.08l59.95 24.73c6.82 2.84 15.34 6.35 18.93 7.81 3.6 1.46 14.76 6.08 24.85 10.26 10.1 4.18 21.26 8.8 24.85 10.25 3.6 1.46 14.75 6.08 24.85 10.26 20.2 8.36 40.63 16.76 53.65 22.13 4.65 1.89 8.52 3.43 8.56 3.35.07-.08-48.09-27.97-107.06-61.97-58.96-34.04-107.44-62.04-107.72-62.32-.35-.31.2-1.5 2.6-5.36 3.56-5.68 8.01-12.27 12.08-17.8a69.44 69.44 0 0 1 2.92-3.86zm444.21 88.08c.67.12 1.1 1.54 3.2 10.73 1.58 7.06 3.98 20.35 3.7 20.63-.07.08-19.28 2.68-42.67 5.8-148.4 19.76-202.98 27.02-203.57 26.98-.36 0 .59-.36 2.09-.75 1.54-.4 11.36-3.04 21.89-5.84 28.2-7.57 64.21-17.24 126.73-33.96 28.24-7.58 63.62-17.08 76.6-20.6 6.31-1.69 11.72-3.03 12.03-2.99zM739.8 423.62c.7.12 4.65.63 8.75 1.19a109562.68 109562.68 0 0 1 217.73 28.4l18.94 2.48-124.6.04-124.61.04.28-6.82c.31-8.48 1.22-19.17 2.05-24.26.2-1.22.27-1.26 1.46-1.07zm376.88 32.58l124.33-.04v4.03c0 5.05-.67 17.08-1.3 23.39l-.47 4.73-1.19-.08c-1.14-.12-57.2-7.37-166.65-21.65-27.45-3.55-56.09-7.3-63.7-8.25-7.57-.98-14.16-1.85-14.6-1.93-.43-.08 55.19-.16 123.58-.2zm-131.66.4c.08 0 0 .12-.2.27-.23.2-7.22 2.17-15.58 4.42-17.55 4.66-42.09 11.24-73.76 19.72-12.27 3.28-30.88 8.29-41.41 11.09l-85.95 23.03c-12.66 3.4-23.08 6.12-23.12 6.04-.67-.71-5.36-25.32-5.8-30.3l-.11-1.38 21.3-2.84c11.71-1.57 65.51-8.71 119.51-15.9 54.04-7.17 99.72-13.28 101.57-13.56 1.85-.28 3.43-.55 3.55-.6zm7.7.51l16.36 4.42 75.73 20.27 38.26 10.26c12.27 3.27 30.8 8.24 41.22 11.04 10.41 2.8 29.3 7.85 42 11.28 12.71 3.4 23.83 6.4 24.78 6.6.9.23 1.66.54 1.66.74 0 .2-.63 2.56-1.34 5.2-2.8 9.87-8.25 25.1-9 25.1-.4 0-.87-.2-27.13-11.05-10.1-4.18-21.27-8.8-24.85-10.26-3.6-1.46-14.76-6.07-24.85-10.25-10.1-4.18-21.26-8.8-24.85-10.26-3.6-1.46-14.76-6.07-24.85-10.25-48.12-19.84-61.26-25.29-85.6-35.3-9.86-4.07-18.02-7.5-18.14-7.58-.12-.12.16-.12.6.04zm-8.3 1.38c-.62.4-48.9 28.28-107.28 61.97a38783.48 38783.48 0 0 0-106.62 61.65c-.31.24-.63.27-.86.04-.2-.2-2.37-4.34-4.86-9.23-5.4-10.57-9.23-19.21-8.71-19.72.2-.16 9.42-4.1 20.47-8.68 11.08-4.62 26.94-11.2 35.3-14.67l32.74-13.61c9.66-4.03 24.3-10.1 32.54-13.53l39.84-16.57 43.39-18.02c10.21-4.22 19.88-8.29 21.5-9 3.35-1.5 4.3-1.7 2.56-.63zm7.82-.04c.23.2 48.67 28.2 107.56 62.2 58.9 34 107.13 61.85 107.17 61.9.08.07-4.77 8.28-7.14 12.06-2.44 3.9-10.3 14.95-10.57 14.87-.16-.04-10.65-8-23.27-17.67-12.66-9.66-42.8-32.74-66.98-51.24-24.18-18.5-58.22-44.57-75.61-57.86-17.44-13.33-31.68-24.34-31.68-24.45 0-.12.24-.04.52.2zM1079 546.9c48.56 48.47 88.2 88.23 88.16 88.35-.08.12-2.68 2.68-5.84 5.68-5.95 5.72-17.67 15.7-18.22 15.54-.2-.08-140.62-182.35-151.1-196.15-.64-.87 38.49 38.1 87 86.58zm-92.41-87.57c.12 0-39.49 39.68-87.96 88.16l-88.16 88.2-4.34-4.46a274.44 274.44 0 0 1-14.75-16.6c-2.1-2.61-2.4-3.2-1.97-3.64.31-.27 44.13-34 97.38-74.94 53.25-40.98 97.47-74.98 98.22-75.62.75-.59 1.46-1.1 1.58-1.1zm4.38.79c.2.31 10.8 18.62 23.5 40.63l61.5 106.53c21.14 36.6 38.5 66.78 38.61 67.1.16.43-1.02 1.3-4.42 3.2-9.97 5.52-23.66 11.98-24.17 11.43-.16-.16-1.7-3.78-3.48-8-1.73-4.23-8.71-21.03-15.46-37.28l-34.2-82.24-33.44-80.47c-4.22-10.1-7.93-19.05-8.25-19.91-.35-.87-.43-1.3-.2-1zm17.27 68.43c3.24 12.15 8.25 30.77 11.09 41.42 7.96 29.7 16.56 61.85 21.3 79.48l8.87 33.13c2.52 9.43 4.61 17.32 4.65 17.55.08.44-8.71 2.73-16.48 4.34-6.12 1.23-14.83 2.65-15.07 2.45-.08-.08-1.9-13.45-4.06-29.7-19.84-149.14-28.4-213.67-28.6-215.33-.28-2.72-1.1-5.75 18.3 66.66zm-21.38-68.04c.08 0 .08.12 0 .28a495404.95 495404.95 0 0 0-123.89 214.57c-.24.32-16.13-9.86-22.44-14.35l-4.66-3.36 1.1-1.46c.6-.82 34.56-45.16 75.42-98.57 40.87-53.4 74.4-97.1 74.47-97.1zm1.94 0c.07 0 .15 55.9.15 124.25V709h-4.41c-7.9 0-26.94-1.34-27.61-1.93-.2-.16 3.86-32.3 8.95-71.44 13.1-100.38 22.17-170.2 22.48-172.88.16-1.22.36-2.25.44-2.25zm-1.15.56c.12.07-2.48 9.86-15.66 59-3.27 12.27-8.24 30.8-11.04 41.22-4.81 18.03-9.23 34.48-23.16 86.38-3.35 12.59-7.92 29.63-10.13 37.87l-4.03 14.99-1.22-.08c-3.63-.32-29.9-9.3-29.54-10.14.43-1.06 9.19-22.28 12.98-31.4 2.28-5.52 7.53-18.3 11.71-28.4l26.62-64.48c4.38-10.65 15.94-38.62 25.64-62.2 9.75-23.6 17.75-42.84 17.83-42.76z"/><radialGradient id="1sdjb" cx="1241" cy="709" r="714.18" gradientUnits="userSpaceOnUse"><stop offset="0" stop-color="#ff9b25"/><stop offset=".72" stop-color="#ffbf30" stop-opacity="0"/><stop offset="1" stop-color="#ffcd34" stop-opacity="0"/></radialGradient></defs><g><g clip-path="url(#clip-2650)" opacity=".2" transform="translate(-787 -302)"><use fill="url(#1sdjb)" xlink:href="#1sdja"/></g></g></svg>