<svg xmlns="http://www.w3.org/2000/svg" xmlns:xlink="http://www.w3.org/1999/xlink" width="15" height="15" viewBox="0 0 15 15"><defs><path id="bmota" d="M1418.26 435.4c0 .37-.25.62-.63.62h-10.02c-.38 0-.63-.25-.63-.63v-10.02c0-.38.25-.63.63-.63h10.02c.38 0 .63.25.63.63zm3.76-3.77c0 .38-.25.63-.63.63h-1.25c-.38 0-.63-.25-.63-.63v-7.83c0-.19-.12-.31-.31-.31h-7.83c-.38 0-.63-.25-.63-.63v-1.25c0-.38.25-.63.63-.63h10.02c.38 0 .63.25.63.63zm-6.58-4.38h-5.64c-.19 0-.31.12-.31.31v5.64c0 .19.12.31.31.31h5.64c.19 0 .31-.12.31-.31v-5.64c0-.19-.12-.31-.31-.31z"/></defs><g><g transform="translate(-1407 -421)"><use fill="#2e3041" xlink:href="#bmota"/></g></g></svg>