<svg xmlns="http://www.w3.org/2000/svg" xmlns:xlink="http://www.w3.org/1999/xlink" width="18" height="17" viewBox="0 0 18 17"><defs><path id="2owsa" d="M1231.9 416a.75.75 0 0 1-.43-.14.71.71 0 0 1-.27-.8l1.77-5.45-4.66-3.21a.71.71 0 0 1-.28-.81c.1-.3.39-.5.7-.5h5.67l1.9-5.6c.1-.3.38-.5.7-.5.32 0 .6.2.7.5l1.9 5.6h5.66c.32 0 .6.2.7.5.1.3-.01.63-.27.8l-4.66 3.22 1.75 5.4a.7.7 0 0 1 .05.27c0 .4-.33.72-.73.72a.75.75 0 0 1-.44-.14l-4.66-3.34-4.66 3.34a.75.75 0 0 1-.44.14zm5.1-5.1c.15 0 .3.05.44.14l3.27 2.35-1.25-3.85c-.1-.3.02-.62.28-.8l3.2-2.21h-3.88c-.31 0-.6-.2-.7-.5l-1.36-4.02-1.37 4.03c-.1.29-.38.49-.7.49h-3.87l3.2 2.2c.26.19.37.51.28.81l-1.25 3.85 3.27-2.35c.13-.09.29-.14.44-.14z"/><linearGradient id="2owsb" x1="1245" x2="1229" y1="416" y2="399" gradientUnits="userSpaceOnUse"><stop offset="0" stop-color="#ff9b25"/><stop offset="1" stop-color="#ffcd34"/></linearGradient></defs><g><g transform="translate(-1228 -399)"><use fill="url(#2owsb)" xlink:href="#2owsa"/></g></g></svg>