<svg xmlns="http://www.w3.org/2000/svg" xmlns:xlink="http://www.w3.org/1999/xlink" width="25" height="25" viewBox="0 0 25 25"><defs><path id="hr8ea" d="M1051.05 305.92a3.05 3.05 0 0 0-3.02 3.07c0 1.7 1.35 3.06 3.02 3.06a3.04 3.04 0 0 0 3.02-3.06c0-1.7-1.36-3.07-3.02-3.07zm.01.6c1.33 0 2.41 1.1 2.41 2.46a2.43 2.43 0 0 1-2.41 2.45 2.43 2.43 0 0 1-2.41-2.45 2.43 2.43 0 0 1 2.41-2.45zm-6.08 10.48a1.96 1.96 0 0 1-2.56 1.1l-1.23-.5c.42.8 1.24 1.34 2.2 1.34a2.49 2.49 0 0 0 2.47-2.5 2.49 2.49 0 0 0-3-2.46l1.02.42a2 2 0 0 1 1.1 2.6zm15.01-4.5c0-6.9-5.62-12.5-12.56-12.5a12.54 12.54 0 0 0-12.43 10.77l6.67 2.73a3.3 3.3 0 0 1 2.06-.47l2.81-4.08a4.54 4.54 0 0 1 4.5-4.53c2.5 0 4.51 2.05 4.51 4.57a4.54 4.54 0 0 1-4.5 4.57l-4.32 3.2a3.39 3.39 0 0 1-3.34 3.09 3.38 3.38 0 0 1-3.29-2.7l-4.95-2a12.55 12.55 0 0 0 12.28 9.85c6.94 0 12.56-5.6 12.56-12.5z"/><linearGradient id="hr8eb" x1="1047.99" x2="1047" y1="325" y2="300" gradientUnits="userSpaceOnUse"><stop offset="0" stop-color="#4f4954"/><stop offset="1" stop-color="#2d2a30"/></linearGradient></defs><g><g transform="translate(-1035 -300)"><use fill="url(#hr8eb)" xlink:href="#hr8ea"/></g></g></svg>