<svg xmlns="http://www.w3.org/2000/svg" width="22.6" height="16.1"><g fill="#b5b5b5"><path d="M15.5 0l-5.4 8.6H4.2l1.3-2.1h3.7l1.4-2.1H2.3L1 6.5h2L.3 10.8h11.1L15.5 4l1.6 2.5h-1.3l-1.4 2.1h4l1.4 2.2h2.5L15.5 0z"/><path d="M13.8.1H5L3.6 2.2h8.8L13.8.1zM.7 12.4v2.8h2.6v-1H1.9v-.7h2.2V15c0 .8-.2 1-.9 1H.8c-.6 0-.8-.2-.8-1v-2.2c0-.8.2-1 .8-1h2.4c.6 0 .9.2.9 1v.2h-.8v-.5l-2.6-.1zm5 1.9l.8-1.8.7 1.8zM4.1 16h.8l.4-1h2.2l.4 1h1l-2-4.4h-.8l-2 4.4zm5.2-4.4h.6l1.6 2.6 1.6-2.6h.6V16H13v-2.7a1.34 1.34 0 0 1 .1-.5 1.69 1.69 0 0 0-.2.5l-1.3 2.2h-.2l-1.3-2.2c-.1-.2-.2-.2-.2-.5V16h-.6v-4.4zm5.3 0h3.6v.8h-2.8v1H17v.8h-1.6v1h2.8v.8h-3.6v-4.4zm6.9 1.9h-1.7v-1h2v.6h.8v-.3c0-.7-.2-1-1.1-1h-1.3c-.9 0-1.1.2-1.1 1v.4c0 .8.2 1 1.1 1h1.7v1.1h-2.2v-.5h-.9v.3c0 .8.2 1 1.1 1h1.6c.9 0 1.1-.2 1.1-1v-.5c0-.9-.3-1.1-1.1-1.1z"/></g></svg>