<svg xmlns="http://www.w3.org/2000/svg" width="18.5" height="14.6"><path d="M12 10.2v4.4h1.3v-3.7a.43.43 0 0 1 .4-.4h.9v4.1h1.3v-3.7a.43.43 0 0 1 .4-.4h.9v4.1h1.3V9.2H13a1 1 0 0 0-1 1zm-12 0v3.4a1 1 0 0 0 1 1h3.4v-1.2H1.6a.43.43 0 0 1-.4-.4v-2a.43.43 0 0 1 .4-.4h2.7V9.3H.9c-.4-.1-.9.4-.9.9zm14.1-4.7h2.3V4.1h-1.6a.43.43 0 0 1-.4-.4v-2a.43.43 0 0 1 .4-.4h2a.43.43 0 0 1 .4.4v4.4a.43.43 0 0 1-.4.4h-3.7v1.4h4.4a1 1 0 0 0 1-1V1.1a1 1 0 0 0-1-1h-3.4a1 1 0 0 0-1 1v3.4c-.1 1 .5 1 1 1zM5.5 1a1 1 0 0 0-1-1H1.1a1 1 0 0 0-1 1v3.4a1 1 0 0 0 1 1h2.3V4H1.8a.43.43 0 0 1-.4-.4v-2a.43.43 0 0 1 .4-.4h2a.43.43 0 0 1 .4.4V6a.43.43 0 0 1-.4.4H0v1.4h4.4a1 1 0 0 0 1-1V1zM10 9.2H6.6a1 1 0 0 0-1 1v3.4a1 1 0 0 0 1 1H10a1 1 0 0 0 1-1v-3.4a1.17 1.17 0 0 0-1-1zm-.4 1.7v2a.43.43 0 0 1-.4.4h-2a.43.43 0 0 1-.4-.4v-2a.43.43 0 0 1 .4-.4h2c.3 0 .4.1.4.4zM12 1a1 1 0 0 0-1-1H7.6a1 1 0 0 0-1 1v3.4a1 1 0 0 0 1 1H11a1 1 0 0 0 1-1zm-1.3.8v2a.43.43 0 0 1-.4.4h-2a.43.43 0 0 1-.4-.4v-2a.43.43 0 0 1 .4-.4h2a.37.37 0 0 1 .4.4z" fill="#b5b5b5"/></svg>