<svg xmlns="http://www.w3.org/2000/svg" width="50.32" height="17.94"><path d="M6.52 0c.1-.1.2 0 .2.1s0 .2-.1.2a4 4 0 0 0-.7 1.8c-.1 0-.1.1-.1.2h.1a5.52 5.52 0 0 1 2.2.1 6.27 6.27 0 0 1 3.4 1.8 7 7 0 0 1 1.8 3.4 5.85 5.85 0 0 1-.5 4.1A13.91 13.91 0 0 1 7 17.94c-.1 0-.2 0-.2-.1v-.3a4.59 4.59 0 0 0 .7-1.6c0-.1.1-.2.1-.3s-.1 0-.2 0a6.41 6.41 0 0 1-3.6-.6 7.29 7.29 0 0 1-2.9-2.6A5.8 5.8 0 0 1 0 9a6.2 6.2 0 0 1 .9-3.2A12.61 12.61 0 0 1 6.52 0m-.1 6.4a3.07 3.07 0 0 0-1.8 1.1 2.3 2.3 0 0 0-.4 1.4 2.41 2.41 0 0 0 .7 1.8 3 3 0 0 0 1.6.8 3 3 0 0 0 1.8-.4 3 3 0 0 0 1.1-1.4 2.78 2.78 0 0 0-1-2.9 2.39 2.39 0 0 0-2-.4zm23.4-2.56a1.14 1.14 0 0 1 1.3.5 1.64 1.64 0 0 1 .2 1 1.37 1.37 0 0 1-1 .8 1.17 1.17 0 0 1-1.1-.5 1.5 1.5 0 0 1-.1-1.3 1.28 1.28 0 0 1 .7-.5zm10.6 0a1.28 1.28 0 0 1 1.4.6 1.15 1.15 0 0 1-.5 1.4 1.5 1.5 0 0 1-1 .2.75.75 0 0 1-.7-.6.91.91 0 0 1 0-1 2.1 2.1 0 0 1 .8-.6zM18.62 5a4 4 0 0 1 2.4.4 4.28 4.28 0 0 1 1.6 1.4 4 4 0 0 1 .2 3.8 4.13 4.13 0 0 1-1.5 1.7 4.35 4.35 0 0 1-4 .2 4 4 0 0 1-1.8-1.6 4.25 4.25 0 0 1-.5-2.7 5.7 5.7 0 0 1 1.1-2.2 5.51 5.51 0 0 1 2.5-1m.2 1.9a1.74 1.74 0 0 0-1.1.6 2.26 2.26 0 0 0 0 2.9 2.2 2.2 0 0 0 1.5.6 1.61 1.61 0 0 0 1.3-.6 2.19 2.19 0 0 0-.2-3 1.65 1.65 0 0 0-1.5-.5zm29.8-1.06h.7V6h-.2v.7h-.2V6h-.2c-.1 0-.1-.1-.1-.2zm.9 0h.2c.1.2.2.2.2.4.1-.2.2-.2.2-.4h.2v.9h-.2v-.6c-.1.2-.2.2-.2.4-.1-.2-.2-.2-.2-.4v.6h-.2zm-11.4.5a.31.31 0 0 1 .2-.1s.2.1.2.2v5.1a3.2 3.2 0 0 1-.5 1.9 2.81 2.81 0 0 1-1.4 1 8.2 8.2 0 0 1-2.2.2 4.24 4.24 0 0 1-1.9-.6c-.1 0-.2-.2-.1-.2.2-.3.3-.7.5-1 .1-.1.2-.2.3-.1a4 4 0 0 0 2.2.4 1.39 1.39 0 0 0 1-.5 2 2 0 0 0 .2-1.1 3.6 3.6 0 0 1-1.2.8 2.55 2.55 0 0 1-2.2-.4 2.26 2.26 0 0 1-1-1.5 2.56 2.56 0 0 1 0-1.5 2.68 2.68 0 0 1 1-1.5 3.7 3.7 0 0 1 1.1-.5c.2-.1.5 0 .7 0h1.7c.2.1.2.2.3.3a3.13 3.13 0 0 1 1.1-.9m-3.2 2.1c-.2.1-.5.2-.6.4a1.21 1.21 0 0 0 .1 1.5 1.27 1.27 0 0 0 1.8 0 1.22 1.22 0 0 0 0-1.6 1.44 1.44 0 0 0-1.3-.3zm11-1.6a2.54 2.54 0 0 1 1.2-.2 1.74 1.74 0 0 1 1.1.6 3.13 3.13 0 0 1 .5 1 3.33 3.33 0 0 1 0 1v3.2a.22.22 0 0 1-.2.2h-1.7a.22.22 0 0 1-.2-.2v-3a1.88 1.88 0 0 0-.2-.8 1 1 0 0 0-1.5.9v2.9a.22.22 0 0 1-.2.2H43c-.1 0-.2 0-.2-.1a.31.31 0 0 1-.1-.2v-5.4a.22.22 0 0 1 .2-.2h1.7c.1 0 .2 0 .2.2v.7a7.63 7.63 0 0 1 1.1-.8zM27 7a1.34 1.34 0 0 1 .9-.2.22.22 0 0 1 .2.2v1.8c0 .2-.1.2-.2.2a1.85 1.85 0 0 0-1.2.5 2.92 2.92 0 0 0-.5 1.4v1.8a.22.22 0 0 1-.2.2h-1.7a.22.22 0 0 1-.2-.2V7.24a.22.22 0 0 1 .2-.2H26a.22.22 0 0 1 .2.2v1A1.55 1.55 0 0 1 27 7zm2.22-.16h1.6c.1 0 .2 0 .2.1a.35.35 0 0 0 .1.2v5.4a.22.22 0 0 1-.2.2h-1.8c-.1 0-.2-.2-.2-.2v-5.4q.15-.3.3-.3zm10.6 0h1.7a.22.22 0 0 1 .2.2v5.5a.22.22 0 0 1-.2.2h-1.8a.22.22 0 0 1-.2-.2V7c.1-.06.2-.16.3-.16z" fill="#b5b5b5"/></svg>