<svg xmlns="http://www.w3.org/2000/svg" width="26.6" height="25.4"><g fill="#098249"><path d="M21.4 1.7l1.1 1L8.1 11l-7-4.1.6-1.3L8 9.2zM18.5 0l1.5.8L8.1 7.7 2.6 4.5l1-1.1L8.2 6zm5 3.8l.9 1.1-16.3 9.4L.3 9.8l.3-1.4 7.5 4.3z"/><path d="M25.9 8a12.34 12.34 0 0 1 .7 4.2 12.51 12.51 0 0 1-.7 4.3l-.3.9a11 11 0 0 1-2.9 4.2 12.88 12.88 0 0 1-4.2 2.8 13.37 13.37 0 0 1-5.2 1 13.37 13.37 0 0 1-5.2-1 12.88 12.88 0 0 1-4.2-2.8A13.2 13.2 0 0 1 1 17.4a13.37 13.37 0 0 1-1-5.2v-.9l8.1 4.6 17.1-9.8z"/></g></svg>