<svg xmlns="http://www.w3.org/2000/svg" width="27.34" height="27.31"><g fill="#f7931a"><path d="M12.5 13.9l-.8 3.3c1 .2 4.2 1.3 4.6-.6s-2.7-2.5-3.8-2.7zm1.2-4.5l-.7 3c.9.2 3.4 1 3.8-.6.5-1.9-2.3-2.3-3.1-2.4z"/><path d="M17 .4A13.67 13.67 0 1 0 26.9 17 13.6 13.6 0 0 0 17 .4zm2.7 11.4a2.37 2.37 0 0 1-1.9 2.2 2.62 2.62 0 0 1 1.4 3.6c-.8 2.3-2.7 2.5-5.3 2l-.6 2.5-1.5-.4.6-2.5-1.2-.3-.6 2.5-1.5-.4.6-2.5a3.55 3.55 0 0 0-1-.2l-1.9-.5.7-1.7s1.1.3 1.1.2a.68.68 0 0 0 .7-.3l1-3.9h.2c-.1 0-.1 0-.2-.1l.7-2.8a.89.89 0 0 0-.7-.9l-1.1-.2.4-1.6 2.1.5a3 3 0 0 0 1 .2l.6-2.5 1.5.4-.6 2.4 1.2.3.6-2.4 1.5.4-.6 2.5c1.7.7 3.2 1.6 2.8 3.5z"/></g></svg>