<svg xmlns="http://www.w3.org/2000/svg" width="27.5" height="27.5"><path d="M24.9 21.8H2.7a13.77 13.77 0 0 0 11.1 5.7 13.5 13.5 0 0 0 11.1-5.7zm2.6-8.1a11.24 11.24 0 0 0-.4-3.2H.4a11.24 11.24 0 0 0-.4 3.2 19.42 19.42 0 0 0 .2 2.4h27.1a9 9 0 0 0 .2-2.4zM13.8 0A13.66 13.66 0 0 0 3.3 4.9h21A13.82 13.82 0 0 0 13.8 0z" fill="#212121"/><path d="M27.2 10.5a13.44 13.44 0 0 0-2.9-5.7h-21a12.89 12.89 0 0 0-2.9 5.7h26.8zm-2.3 11.3a12.65 12.65 0 0 0 2.4-5.7H0a14.45 14.45 0 0 0 2.4 5.7h22.5z" fill="#f2c50c"/></svg>