<svg xmlns="http://www.w3.org/2000/svg" width="27.2" height="27.1"><path d="M20.7 9.6a3.35 3.35 0 0 1-3.3 3.4 3.29 3.29 0 0 1-3.3-3.4 3.29 3.29 0 0 1 3.3-3.4 3.49 3.49 0 0 1 3.3 3.4zm-5.9 0A2.6 2.6 0 1 0 17.4 7a2.65 2.65 0 0 0-2.6 2.6zm-5.2 5.9L8.5 15a1.27 1.27 0 0 1 .6-.1 2.7 2.7 0 1 1 0 5.4 2.91 2.91 0 0 1-2.4-1.4c.5.2.9.4 1.4.6a2.13 2.13 0 0 0 2.8-1.2 2.32 2.32 0 0 0-1.3-2.8zm3.8 11.6A13.74 13.74 0 0 1 0 16.4l5.4 2.2a3.65 3.65 0 0 0 3.6 3 3.77 3.77 0 0 0 3.7-3.4l4.7-3.5a4.93 4.93 0 0 0 4.9-5 4.9 4.9 0 1 0-9.8 0l-3 4.5h-.4a2.79 2.79 0 0 0-1.8.6l-7.3-3a13.66 13.66 0 0 1 27.2 1.8 13.77 13.77 0 0 1-13.8 13.5z" fill="#292b34"/></svg>