<?xml version="1.0" encoding="utf-8"?>
<!-- Generator: Adobe Illustrator 19.0.1, SVG Export Plug-In . SVG Version: 6.00 Build 0)  -->
<svg version="1.1" id="Слой_1" xmlns="http://www.w3.org/2000/svg" xmlns:xlink="http://www.w3.org/1999/xlink" x="0px" y="0px"
	 viewBox="0 0 173.4 79" style="enable-background:new 0 0 173.4 79;" xml:space="preserve">
<style type="text/css">
	.st0{fill:#F39222;}
</style>
<g>
	<g>
		<path class="st0" d="M37.5,78.2H0.8v-6.5l17.8-20.5c2.9-3.4,4.9-6.2,6-8.4c1.1-2.2,1.7-4.3,1.7-6.4c0-2.4-0.7-4.4-2-5.9
			c-1.4-1.5-3.3-2.3-5.8-2.3c-2.9,0-5.2,1-6.8,2.9c-1.6,1.9-2.3,4.3-2.3,7.2H0.2l-0.1-0.2C0,33.1,1.6,29,4.9,25.6
			c3.3-3.4,7.9-5.1,13.5-5.1c5.4,0,9.7,1.5,12.8,4.4c3.1,2.9,4.6,6.7,4.6,11.5c0,3.2-0.9,6.2-2.6,9c-1.7,2.8-4.5,6.6-8.4,11.3
			l-12,13.8l0.1,0.2h24.6V78.2z"/>
		<path class="st0" d="M47.2,53.1l3.3-31.7h30v8.2H58.4L56.7,44c1.1-0.8,2.5-1.5,4-2c1.5-0.5,3.3-0.8,5.1-0.9
			c5.3-0.1,9.4,1.6,12.3,5c2.9,3.4,4.4,8,4.4,13.9c0,5.6-1.5,10.2-4.6,13.7C74.8,77.3,70.2,79,64,79c-5,0-9.2-1.3-12.7-4
			c-3.5-2.7-5.1-6.5-5-11.5l0.1-0.2l8.9-0.3c0,2.7,0.8,4.7,2.4,6.2c1.6,1.5,3.7,2.2,6.3,2.2c3,0,5.2-1,6.8-3c1.5-2,2.3-4.8,2.3-8.3
			c0-3.4-0.8-6.2-2.4-8.2c-1.6-2.1-3.9-3.1-6.8-3.1c-2.6,0-4.5,0.4-5.8,1.3c-1.3,0.8-2.2,2.1-2.8,3.7L47.2,53.1z"/>
		<path class="st0" d="M127.9,57.9c0,6.6-1.7,11.7-5.1,15.5c-3.4,3.8-7.9,5.7-13.5,5.7c-5.7,0-10.2-1.9-13.6-5.7
			c-3.4-3.8-5.1-9-5.1-15.5V41.7c0-6.5,1.7-11.7,5.1-15.5c3.4-3.8,7.9-5.7,13.6-5.7c5.7,0,10.2,1.9,13.6,5.7c3.4,3.8,5.1,9,5.1,15.5
			V57.9z M118.4,40.3c0-3.8-0.8-6.8-2.4-8.9c-1.6-2.1-3.9-3.2-6.8-3.2c-2.9,0-5.2,1.1-6.8,3.2c-1.6,2.1-2.4,5.1-2.4,8.9v18.9
			c0,3.9,0.8,6.9,2.4,9c1.6,2.1,3.9,3.2,6.8,3.2c2.9,0,5.2-1.1,6.7-3.2c1.6-2.1,2.4-5.1,2.4-9V40.3z"/>
		<path class="st0" d="M173.4,57.9c0,6.6-1.7,11.7-5.1,15.5c-3.4,3.8-7.9,5.7-13.5,5.7c-5.7,0-10.2-1.9-13.6-5.7
			c-3.4-3.8-5.1-9-5.1-15.5V41.7c0-6.5,1.7-11.7,5.1-15.5c3.4-3.8,7.9-5.7,13.6-5.7c5.7,0,10.2,1.9,13.6,5.7c3.4,3.8,5.1,9,5.1,15.5
			V57.9z M163.9,40.3c0-3.8-0.8-6.8-2.4-8.9c-1.6-2.1-3.9-3.2-6.8-3.2c-2.9,0-5.2,1.1-6.8,3.2c-1.6,2.1-2.4,5.1-2.4,8.9v18.9
			c0,3.9,0.8,6.9,2.4,9c1.6,2.1,3.9,3.2,6.8,3.2c2.9,0,5.2-1.1,6.7-3.2c1.6-2.1,2.4-5.1,2.4-9V40.3z"/>
	</g>
	<g>
		<path class="st0" d="M129.1,4c1.3,0,2.3,0.5,3,1.4s1.1,2.1,1.1,3.5V9c0,1.4-0.4,2.6-1.2,3.5s-1.8,1.4-3.2,1.4
			c-1.4,0-2.4-0.5-3.2-1.4s-1.2-2.1-1.2-3.5V8.8c0,0,0-0.1,0-0.1s0-0.1,0-0.1v-2c0-1.9,0.4-3.3,1.1-4.1s1.8-1.3,3.3-1.4
			c0.8,0,1.4-0.1,1.8-0.3s0.6-0.4,0.6-0.8h1.6l0,0.1c0,1-0.3,1.8-0.9,2.2s-1.6,0.6-2.9,0.6c-0.9,0-1.6,0.2-2,0.7s-0.7,1-0.7,1.7l0,0
			c0.3-0.4,0.8-0.7,1.2-0.9S128.5,4,129.1,4z M128.8,5.7c-0.8,0-1.3,0.3-1.7,0.9s-0.5,1.3-0.5,2.2V9c0,0.9,0.2,1.7,0.5,2.3
			s0.9,0.9,1.7,0.9c0.7,0,1.3-0.3,1.7-0.9S131,9.9,131,9V8.8c0-0.9-0.2-1.7-0.6-2.2S129.5,5.7,128.8,5.7z"/>
		<path class="st0" d="M134.5,8.8c0-1.4,0.4-2.6,1.2-3.5s1.8-1.4,3.2-1.4c1.4,0,2.4,0.5,3.2,1.4s1.2,2.1,1.2,3.5V9
			c0,1.4-0.4,2.6-1.2,3.5s-1.8,1.3-3.2,1.3c-1.4,0-2.4-0.5-3.2-1.4s-1.2-2.1-1.2-3.5V8.8z M136.6,9c0,0.9,0.2,1.7,0.5,2.3
			s0.9,0.9,1.7,0.9c0.7,0,1.3-0.3,1.7-0.9s0.6-1.3,0.6-2.3V8.8c0-0.9-0.2-1.7-0.6-2.2s-0.9-0.9-1.7-0.9c-0.7,0-1.3,0.3-1.7,0.9
			s-0.5,1.3-0.5,2.2V9z"/>
		<path class="st0" d="M152.9,4.2v9.5h-2.1V5.9H148v2.3c0,1.9-0.3,3.3-0.8,4.1s-1.4,1.3-2.7,1.3H144l0-1.8h0.3c0.6,0,1-0.3,1.2-0.8
			s0.3-1.5,0.3-2.8V4.2H152.9z"/>
		<path class="st0" d="M159,13.9c-1.4,0-2.5-0.4-3.3-1.3s-1.2-2-1.2-3.4V8.8c0-1.4,0.4-2.5,1.2-3.4s1.8-1.4,3-1.3
			c1.3,0,2.2,0.4,2.9,1.2s1,1.8,1,3.2v1.2h-5.9l0,0c0,0.8,0.2,1.4,0.6,1.9s1,0.7,1.7,0.7c0.6,0,1.1-0.1,1.5-0.2s0.8-0.3,1.2-0.6
			l0.7,1.4c-0.4,0.3-0.8,0.6-1.4,0.8S159.8,13.9,159,13.9z M158.8,5.7c-0.6,0-1,0.2-1.3,0.6s-0.5,0.9-0.6,1.6l0,0h3.7V7.7
			c0-0.6-0.1-1.1-0.4-1.5S159.4,5.7,158.8,5.7z"/>
		<path class="st0" d="M168.4,13.9c-1.4,0-2.5-0.4-3.3-1.3s-1.2-2-1.2-3.4V8.8c0-1.4,0.4-2.5,1.2-3.4s1.8-1.4,3-1.3
			c1.3,0,2.2,0.4,2.9,1.2s1,1.8,1,3.2v1.2h-5.9l0,0c0,0.8,0.2,1.4,0.6,1.9s1,0.7,1.7,0.7c0.6,0,1.1-0.1,1.5-0.2s0.8-0.3,1.2-0.6
			l0.7,1.4c-0.4,0.3-0.8,0.6-1.4,0.8S169.2,13.9,168.4,13.9z M168.2,5.7c-0.6,0-1,0.2-1.3,0.6s-0.5,0.9-0.6,1.6l0,0h3.7V7.7
			c0-0.6-0.1-1.1-0.4-1.5S168.8,5.7,168.2,5.7z"/>
	</g>
</g>
</svg>
