<?xml version="1.0" encoding="utf-8"?>
<!-- Generator: Adobe Illustrator 19.0.1, SVG Export Plug-In . SVG Version: 6.00 Build 0)  -->
<svg version="1.1"
	 id="Слой_1" xmlns:dc="http://purl.org/dc/elements/1.1/" xmlns:cc="http://creativecommons.org/ns#" xmlns:rdf="http://www.w3.org/1999/02/22-rdf-syntax-ns#" xmlns:svg="http://www.w3.org/2000/svg" xmlns:sodipodi="http://sodipodi.sourceforge.net/DTD/sodipodi-0.dtd" xmlns:inkscape="http://www.inkscape.org/namespaces/inkscape"
	 xmlns="http://www.w3.org/2000/svg" xmlns:xlink="http://www.w3.org/1999/xlink" x="0px" y="0px" viewBox="-242 229.7 129.5 52.3"
	 style="enable-background:new -242 229.7 129.5 52.3;" xml:space="preserve">
<style type="text/css">
	.st0{fill:#FFFFFF;}
	.st1{fill:#F7921D;}
</style>
<g>
	<g>
		<path class="st0" d="M-239.4,280.3c-0.6,0-1-0.4-1-1v-5.4c0-0.2,0.1-0.5,0.2-0.7l14.7-17c2.3-2.7,3.9-5,4.8-6.8
			c0.8-1.7,1.3-3.3,1.3-4.8c0-1.8-0.5-3.1-1.4-4.2c-0.9-1-2.3-1.5-4.1-1.5c-2.1,0-3.7,0.7-4.8,2c-1.1,1.4-1.7,3.1-1.7,5.3
			c0,0.6-0.4,1-1,1h-7.6c-0.4,0-0.8-0.3-0.9-0.7l-0.1-0.2c0-0.1,0-0.2-0.1-0.3c-0.1-4.3,1.3-8,4.3-10.9c2.9-3,6.9-4.5,11.9-4.5
			c4.7,0,8.5,1.3,11.2,3.9c2.7,2.6,4.1,6,4.1,10.2c0,2.8-0.8,5.5-2.3,8c-1.4,2.4-3.8,5.5-7,9.4l-8.6,9.9h18.3c0.6,0,1,0.4,1,1v6.3
			c0,0.6-0.4,1-1,1H-239.4z"/>
		<path class="st1" d="M-224.8,231.7c4.5,0,8,1.2,10.5,3.6c2.5,2.4,3.8,5.6,3.8,9.5c0,2.6-0.7,5.1-2.1,7.4s-3.7,5.4-6.9,9.3
			l-9.9,11.3l0.1,0.2h20.3v6.3h-30.3v-5.4l14.7-17c2.4-2.8,4-5.1,5-7c0.9-1.8,1.4-3.6,1.4-5.3c0-2-0.6-3.6-1.7-4.9
			c-1.1-1.3-2.7-1.9-4.8-1.9c-2.4,0-4.3,0.8-5.6,2.4c-1.3,1.6-1.9,3.5-1.9,5.9h-7.6l-0.1-0.2c-0.1-4,1.2-7.4,4-10.2
			C-233.3,233.1-229.5,231.7-224.8,231.7 M-224.8,229.7c-5.2,0-9.4,1.6-12.6,4.8c-3.1,3.2-4.7,7.1-4.6,11.7c0,0.2,0,0.4,0.1,0.6
			l0.1,0.2c0.3,0.8,1,1.4,1.9,1.4h7.6c1.1,0,2-0.9,2-2c0-1.9,0.5-3.4,1.5-4.7c0.9-1.1,2.2-1.6,4-1.6c1.5,0,2.6,0.4,3.3,1.2
			c0.8,0.9,1.2,2,1.2,3.6c0,1.4-0.4,2.8-1.2,4.4c-0.8,1.7-2.4,3.9-4.7,6.6l-14.6,16.9c-0.3,0.4-0.5,0.8-0.5,1.3v5.4c0,1.1,0.9,2,2,2
			h30.3c1.1,0,2-0.9,2-2v-6.3c0-1.1-0.9-2-2-2h-16.1l7.1-8.2c0,0,0,0,0,0c3.3-3.9,5.7-7.2,7.1-9.6c1.6-2.6,2.4-5.5,2.4-8.5
			c0-4.5-1.5-8.1-4.4-10.9C-215.8,231.1-219.8,229.7-224.8,229.7L-224.8,229.7z"/>
	</g>
	<g>
		<path class="st0" d="M-186.9,281c-4.3,0-8.1-1.2-11.1-3.5c-3.1-2.4-4.6-5.9-4.5-10.3c0-0.1,0-0.2,0.1-0.3l0.1-0.2
			c0.1-0.4,0.5-0.6,0.9-0.6c0,0,7.4-0.2,7.4-0.2c0.3,0,0.5,0.1,0.7,0.3c0.2,0.2,0.3,0.4,0.3,0.7c0,1.9,0.5,3.4,1.7,4.4
			c1.1,1.1,2.6,1.6,4.5,1.6c2.1,0,3.7-0.7,4.8-2.1c1.1-1.5,1.7-3.6,1.7-6.3c0-2.6-0.6-4.7-1.8-6.2c-1.1-1.5-2.7-2.2-4.8-2.2
			c-1.9,0-3.4,0.3-4.2,0.9c-0.9,0.6-1.5,1.4-1.9,2.5c-0.1,0.4-0.5,0.7-0.9,0.7c0,0-0.1,0-0.1,0l-6.7-0.5c-0.3,0-0.5-0.2-0.7-0.4
			c-0.2-0.2-0.3-0.5-0.2-0.7l2.7-26.2c0.1-0.5,0.5-0.9,1-0.9h24.8c0.6,0,1,0.4,1,1v6.8c0,0.6-0.4,1-1,1h-17.4l-1.1,9.1
			c0.5-0.3,1.1-0.5,1.7-0.7c1.4-0.5,2.9-0.7,4.6-0.8l0.2,0c4.5,0,8.2,1.5,10.7,4.4c2.6,2.9,3.9,7,3.9,12.2c0,4.9-1.4,8.9-4.1,12
			C-177.4,279.4-181.5,281-186.9,281z"/>
		<path class="st1" d="M-173.3,232.4v6.8h-18.2l-1.4,12c0.9-0.7,2-1.2,3.3-1.7c1.3-0.5,2.7-0.7,4.2-0.7c0.1,0,0.1,0,0.2,0
			c4.3,0,7.6,1.4,10,4.1c2.4,2.8,3.6,6.6,3.6,11.5c0,4.6-1.3,8.4-3.8,11.3s-6.4,4.4-11.5,4.4c-4.1,0-7.6-1.1-10.5-3.3
			s-4.2-5.4-4.1-9.5l0.1-0.2l7.3-0.2c0,2.2,0.7,3.9,2,5.1c1.3,1.2,3,1.9,5.2,1.9c2.4,0,4.3-0.8,5.6-2.5c1.3-1.7,1.9-3.9,1.9-6.9
			c0-2.8-0.7-5.1-2-6.8c-1.3-1.7-3.2-2.6-5.6-2.6c-2.1,0-3.7,0.3-4.8,1c-1,0.7-1.8,1.7-2.3,3l-6.7-0.5l2.7-26.2H-173.3
			 M-173.3,230.4h-24.8c-1,0-1.9,0.8-2,1.8l-2.7,26.2c-0.1,0.5,0.1,1.1,0.5,1.5c0.3,0.4,0.8,0.7,1.4,0.7l6.7,0.5c0.1,0,0.1,0,0.2,0
			c0.8,0,1.6-0.5,1.9-1.3c0.3-0.9,0.8-1.6,1.5-2c0.5-0.3,1.5-0.7,3.7-0.7c1.8,0,3.1,0.6,4,1.8c1,1.3,1.6,3.2,1.6,5.6
			c0,2.5-0.5,4.4-1.5,5.6c-0.9,1.2-2.2,1.7-4,1.7c-1.6,0-2.9-0.4-3.8-1.3c-0.9-0.8-1.3-2.1-1.3-3.7c0-0.5-0.2-1.1-0.6-1.4
			c-0.4-0.4-0.9-0.6-1.4-0.6c0,0,0,0-0.1,0l-7.3,0.2c-0.8,0-1.5,0.5-1.8,1.3l-0.1,0.2c-0.1,0.2-0.1,0.5-0.1,0.7
			c-0.1,4.8,1.5,8.5,4.9,11.2c3.2,2.5,7.1,3.8,11.7,3.8c5.7,0,10-1.7,13-5c2.9-3.3,4.3-7.5,4.3-12.6c0-5.4-1.4-9.7-4.1-12.8
			c-2.8-3.2-6.6-4.8-11.5-4.8l-0.2,0c-1.8,0-3.4,0.3-4.9,0.8c-0.1,0-0.1,0-0.2,0.1l0.8-6.5h16.5c1.1,0,2-0.9,2-2v-6.8
			C-171.3,231.3-172.2,230.4-173.3,230.4L-173.3,230.4z"/>
	</g>
</g>
<g>
	<path class="st1" d="M-147.5,263.8v17.4h-3.9V267h-5.1v4.3c0,3.4-0.5,6-1.5,7.6s-2.7,2.4-5,2.4h-0.8l0-3.3h0.6
		c1.1,0,1.9-0.5,2.2-1.5s0.6-2.7,0.6-5.2v-7.4H-147.5z"/>
	<path class="st1" d="M-136.3,281.6c-2.5,0-4.5-0.8-6-2.4c-1.4-1.6-2.2-3.7-2.2-6.2v-0.6c0-2.6,0.7-4.7,2.2-6.3
		c1.4-1.7,3.3-2.5,5.6-2.5c2.3,0,4.1,0.7,5.3,2.2c1.2,1.4,1.8,3.4,1.8,5.8v2.1h-10.8l0,0.1c0,1.4,0.4,2.6,1.1,3.5s1.8,1.3,3.2,1.3
		c1.1,0,2-0.1,2.8-0.4c0.8-0.3,1.5-0.6,2.2-1.1l1.3,2.6c-0.7,0.6-1.5,1.1-2.6,1.5S-134.9,281.6-136.3,281.6z M-136.7,266.6
		c-1,0-1.8,0.4-2.4,1.1c-0.6,0.7-1,1.7-1.1,2.9l0,0.1h6.8v-0.3c0-1.1-0.3-2-0.8-2.7C-134.8,267-135.6,266.6-136.7,266.6z"/>
	<path class="st1" d="M-112.5,266.9h-5.7v14.3h-3.9v-14.3h-5.6v-3.1h15.2V266.9z"/>
</g>
</svg>
