<?xml version="1.0" encoding="utf-8"?>
<!-- Generator: Adobe Illustrator 19.0.1, SVG Export Plug-In . SVG Version: 6.00 Build 0)  -->
<svg version="1.1" id="Слой_1" xmlns="http://www.w3.org/2000/svg" xmlns:xlink="http://www.w3.org/1999/xlink" x="0px" y="0px"
	 viewBox="0 0 173.4 79" style="enable-background:new 0 0 173.4 79;" xml:space="preserve">
<style type="text/css">
	.st0{fill:#F39222;}
</style>
<g>
	<path class="st0" d="M84.2,69.6c4.1,0,7.4-1.4,10-4.3c2.6-2.9,3.8-7,3.8-12.2v-5.1c-1.6,2.2-3.5,3.8-5.7,4.9
		c-2.2,1.1-4.7,1.7-7.3,1.7c-6.7,0-12-2.1-15.8-6.4c-3.8-4.3-5.7-10.1-5.7-17.6c0-7.1,2.1-13,6.4-17.6c4.3-4.6,9.7-6.9,16.1-6.9
		c7.1,0,12.9,2.3,17.3,7c4.4,4.7,6.6,11.2,6.6,19.5v20.2c0,8.2-2.4,14.7-7.2,19.4c-4.8,4.7-11,7.1-18.5,7.1c-2.5,0-5.1-0.3-7.7-0.8
		c-2.6-0.5-5.1-1.3-7.3-2.3l1.9-9c2.1,0.9,4.2,1.6,6.2,2C79.3,69.4,81.6,69.6,84.2,69.6z M86.1,45.3c2.8,0,5.3-0.6,7.3-1.8
		c2-1.2,3.6-2.7,4.6-4.7v-8.4c0-4.8-1-8.5-3.1-11.1s-5-3.9-8.7-3.9c-3.2,0-5.8,1.4-7.8,4.3c-2.1,2.8-3.1,6.4-3.1,10.8
		c0,4.5,0.9,8,2.8,10.7C79.9,43.9,82.6,45.3,86.1,45.3z"/>
</g>
</svg>
