<?xml version="1.0" encoding="utf-8"?>
<!-- Generator: Adobe Illustrator 19.0.1, SVG Export Plug-In . SVG Version: 6.00 Build 0)  -->
<svg version="1.1"
	 id="Слой_1" xmlns:dc="http://purl.org/dc/elements/1.1/" xmlns:cc="http://creativecommons.org/ns#" xmlns:rdf="http://www.w3.org/1999/02/22-rdf-syntax-ns#" xmlns:svg="http://www.w3.org/2000/svg" xmlns:sodipodi="http://sodipodi.sourceforge.net/DTD/sodipodi-0.dtd" xmlns:inkscape="http://www.inkscape.org/namespaces/inkscape"
	 xmlns="http://www.w3.org/2000/svg" xmlns:xlink="http://www.w3.org/1999/xlink" x="0px" y="0px" viewBox="-193 215.8 87.7 66.2"
	 style="enable-background:new -193 215.8 87.7 66.2;" xml:space="preserve">
<style type="text/css">
	.st0{fill:#F7921D;}
</style>
<g>
	<path class="st0" d="M-106.8,219.9c-13.7-5.2-28.7-5.3-42.4-0.3c-13.7-5.1-28.7-5-42.4,0.3c-0.8,0.3-1.3,1.1-1.3,1.8V280
		c0,0.7,0.3,1.3,0.9,1.6c0.3,0.3,0.7,0.4,1.1,0.4c0.2,0,0.5,0,0.7-0.1c13-5,27.4-5,40.4,0c0.5,0.2,1,0.2,1.4,0c13-5,27.4-5,40.4,0
		c0.6,0.2,1.3,0.2,1.8-0.2c0.5-0.4,0.9-1,0.9-1.6v-58.4C-105.5,221-106,220.2-106.8,219.9z M-126.9,219.8c3.3,0.1,6.5,0.5,9.7,1.1
		v26.6l-3.9-2.2c-0.6-0.4-1.4-0.4-1.9,0l-3.9,2.2V219.8z M-189,277.3v-54.2c12.2-4.4,25.6-4.4,37.9,0v54.2c-6.1-2-12.5-3.1-18.9-3.1
		C-176.5,274.2-182.9,275.2-189,277.3z M-109.4,277.3c-12.3-4.1-25.5-4.1-37.9,0v-54.2c5.3-1.9,10.9-3,16.5-3.3v5.8
		c-3.8,0.2-7.5,0.7-11.2,1.5c-1.1,0.2-1.7,1.3-1.5,2.3c0.2,0.9,1,1.5,1.8,1.5c0.1,0,0.3,0,0.5-0.1c3.4-0.8,6.8-1.3,10.2-1.4v5.8
		c-3.8,0.2-7.5,0.7-11.2,1.5c-1.1,0.2-1.7,1.3-1.5,2.3c0.2,0.9,1,1.5,1.8,1.5c0.1,0,0.3,0,0.5-0.1c3.4-0.8,6.8-1.3,10.2-1.4v5.8
		c-3.8,0.2-7.5,0.7-11.2,1.5c-1.1,0.2-1.7,1.3-1.5,2.3c0.2,0.9,1,1.5,1.8,1.5c0.1,0,0.3,0,0.5-0.1c3.4-0.8,6.8-1.3,10.2-1.4v2.2
		c0,0.7,0.4,1.4,1,1.7c0.6,0.4,1.4,0.4,1.9,0l5.8-3.3l5.8,3.3c0.3,0.2,0.6,0.3,1,0.3c0.3,0,0.7-0.1,1-0.3c0.6-0.4,1-1,1-1.7v-29
		c1.3,0.4,2.6,0.8,3.9,1.3v54.2H-109.4z M-185,229.5c-0.2-1.1,0.4-2.1,1.5-2.3c8.8-2,18.3-2,27.1,0c1.1,0.2,1.7,1.3,1.5,2.3
		c-0.2,0.9-1,1.5-1.8,1.5c-0.1,0-0.3,0-0.5-0.1c-8.4-1.9-17.1-1.9-25.3,0C-183.8,231.2-184.8,230.6-185,229.5z M-155,239.2
		c-0.2,0.9-1,1.5-1.8,1.5c-0.1,0-0.3,0-0.5-0.1c-8.4-1.9-17.1-1.9-25.3,0c-1.1,0.2-2.1-0.4-2.3-1.5c-0.2-1.1,0.4-2.1,1.5-2.3
		c8.8-2,18.3-2,27.1,0C-155.5,237.1-154.8,238.2-155,239.2z M-155,248.9c-0.2,0.9-1,1.5-1.8,1.5c-0.1,0-0.3,0-0.5-0.1
		c-8.4-1.9-17.1-1.9-25.3,0c-1.1,0.2-2.1-0.4-2.3-1.5c-0.2-1.1,0.4-2.1,1.5-2.3c8.8-2,18.3-2,27.1,0
		C-155.5,246.8-154.8,247.9-155,248.9z M-113.3,258.6c-0.2,0.9-1,1.5-1.8,1.5c-0.1,0-0.3,0-0.5-0.1c-8.4-1.9-17.1-1.9-25.3,0
		c-1.1,0.2-2.1-0.4-2.3-1.5s0.4-2.1,1.5-2.3c8.8-2,18.3-2,27.1,0C-113.7,256.5-113.1,257.6-113.3,258.6z M-155,258.6
		c-0.2,0.9-1,1.5-1.8,1.5c-0.1,0-0.3,0-0.5-0.1c-8.4-1.9-17.1-1.9-25.3,0c-1.1,0.2-2.1-0.4-2.3-1.5c-0.2-1.1,0.4-2.1,1.5-2.3
		c8.8-2,18.3-2,27.1,0C-155.5,256.5-154.8,257.6-155,258.6z M-155,268.4c-0.2,0.9-1,1.5-1.8,1.5c-0.1,0-0.3,0-0.5-0.1
		c-8.4-1.9-17.1-1.9-25.3,0c-1.1,0.2-2.1-0.4-2.3-1.5c-0.2-1.1,0.4-2.1,1.5-2.3c8.8-2,18.3-2,27.1,0
		C-155.5,266.2-154.8,267.3-155,268.4z M-120.1,267c-0.1,1.1-1.1,1.8-2.1,1.7c-6.3-0.7-12.6-0.3-18.7,1.1c-0.2,0-0.3,0.1-0.5,0.1
		c-0.9,0-1.7-0.6-1.8-1.5c-0.2-1.1,0.4-2.1,1.5-2.3c6.6-1.6,13.3-1.9,20.1-1.2C-120.7,265-120,265.9-120.1,267z"/>
</g>
</svg>
