<?xml version="1.0" encoding="utf-8"?>
<!-- Generator: Adobe Illustrator 19.0.1, SVG Export Plug-In . SVG Version: 6.00 Build 0)  -->
<svg version="1.1"
	 id="Слой_1" xmlns:dc="http://purl.org/dc/elements/1.1/" xmlns:cc="http://creativecommons.org/ns#" xmlns:rdf="http://www.w3.org/1999/02/22-rdf-syntax-ns#" xmlns:svg="http://www.w3.org/2000/svg" xmlns:sodipodi="http://sodipodi.sourceforge.net/DTD/sodipodi-0.dtd" xmlns:inkscape="http://www.inkscape.org/namespaces/inkscape"
	 xmlns="http://www.w3.org/2000/svg" xmlns:xlink="http://www.w3.org/1999/xlink" x="0px" y="0px" viewBox="-193 204.3 87.7 77.7"
	 style="enable-background:new -193 204.3 87.7 77.7;" xml:space="preserve">
<style type="text/css">
	.st0{fill:#F7921D;}
</style>
<path class="st0" d="M-105.9,230.2l-16.4-7.5c0,0,0,0-0.1,0s-0.2-0.1-0.3-0.1c-0.1,0-0.1,0-0.2-0.1c-0.1,0-0.2,0-0.3,0
	c-0.1,0-0.1,0-0.2,0s-0.2,0-0.3,0.1c-0.1,0-0.1,0-0.2,0l0,0l-4.3,1.6v-9.8c0-0.8-0.4-1.6-1.2-1.9l-15.5-7.9c-0.1,0-0.1,0-0.2-0.1
	c-0.1,0-0.2-0.1-0.2-0.1c-0.1,0-0.2,0-0.2,0c-0.1,0-0.2,0-0.2,0c-0.1,0-0.2,0-0.2,0c-0.1,0-0.2,0-0.2,0c-0.1,0-0.2,0.1-0.2,0.1
	c-0.1,0-0.1,0-0.2,0.1l-35.9,18.1c-0.8,0.3-1.2,1.1-1.2,1.9v10l-7.8,3.6c-0.8,0.3-1.2,1.1-1.2,2v39.7c0,1.2,1,2.1,2.1,2.1
	s2.1-1,2.1-2.1v-38.4l18-8.2v46.5c0,1.2,1,2.1,2.1,2.1c1.2,0,2.1-1,2.1-2.1v-47.5l7.3,0.4v47.1c0,1.2,1,2.1,2.1,2.1s2.1-1,2.1-2.1
	v-2.6v-46.5c0-1.1-0.9-2.1-2-2.1l-11.7-0.8c-0.1,0-0.3,0-0.4,0h-0.1c-0.1,0-0.2,0.1-0.3,0.1c0,0,0,0-0.1,0l-10.2,4.6v-6.6l31.4-15.8
	v69.1v0.7c0,1.2,1,2.1,2.1,2.1c1.1,0,2.1-1,2.1-2.1v-69.7l11.1,5.6v64.1c0,1.2,1,2.1,2.1,2.1c1.2,0,2.1-1,2.1-2.1v-36.6v-14.3
	l2.9-1.1v36.2v15.8c0,1.2,1,2.1,2.1,2.1c1.1,0,2.1-1,2.1-2.1v-51.8l12,5.5v46.2c0,1.2,1,2.1,2.1,2.1s2.1-1,2.1-2.1v-47.5
	C-104.6,231.3-105.2,230.5-105.9,230.2z"/>
</svg>
