<?xml version="1.0" encoding="utf-8"?>
<!-- Generator: Adobe Illustrator 19.0.1, SVG Export Plug-In . SVG Version: 6.00 Build 0)  -->
<svg version="1.1"
	 id="Слой_1" xmlns:inkscape="http://www.inkscape.org/namespaces/inkscape" xmlns:cc="http://creativecommons.org/ns#" xmlns:sodipodi="http://sodipodi.sourceforge.net/DTD/sodipodi-0.dtd" xmlns:dc="http://purl.org/dc/elements/1.1/" xmlns:svg="http://www.w3.org/2000/svg" xmlns:rdf="http://www.w3.org/1999/02/22-rdf-syntax-ns#"
	 xmlns="http://www.w3.org/2000/svg" xmlns:xlink="http://www.w3.org/1999/xlink" x="0px" y="0px" viewBox="-227 237 20 20"
	 style="enable-background:new -227 237 20 20;" xml:space="preserve">
<style type="text/css">
	.st0{display:none;}
	.st1{display:inline;fill:#FFFFFF;}
	.st2{fill:#F7921D;}
</style>
<g transform="translate(0,-16)" class="st0">
	<rect x="-233" y="231" class="st1" width="48" height="48"/>
	<rect x="-280" y="231" class="st1" width="48" height="48"/>
	<rect x="-336" y="231" class="st1" width="48" height="48"/>
	<rect x="-233" y="288.6" class="st1" width="48" height="48"/>
	<rect x="-280" y="288.6" class="st1" width="48" height="48"/>
	<rect x="-336" y="288.6" class="st1" width="48" height="48"/>
	<rect x="-233" y="348.6" class="st1" width="48" height="48"/>
	<rect x="-280" y="348.6" class="st1" width="48" height="48"/>
	<rect x="-336" y="348.6" class="st1" width="48" height="48"/>
	<rect x="-233" y="404.6" class="st1" width="48" height="48"/>
	<rect x="-280" y="404.6" class="st1" width="48" height="48"/>
	<rect x="-336" y="404.6" class="st1" width="48" height="48"/>
	<rect x="-233" y="462.6" class="st1" width="48" height="48"/>
	<rect x="-280" y="462.6" class="st1" width="48" height="48"/>
	<rect x="-336" y="462.6" class="st1" width="48" height="48"/>
</g>
<path class="st2" d="M-224,237c-1.7,0-3,1.3-3,3s1.3,3,3,3s3-1.3,3-3S-222.3,237-224,237z M-224,238c1.1,0,2,0.9,2,2s-0.9,2-2,2
	s-2-0.9-2-2S-225.1,238-224,238z M-218.6,238.5c-0.7,0-0.7,1,0,1h11.1c0.7,0,0.7-1,0-1C-207.5,238.5-218.6,238.5-218.6,238.5z
	 M-218.8,240.5c-0.7,0-0.7,1,0,1h6.4c0.7,0,0.7-1,0-1H-218.8z M-224,244c-1.7,0-3,1.3-3,3s1.3,3,3,3s3-1.3,3-3S-222.3,244-224,244z
	 M-224,245c1.1,0,2,0.9,2,2s-0.9,2-2,2s-2-0.9-2-2S-225.1,245-224,245z M-218.6,245.5c-0.7,0-0.7,1,0,1h11.1c0.7,0,0.7-1,0-1
	C-207.5,245.5-218.6,245.5-218.6,245.5z M-218.8,247.5c-0.7,0-0.7,1,0,1h6.4c0.7,0,0.7-1,0-1H-218.8z M-224,251c-1.7,0-3,1.3-3,3
	s1.3,3,3,3s3-1.3,3-3S-222.3,251-224,251z M-224,252c1.1,0,2,0.9,2,2s-0.9,2-2,2s-2-0.9-2-2S-225.1,252-224,252z M-218.6,252.5
	c-0.7,0-0.7,1,0,1h11.1c0.7,0,0.7-1,0-1C-207.5,252.5-218.6,252.5-218.6,252.5z M-218.8,254.5c-0.7,0-0.7,1,0,1h6.4c0.7,0,0.7-1,0-1
	H-218.8z"/>
</svg>
