<?xml version="1.0" encoding="utf-8"?>
<!-- Generator: Adobe Illustrator 19.0.1, SVG Export Plug-In . SVG Version: 6.00 Build 0)  -->
<svg version="1.1"
	 id="Слой_1" xmlns:dc="http://purl.org/dc/elements/1.1/" xmlns:cc="http://creativecommons.org/ns#" xmlns:rdf="http://www.w3.org/1999/02/22-rdf-syntax-ns#" xmlns:svg="http://www.w3.org/2000/svg" xmlns:sodipodi="http://sodipodi.sourceforge.net/DTD/sodipodi-0.dtd" xmlns:inkscape="http://www.inkscape.org/namespaces/inkscape"
	 xmlns="http://www.w3.org/2000/svg" xmlns:xlink="http://www.w3.org/1999/xlink" x="0px" y="0px" viewBox="-193 192.6 87.7 89.4"
	 style="enable-background:new -193 192.6 87.7 89.4;" xml:space="preserve">
<style type="text/css">
	.st0{fill:#F7921D;}
</style>
<path class="st0" d="M-105.9,256.6l-9.3-9.4c-0.3-0.4-0.8-0.6-1.3-0.6h-13c-1,0-1.9,0.8-1.9,1.9v2.1l-1.4-1.4l0-4.6
	c3.9-5.2,6.7-11.7,6.7-18.5c0,0,2.6-11.2-3.7-21.8v0c0,0,0,0,0,0c-1.4-2.3-3.1-4.5-5.5-6.6c-2.4-2.2-8.4-5-15.6-5
	c-4.9,0-10.5,1.3-15.8,5c-10.4,7.1-9.3,25-9.3,25s0.7,0.2,2,0.4c-0.1,1-0.1,2-0.1,3.1c0,6.8,2.8,13.3,6.7,18.5l0,4.9l-5.7,5.7
	c-1.1,0.5-2.4,1.1-4,1.7c-2.1,0.8-3.6,2-8.2,3.2l-0.3,0.1c-4.2,1.4-7,5.3-7,9.7V282h42.7h39l0,0h4c1,0,1.9-0.8,1.9-1.9v-22.3
	C-105.4,257.4-105.6,256.9-105.9,256.6z M-111.7,256h-3v-3l0.9,0.9L-111.7,256z M-165.6,259.7l-4-3.1l3.9-3.9l10,20.2l-10-8.3
	l0.7-3.1C-164.7,260.9-165,260.2-165.6,259.7z M-135.3,261.6l0.7,3.1l-10,8.3l0.6-1.1c0.1-0.1,0.1-0.2,0.2-0.3l9.3-18.7l3,3v1.5
	l-3.1,2.4C-135.2,260.2-135.4,260.9-135.3,261.6z M-157.7,260.4l1.9-1v2.1c0,0.1,0,0.3,0,0.4c0.1,0.7,0.6,1.2,1.3,1.4l-0.6,2.3
	L-157.7,260.4z M-145,265.6l-0.7-2.4c0.5-0.2,0.9-0.7,1-1.3c0-0.1,0-0.2,0-0.4v-2.3l2.2,1.2L-145,265.6z M-150.1,256.3l1.7,0.9v2.4
	h-3.7v-2.3L-150.1,256.3z M-150.7,263.4h1.2l2,7.2l-2.6,5.2l-2.6-5.2L-150.7,263.4z M-140.8,257.1l-4.2-2.3c2.7-1.2,5.6-3.2,8.3-5.8
	L-140.8,257.1z M-159.4,257.1l-3.8-7.7c2.6,2.4,5.3,4.3,8,5.4L-159.4,257.1z M-131.5,267v11.3h-13.6L-131.5,267z M-131.5,214.7
	c-0.8-0.9-1.7-1.7-2.7-2.3c0.8-1.8,1.7-2.9,2.5-3.6c1,2.3,1.7,4.9,2,7.5c0.1,0.4,0.1,0.8,0.1,1.2
	C-130.1,216.5-130.7,215.6-131.5,214.7z M-171.7,213.3c0.5-2.7,1.3-5.2,2.4-7.2c1.2-2.4,2.8-4.2,4.6-5.4c4.2-2.9,8.8-4.3,13.7-4.3
	c6.3,0,11.4,2.5,13.1,4c1.7,1.6,3.2,3.3,4.4,5.2c-1.5,1-3.1,2.7-4.3,5.6c-0.6-0.1-1.2-0.2-1.9-0.2c-2.8,0-5.8,0.9-9.2,2.9
	c-8.1,4.7-15.7,5.6-20.6,5.6c-1.2,0-2.2-0.1-3.1-0.1C-172.3,217.8-172.1,215.6-171.7,213.3z M-170.4,223.3c0.3,0,0.7,0,1,0
	c5.4,0,13.6-1.1,22.4-6.1c3-1.7,5.4-2.4,7.3-2.4c4.7,0,6.8,4,8.1,7.6c0.4,1.2,1,2.1,1.6,2.7c0,0.3,0,0.7,0,1
	c0,6.1-2.8,12.8-7.7,18.4c-2.1,2.4-4.5,4.5-6.9,5.9c-2.1,1.3-4.2,2-5.7,2c-1.5,0-3.6-0.7-5.7-2c-2.4-1.4-4.8-3.5-6.9-5.9
	c-4.9-5.5-7.7-12.2-7.7-18.4C-170.5,225.1-170.5,224.2-170.4,223.3z M-189.2,269.8c0-2.8,1.8-5.2,4.4-6.1l0.2-0.1
	c3.5-0.9,5.4-1.9,6.9-2.6c0.6-0.3,1.1-0.5,1.6-0.7c1-0.4,2.1-0.8,3.2-1.3l3.9,3l-0.7,3c-0.2,0.7,0.1,1.4,0.6,1.9l13.9,11.5h-34.1
	V269.8z M-127.7,278.3v-27.9h9.3v7.5c0,1,0.8,1.9,1.9,1.9h7.5v18.5H-127.7z"/>
</svg>
