<?xml version="1.0" encoding="utf-8"?>
<!-- Generator: Adobe Illustrator 19.0.1, SVG Export Plug-In . SVG Version: 6.00 Build 0)  -->
<svg version="1.1" id="Слой_1" xmlns="http://www.w3.org/2000/svg" xmlns:xlink="http://www.w3.org/1999/xlink" x="0px" y="0px"
	 viewBox="-197.5 193 97 90" style="enable-background:new -197.5 193 97 90;" xml:space="preserve">
<style type="text/css">
	.st0{fill:#F7921D;}
</style>
<title>Artboard 18</title>
<path class="st0" d="M-152.9,272.8c1.4,0,2.5-1.1,2.5-2.5c0-1.4-1.1-2.5-2.5-2.5h-38.2c-0.8,0-1.4-0.6-1.4-1.4l0,0v-49.5h76.9v13.6
	c0,1.4,1.1,2.5,2.5,2.5s2.5-1.1,2.5-2.5v-31.1c0-3.5-2.9-6.4-6.4-6.4h-74.2c-3.5,0-6.4,2.8-6.4,6.4v67.1c0,3.5,2.8,6.4,6.4,6.4l0,0
	H-152.9z M-191.1,198h74.2c0.8,0,1.4,0.6,1.4,1.4l0,0v12.6h-76.9v-12.6C-192.5,198.6-191.9,198-191.1,198z"/>
<path class="st0" d="M-102.1,263.7l-22.8-8.4c-1.3-0.5-2.7,0.2-3.2,1.5c-0.2,0.6-0.2,1.2,0,1.7l8.4,22.8c0.3,0.9,1.2,1.6,2.2,1.6
	h0.2c0.9,0,1.8-0.5,2.2-1.3l3.4-6.4l6.2,6.2c1,1,2.6,1,3.5,0s1-2.6,0-3.5l-6.2-6.2l6.4-3.4c1.2-0.7,1.7-2.2,1-3.4
	C-101.1,264.3-101.6,263.9-102.1,263.7L-102.1,263.7z M-117,274.4l-4.6-12.5l12.5,4.6l-4.5,2.4c-0.4,0.2-0.8,0.6-1,1L-117,274.4z"/>
<path class="st0" d="M-107.5,243.2l-4.2,4.2c-1,1-1,2.6,0,3.5s2.6,1,3.5,0l4.2-4.2c1-1,1-2.6,0-3.5S-106.6,242.2-107.5,243.2
	L-107.5,243.2L-107.5,243.2z"/>
<path class="st0" d="M-138.5,280.3c0.7,0,1.3-0.3,1.8-0.7l4.2-4.2c1-1,1-2.6,0-3.5c-1-1-2.6-1-3.5,0l-4.2,4.2c-1,1-1,2.6,0,3.5
	C-139.8,280-139.2,280.3-138.5,280.3L-138.5,280.3z"/>
<path class="st0" d="M-132.6,247.4l-4.2-4.2c-1-1-2.6-1-3.5,0c-1,1-1,2.6,0,3.5l4.2,4.2c1,1,2.6,1,3.5,0
	C-131.6,250-131.6,248.4-132.6,247.4z"/>
<path class="st0" d="M-124.6,238.2v5.9c0,1.4,1.1,2.5,2.5,2.5s2.5-1.1,2.5-2.5v-5.9c0-1.4-1.1-2.5-2.5-2.5S-124.6,236.8-124.6,238.2
	z"/>
<path class="st0" d="M-136.9,261.4c0-1.4-1.1-2.5-2.5-2.5h-5.9c-1.4,0-2.5,1.1-2.5,2.5c0,1.4,1.1,2.5,2.5,2.5h5.9
	C-138,263.9-136.9,262.8-136.9,261.4z"/>
<path class="st0" d="M-124.7,227.1c0-1.4-1.1-2.5-2.5-2.5h-54.8c-1.4,0-2.5,1.1-2.5,2.5v30.6c0,1.4,1.1,2.5,2.5,2.5h25.8
	c1.4,0,2.5-1.1,2.5-2.5s-1.1-2.5-2.5-2.5h-23.3v-25.6h52.3C-125.8,229.6-124.7,228.5-124.7,227.1z"/>
<circle class="st0" cx="-185" cy="205.3" r="2.8"/>
<circle class="st0" cx="-175.4" cy="205.3" r="2.8"/>
<circle class="st0" cx="-165.9" cy="205.3" r="2.8"/>
</svg>
