<?xml version="1.0" encoding="utf-8"?>
<!-- Generator: Adobe Illustrator 19.0.1, SVG Export Plug-In . SVG Version: 6.00 Build 0)  -->
<svg version="1.1" id="Слой_1" xmlns="http://www.w3.org/2000/svg" xmlns:xlink="http://www.w3.org/1999/xlink" x="0px" y="0px"
	 viewBox="-155.7 183.2 113.5 98.5" style="enable-background:new -155.7 183.2 113.5 98.5;" xml:space="preserve">
<style type="text/css">
	.st0{fill:#F7921D;}
</style>
<g>
	<path class="st0" d="M-61.7,229.1v-13c0-2.2-1.8-4-4-4h-5.1v-16.9c0-6.6-5.4-12-12-12h-51.8c-6.6,0-12,5.4-12,12V212h-5.1
		c-2.2,0-4,1.8-4,4v13c0,2.2,1.8,4,4,4h5.1v31.6c0,4.2,3.1,7.8,7.1,8.5v2.6c0,3.3,2.7,6,6,6h8.2c3.3,0,6-2.7,6-6v-2.5h20.9v2.5
		c0,3.3,2.7,6,6,6h8.4c3.3,0,6-2.7,6-6v-2.6c4-0.7,7.1-4.2,7.1-8.5v-31.5h5.1C-63.5,233.1-61.7,231.3-61.7,229.1z M-151.7,229.1v-13
		h5.1v13H-151.7z M-123.2,275.7c0,1.1-0.9,2-2,2h-8.2c-1.1,0-2-0.9-2-2v-2.5h12.3L-123.2,275.7L-123.2,275.7z M-82,275.7
		c0,1.1-0.9,2-2,2h-8.2c-1.1,0-2-0.9-2-2v-2.5H-82V275.7z M-74.9,264.7c0,2.6-2.1,4.6-4.6,4.6H-80h-16.3h-24.9h-16.3h-0.5
		c-2.6,0-4.6-2.1-4.6-4.6v-35.6v-13v-20.9c0-4.4,3.6-8,8-8h51.7c4.4,0,8,3.6,8,8V216v13C-74.9,229-74.9,264.7-74.9,264.7z
		 M-70.9,216h5.1v13h-5.1V216z"/>
	<path class="st0" d="M-122.1,253.3h-10.5c-2.7,0-4.9,2.2-4.9,4.9c0,2.7,2.2,4.9,4.9,4.9h10.5c2.7,0,4.9-2.2,4.9-4.9
		C-117.2,255.5-119.4,253.3-122.1,253.3z M-122.1,259h-10.5c-0.5,0-0.9-0.4-0.9-0.9s0.4-0.9,0.9-0.9h10.5c0.5,0,0.9,0.4,0.9,0.9
		S-121.6,259-122.1,259z"/>
	<path class="st0" d="M-84.9,253.3h-10.5c-2.7,0-4.9,2.2-4.9,4.9c0,2.7,2.2,4.9,4.9,4.9h10.5c2.7,0,4.9-2.2,4.9-4.9
		C-80,255.5-82.2,253.3-84.9,253.3z M-84.9,259h-10.5c-0.5,0-0.9-0.4-0.9-0.9s0.4-0.9,0.9-0.9h10.5c0.5,0,0.9,0.4,0.9,0.9
		S-84.4,259-84.9,259z"/>
	<path class="st0" d="M-44.2,183.2h-19.5c-1.1,0-2,0.9-2,2v14.3c0,1.1,0.9,2,2,2h17.5V271h-17.5c-1.1,0-2,0.9-2,2v6.8
		c0,1.1,0.9,2,2,2s2-0.9,2-2V275h17.5c1.1,0,2-0.9,2-2v-87.8C-42.2,184.1-43.1,183.2-44.2,183.2z M-46.2,197.5h-15.5v-10.3h15.5
		V197.5z"/>
	<path class="st0" d="M-134.6,242.9h51.7c1.1,0,2-0.9,2-2v-45.7c0-1.1-0.9-2-2-2h-51.7c-1.1,0-2,0.9-2,2v45.7
		C-136.6,242-135.7,242.9-134.6,242.9z M-132.6,197.2h47.7v41.7h-47.7V197.2z"/>
</g>
</svg>
