<?xml version="1.0" encoding="utf-8"?>
<!-- Generator: Adobe Illustrator 19.0.1, SVG Export Plug-In . SVG Version: 6.00 Build 0)  -->
<svg version="1.1" id="Слой_1" xmlns="http://www.w3.org/2000/svg" xmlns:xlink="http://www.w3.org/1999/xlink" x="0px" y="0px"
	 viewBox="-199 196 100 86" style="enable-background:new -199 196 100 86;" xml:space="preserve">
<style type="text/css">
	.st0{fill:#F7921D;}
</style>
<title>City Copy 9</title>
<desc>Created with Sketch.</desc>
<path class="st0" d="M-101,278h-27v-29.2l5.2-5.2c0.8-0.8,0.8-2,0-2.8c-0.8-0.8-2-0.8-2.8,0l-2.4,2.4V230c0-1.1-0.9-2-2-2
	c-1.1,0-2,0.9-2,2v6.2l-3.4-3.4c-0.8-0.8-2-0.8-2.8,0c-0.8,0.8-0.8,2,0,2.8l6.2,6.2V278h-19v-8h2c1.1,0,2-0.9,2-2c0-1.1-0.9-2-2-2
	h-36c-1.1,0-2,0.9-2,2c0,1.1,0.9,2,2,2h2v8h-14c-1.1,0-2,0.9-2,2c0,1.1,0.9,2,2,2h96c1.1,0,2-0.9,2-2C-99,278.9-99.9,278-101,278z
	 M-155,278h-24v-8h24V278z"/>
<path class="st0" d="M-146.8,250.8c2.9,1.9,6,3.4,9.4,4.2c1.1,0.3,2.2-0.4,2.4-1.4c0.3-1.1-0.4-2.2-1.4-2.4c-2.9-0.7-5.6-2-8.1-3.7
	c-5.4-3.7-9.2-9.2-10.7-15.7c-3.2-14,5.5-28,19.5-31.2c14-3.2,28,5.5,31.2,19.5c3.2,14-5.5,28-19.5,31.2c-1.1,0.2-1.7,1.3-1.5,2.4
	c0.2,1.1,1.3,1.7,2.4,1.5c16.1-3.7,26.2-19.8,22.5-36s-19.8-26.2-36-22.5c-16.1,3.7-26.2,19.8-22.5,36
	C-157.5,240.2-153.1,246.6-146.8,250.8"/>
</svg>
