<svg xmlns="http://www.w3.org/2000/svg" width="31.1" height="16.5"><path d="M3.9 4.6v-2c.1-1 .1-1 1.1-1 1.5 0 3.1.1 4.6.1a1.1 1.1 0 0 0 1.1-1c0-.6-.5-.7-1-.7H1C.4 0 0 .3 0 .9s.4.8.9.7.6.3.6.7c0 1.8 0 3.5.1 5.3 0 1 .6 1.4 1.6 1.2a1.17 1.17 0 0 0 .9-1.1A2 2 0 0 1 5.9 6a1.55 1.55 0 0 1 1.7.9 2.26 2.26 0 0 1-.1 2.5c-.5.6-1.3.6-1.6-.1a.85.85 0 0 0-1-.6 2.55 2.55 0 0 0-1 .7.88.88 0 0 0 .5 1.2 5.09 5.09 0 0 0 2.1.6A3.42 3.42 0 0 0 10.1 9a3.37 3.37 0 0 0-2.6-4.5c-1.2-.1-2.3.1-3.6.1zm16 2.9c0-.4-.1-.6-.1-.9 0-1.3.1-2.6.1-3.9a1 1 0 0 0-.9-1.2 1.16 1.16 0 0 0-1.3 1.1v7.8a.8.8 0 0 0 .7.9.83.83 0 0 0 1-.5c.1-.2.2-.3.2-.5.1.1.2.1.2.2a3.45 3.45 0 0 0 4.2.3c.2-.1.5-.1.6.1a4.15 4.15 0 0 0 3.6.2c.2-.1.5-.1.6.1a2.54 2.54 0 0 0 1.9.2.82.82 0 0 0 .4-.6c0-.2-.2-.6-.4-.6-1-.1-1.1-.7-1.2-1.5 0-.5-.2-.8-.8-.8a.9.9 0 0 0-1 .7c-.1.3-.1.7-.2.9a1.79 1.79 0 0 1-1 .6 1.24 1.24 0 0 1-.8-.6c-.3-.7.2-1.3 1.1-1.4.5-.1.9-.2.9-.7s-.4-.6-.9-.6a2.86 2.86 0 0 0-3.4 2.6 1 1 0 0 1-1 .9 1.42 1.42 0 0 1-1.5-1c-.2-.6.3-.7.6-1 .1-.1.2-.1.2-.2.5-.3.8-.7.5-1.2s-.8-.3-1.2-.1a7.13 7.13 0 0 0-1.1.7zM15 11.4v3.9q0 1.2.9 1.2a1.1 1.1 0 0 0 1.2-1.2V7.5c0-.7-.3-1-1-1A1 1 0 0 0 15 7.6V9c-.1.6-.4 1-1 1a1 1 0 0 1-1-1.1V7.5a.9.9 0 0 0-.7-1 1.27 1.27 0 0 0-1.4.7c-.3 1.4-.2 3.1 1.6 3.8.8.2 1.6.2 2.5.4z" fill="#b5b5b5"/></svg>