<svg xmlns="http://www.w3.org/2000/svg" width="60" height="7"><path d="M30.3 2l1.9.1c0-.9.1-2-2-2H24v2.4a1.73 1.73 0 0 0 1.9 1.8h4.5v.4c0 .4-.1.6-.9.6h-3.3c-.4 0-.3-.3-.3-.3v-.1H24v.6c0 .6.2 1.5 1.7 1.5h4.9c1 0 1.9-.3 1.9-1.5V4.4c0-.7-.2-1.5-1.7-1.5h-3.5c-1 0-1.2-.2-1.2-.7v-.3H30c0-.2.3-.1.3.1M6.4 4a3 3 0 0 1-.2 1c-.2.2-.5.2-.9.2H3.2a2 2 0 0 1-.9-.2c-.2-.1-.2-.5-.2-1V.1H0v4.4a2.71 2.71 0 0 0 .6 1.9c.4.5 1.1.6 2.1.6h5.8V.1H6.4V4zm11.2-.6a1.37 1.37 0 0 0 .8-.5 1.82 1.82 0 0 0 .2-1.1A1.68 1.68 0 0 0 18 .4a4.14 4.14 0 0 0-1.9-.4h-6v6.9h6.6a3 3 0 0 0 1.5-.4 1.64 1.64 0 0 0 .6-1.5 3.26 3.26 0 0 0-.2-1.2 5.13 5.13 0 0 0-1-.4zm-5.4-1.7h3.7a.53.53 0 0 1 .6.6.76.76 0 0 1-.2.5c-.1.1-.2.1-.5.1h-3.7m4.4 2.4a1.08 1.08 0 0 1-.6.1h-3.8V4.2h3.8a1.42 1.42 0 0 1 .6.2c.2.1.2.2.2.5.1.1 0 .3-.2.4M20.2.1h2.1V7h-2.1zM44.1 7h2.1V4.7H51V3h-4.8V1.8h5V.1h-7.1V7zM60 .1v1.7h-3V7h-2.1V1.8H52V.1h8zM36.4.1c-1.3 0-1.8.2-2.2.6s-.7.9-.7 1.8v2c0 1 .2 1.6.7 1.9a4 4 0 0 0 2.2.5h3.1a4 4 0 0 0 2.2-.5c.5-.3.7-.9.7-1.9V.1h-6zm4 3.8a1.86 1.86 0 0 1-.2 1 1.33 1.33 0 0 1-1 .3h-2.5a1.66 1.66 0 0 1-1-.3c-.2-.1-.2-.5-.2-1v-.7a2.51 2.51 0 0 1 .2-1c.1-.3.6-.3 1-.3h3.6v2z" fill="#b5b5b5"/></svg>