<svg xmlns="http://www.w3.org/2000/svg" width="18.5" height="17.4"><g fill="#b5b5b5"><path d="M9.5 4.5H8.1l-.3 1.8h1.5c.8 0 1.3-.3 1.3-1s-.4-.8-1.1-.8z"/><path d="M15.1 0H3.4A3.27 3.27 0 0 0 0 3.2v11a3.27 3.27 0 0 0 3.4 3.2h11.7a3.27 3.27 0 0 0 3.4-3.2v-11c.1-2-1.4-3.2-3.4-3.2zm-1.2 11.9l.3 2.4-1.8-1.4-2.5 1.5 1.2-2.6-1.4-1.4a.85.85 0 0 1-.2-.6c0-.5.1-.9.1-1.3a.9.9 0 0 0-1-1H7.3l-.6 2.6H4.9l1.5-7.3h3.5a4 4 0 0 1 1.7.3c.5.3.6.8.6 1.5a1.82 1.82 0 0 1-1.7 2 1.13 1.13 0 0 1 .7 1.2v1.4a3.55 3.55 0 0 0 .2 1h.2L13 7.8l.4 2.5h2.4z"/></g></svg>