<svg xmlns="http://www.w3.org/2000/svg" width="22.41" height="26.5"><path d="M6.42 25.5l.5-2.9H1L4.42 1c0-.1 0-.1.1-.2s.1-.1.2-.1h8.2c2.7 0 4.6.6 5.6 1.7a3.15 3.15 0 0 1 .9 1.7 5.88 5.88 0 0 1 0 2.3v.7l.5.3a2.18 2.18 0 0 1 .9.7 3.37 3.37 0 0 1 .8 1.7 7.24 7.24 0 0 1-.1 2.5 10.21 10.21 0 0 1-1 2.8 6.9 6.9 0 0 1-1.6 1.8 6.39 6.39 0 0 1-2.2 1 11.15 11.15 0 0 1-2.7.3h-.6a2.11 2.11 0 0 0-1.3.5 1.85 1.85 0 0 0-.7 1.2v.3l-.8 5.1v.2c0 .1 0 .1-.1.1h-.1c0-.1-4-.1-4-.1z" fill="#253b80"/><path d="M20.32 6.7c0 .2-.1.3-.1.5-1.1 5.6-4.8 7.5-9.6 7.5h-2.4a1.19 1.19 0 0 0-1.2 1H7l-1.2 7.9-.4 2.2a.56.56 0 0 0 .6.7h4.3a1.06 1.06 0 0 0 1-.9v-.2l.8-5.1.1-.3a1.06 1.06 0 0 1 1-.9h.6c4.2 0 7.4-1.7 8.4-6.6.4-2 .2-3.7-.9-4.9a1.52 1.52 0 0 0-.98-.9z" fill="#179bd7"/><path d="M19.22 6.2c-.2 0-.3-.1-.5-.1a4.33 4.33 0 0 1-.5-.1 14.92 14.92 0 0 0-2.1-.2h-6.5c-.2 0-.3 0-.4.1a1 1 0 0 0-.6.8l-1.4 8.7v.3a1.19 1.19 0 0 1 1.2-1h2.4c4.8 0 8.5-1.9 9.6-7.5 0-.2.1-.3.1-.5-.3-.1-.6-.3-.9-.4a1.58 1.58 0 0 0-.4-.1z" fill="#222d65"/><path d="M8.52 6.7a1.56 1.56 0 0 1 .6-.8.6.6 0 0 1 .4-.1H16a12.48 12.48 0 0 1 2.1.2 4.33 4.33 0 0 1 .5.1c.2 0 .3.1.5.1a.35.35 0 0 1 .2.1 3.55 3.55 0 0 1 .9.4c.3-2.1 0-3.5-1.1-4.7-1.2-1.4-3.5-2-6.3-2H4.62a1.19 1.19 0 0 0-1.2 1L0 22.8a.71.71 0 0 0 .7.8h5.1l1.3-8.1z" fill="#253b80"/></svg>