<svg xmlns="http://www.w3.org/2000/svg" width="53" height="20.01"><path d="M0 7l7.78-1.1v3.17L0 9.93zm2.48 3.07l2.85-.3V20H2.48zm6.35-4.3l3-.43V20h-3zm3.56-.51l4.34-.61v3.4l-4.34.48zm0 5.7l2.85-.25v3.42l-2.85.15zm0 5.72l4.34-.13V20h-4.34zM27.93 3.11l3.94-.56V20h-3.94zm4.67-.66l5.74-.8v4.06l-5.74.63zm0 6.8l3.76-.31V13l-3.76.2zm0 6.86l5.74-.17V20H32.6zM17.87 4.53l3.42-.48V20h-3.42zm4.06 11.9l5-.15V20h-5zm29.26-15a5.11 5.11 0 0 1 1.58 4.18C52.51 8.63 51.06 11 47 15l-6.6.22S45 11 46.75 9c1.12-1.33 1.6-2.76 1.14-3.71a1.74 1.74 0 0 0-1.76-.86V.08a6 6 0 0 1 5.06 1.37zm1.81 14V20l-13.39-4.1zm-13.39.4L53 20H39.61zM45.36.18v4.39c-.81.34-1.62 1-1.43 3.6l-4.15.38C39.56 3.87 41.48 1 45.36.18z"/></svg>