<svg xmlns="http://www.w3.org/2000/svg" width="28.4" height="27.6"><path d="M11.5 11.9a1.6 1.6 0 1 0-1.6-1.6 1.58 1.58 0 0 0 1.6 1.6zm0-11.7a16.41 16.41 0 0 1 2.3-.2h1v14c0 .1 0 .2-.1.2h-1.9a1.13 1.13 0 0 0-1.1 1.2v12h-.2a13.79 13.79 0 0 1 0-27.2" fill="#33b540"/><path d="M24.3 18a1.5 1.5 0 0 0 0 3 1.47 1.47 0 0 0 1.5-1.5 1.54 1.54 0 0 0-1.5-1.5zm-7.9 2.9a1.47 1.47 0 0 0 1.5-1.5 1.5 1.5 0 1 0-3 0 1.47 1.47 0 0 0 1.5 1.5zm3.9 5.5a13.16 13.16 0 0 1-4 1.1 9.15 9.15 0 0 1-1.7.1 5.7 5.7 0 0 1-1.3-.1V15.9c0-.1 0-.2.1-.2h1.9a.87.87 0 0 0 .9-.6 1.27 1.27 0 0 0 .1-.6V0a16 16 0 0 1 3.9 1.1 15.64 15.64 0 0 1 4 2.7 13.77 13.77 0 0 1 0 19.8 9.09 9.09 0 0 1-3.9 2.8zm-1.4-6.9a1.5 1.5 0 0 0 3 0 1.54 1.54 0 0 0-1.5-1.5 1.47 1.47 0 0 0-1.5 1.5" fill="#252775"/></svg>