<svg xmlns="http://www.w3.org/2000/svg" width="28.35" height="29.46"><path d="M23.3 19.9c.1.6-.1.8-.2.8s-.5-.2-.7-.7-.4-1-.2-1.2.3-.2.6-.2c.3.2.4.9.5 1.3zm-2.7 1.2a1.23 1.23 0 0 1 .5 1.5 1.14 1.14 0 0 1-.8.3 3.18 3.18 0 0 1-.9-.3c-.6-.5-.7-1.2-.3-1.6.2-.2.3-.2.6-.2s.6.1.9.3z" fill="#f18b24"/><path d="M19.6 25.9c2.5 0 5.2.9 8.2 3.5.3.2.7-.1.5-.4a12.14 12.14 0 0 0-8.4-5 8.66 8.66 0 0 1-6.2-4.7c-.2-.4-.3-.3-.4.2a9.75 9.75 0 0 0 .2 2.3h-.4a8.6 8.6 0 1 1 8.6-8.6 3.75 3.75 0 0 1-.1 1 11.5 11.5 0 0 0-2.7-.1c-.3 0-.3.2 0 .2a6.07 6.07 0 0 1 5.3 5.5c0 .1.1.1.2 0a12.69 12.69 0 0 0 1.8-6.7 13.1 13.1 0 1 0-13.1 13.1c1.8 0 3.7-.3 6.5-.3z" fill="#ff8c00"/></svg>