<svg xmlns="http://www.w3.org/2000/svg" width="28" height="27.2"><path d="M19.8 21.1l2.8 3.1-1.8 1.2a14.45 14.45 0 0 1-6.9 1.8A13.74 13.74 0 0 1 0 13.6 13.74 13.74 0 0 1 13.9 0 14 14 0 0 1 20 1.4c.3.2.6.3.9.5L19.6 3l-1.9-1.9-3.3 2.8-1.9-2.1-6.1 5.4 3.9 4.2-1.5 1.3 3.8 4.2-1.5 1.3 5.4 5.9zm6.7-8.5l1.5 1.6-1.7 1.4-1.5-1.6zm-2.4 5.7l2.2 2.4-2.5 2.2-2.2-2.4zM17.6 3.4l2.2 2.4L17.3 8l-2.2-2.4zm-5.3.8l3 3.2-3.3 2.9-3-3.2zm7.3 8.7l-2.2-2.4 2.5-2.2 2.2 2.4zm3.1-3.7l1.7-1.4 1.5 1.6-1.7 1.4zm-1 8.8l-2.2-2.4 2.5-2.2 2.2 2.4zM20.5 4.4L22.2 3l1.5 1.6L22 6zm-6.1 11.5l-3-3.3 3.3-2.9 3 3.2zm2.3 5.6l-3-3.2 3.3-2.9 3 3.2z" fill="#006ab4"/></svg>