<svg xmlns="http://www.w3.org/2000/svg" xmlns:xlink="http://www.w3.org/1999/xlink" width="28" height="34" viewBox="0 0 28 34"><defs><path id="wxo8a" d="M675.59 322.7l-.89.28a2.03 2.03 0 0 1-2.52-1.47l-3.16-11.74a2.15 2.15 0 0 1 1.4-2.66l3.68-1.12c-.03.06-.03.13-.03.2l-.92 12.18c-.15 1.9.88 3.6 2.44 4.34zm1.8-1.83l-.8-.06c-1.12-.08-1.95-1.12-1.87-2.31l.9-12.19c.04-.42.19-.81.42-1.13.42-.55 1.07-.9 1.79-.85l3.3.28c-.1.17-.2.34-.25.53l-4.16 11.43a4.5 4.5 0 0 0 .67 4.3zm16.49-10.26l-4.18 11.42a2 2 0 0 1-2.64 1.24l-4.23-1.7-.39-.16-2.98-1.2c-1.05-.4-1.56-1.64-1.17-2.77l4.16-11.42c.13-.41.38-.73.7-.97l.22-.14c.5-.28 1.12-.37 1.72-.15l7.62 3.07a2.22 2.22 0 0 1 1.17 2.78zM679 300.21l1.35-2.39-1.77-1.94 2.56.53 1.42-2.42.28 2.78 2.55.54-2.43 1.06.23 2.72-1.75-2zm2.33 22.31l-.83 2.09 1.67 1.39-2.14-.15-.88 2.13-.55-2.24-2.14-.15 1.85-1.14-.5-2.18 1.66 1.44zm-12.13-17.2l-.57-2.66-2.64-.34 2.29-1.23-.55-2.74 2.07 1.92 2.3-1.23-1.13 2.36 2 1.9-2.67-.39z"/><linearGradient id="wxo8b" x1="694" x2="666" y1="324.99" y2="296.98" gradientUnits="userSpaceOnUse"><stop offset="0" stop-color="#339dff"/><stop offset="1" stop-color="#2bb2f8"/></linearGradient></defs><g><g transform="translate(-666 -294)"><use fill="url(#wxo8b)" xlink:href="#wxo8a"/></g></g></svg>