<svg xmlns="http://www.w3.org/2000/svg" xmlns:xlink="http://www.w3.org/1999/xlink" width="19" height="18" viewBox="0 0 19 18"><defs><path id="xgkza" d="M702 439v2h-3v3h-2v-3h-3v-2h3v-3h2v3z"/><path id="xgkzb" d="M693 438.87a6.13 6.13 0 1 1 0 12.25 6.13 6.13 0 0 1 0-12.25z"/><path id="xgkzc" d="M691.23 448.24a3.57 3.57 0 0 1-1.93-3.26 3.57 3.57 0 0 1 1.93-3.26 4 4 0 0 1 1.14-.4v-.69h1.95v.72c.25.06.49.14.71.24.53.23.97.57 1.32 1l-1.3 1.18a2.42 2.42 0 0 0-.73-.62v3.65c.27-.14.51-.34.73-.6l1.3 1.16a3.42 3.42 0 0 1-2.03 1.24v.82h-1.95v-.78a4 4 0 0 1-1.14-.4zm1.09-5.06c-.3.17-.54.41-.71.73-.17.3-.25.67-.25 1.07s.08.76.25 1.07a1.78 1.78 0 0 0 .76.75v-3.65l-.05.03z"/><mask id="xgkze" width="2" height="2" x="-1" y="-1"><path fill="#fff" d="M694 436h8v8h-8z"/><use xlink:href="#xgkza"/></mask><filter id="xgkzd" width="38" height="39" x="679" y="421" filterUnits="userSpaceOnUse"><feOffset dy="1" in="SourceGraphic" result="FeOffset1033Out"/><feGaussianBlur in="FeOffset1033Out" result="FeGaussianBlur1034Out" stdDeviation="2 2"/></filter></defs><g><g transform="translate(-687 -433)"><use fill="#ffad00" xlink:href="#xgkzb"/></g><g transform="translate(-687 -433)"><use fill="#ffd451" xlink:href="#xgkzc"/></g><g transform="translate(-687 -433)"><g filter="url(#xgkzd)"><use fill="none" stroke-opacity=".74" stroke-width="0" mask="url(&quot;#xgkze&quot;)" xlink:href="#xgkza"/><use fill="#25aa56" fill-opacity=".74" xlink:href="#xgkza"/></g><use fill="#fff" xlink:href="#xgkza"/></g></g></svg>