<svg xmlns="http://www.w3.org/2000/svg" xmlns:xlink="http://www.w3.org/1999/xlink" width="76" height="41" viewBox="0 0 76 41"><defs><path id="wdxba" d="M325.72 14.38h5.75v12.35h8.1v4.94h-13.85zm64.08 4.89h-5.06v-4.9h15.88v4.9h-5.06v12.4h-5.76zm-38.47 12.77a9.77 9.77 0 0 1-3.7-.69 9.31 9.31 0 0 1-2.97-1.9 8.68 8.68 0 0 1-2.7-6.38v-.05a8.98 8.98 0 0 1 5.7-8.31 9.71 9.71 0 0 1 3.72-.7c1.33 0 2.56.23 3.7.69a9.34 9.34 0 0 1 2.97 1.9 8.7 8.7 0 0 1 2.7 6.38v.04a9 9 0 0 1-5.7 8.31 9.7 9.7 0 0 1-3.72.71zm.05-5.11a3.34 3.34 0 0 0 2.6-1.18c.32-.35.55-.76.72-1.22.16-.46.24-.94.24-1.46v-.05a4.23 4.23 0 0 0-.98-2.71 3.47 3.47 0 0 0-5.23-.02c-.32.36-.55.77-.72 1.23-.16.46-.24.95-.24 1.46v.04a4.23 4.23 0 0 0 .98 2.72 3.44 3.44 0 0 0 2.63 1.19zm21.58 5.11a9.77 9.77 0 0 1-3.7-.69 9.31 9.31 0 0 1-2.97-1.9 8.7 8.7 0 0 1-2.7-6.38v-.05a8.97 8.97 0 0 1 5.7-8.31 9.7 9.7 0 0 1 3.72-.7c1.32 0 2.56.23 3.7.69a9.35 9.35 0 0 1 2.97 1.9 8.71 8.71 0 0 1 2.7 6.38v.04a9 9 0 0 1-5.7 8.31c-1.16.48-2.4.71-3.72.71zm.05-5.11a3.34 3.34 0 0 0 2.6-1.18c.31-.35.55-.76.72-1.22.16-.46.24-.94.24-1.46v-.05a4.24 4.24 0 0 0-.98-2.71 3.4 3.4 0 0 0-2.63-1.19 3.34 3.34 0 0 0-2.6 1.17 3.7 3.7 0 0 0-.72 1.23c-.16.46-.25.95-.25 1.46v.04a4.22 4.22 0 0 0 .99 2.72 3.44 3.44 0 0 0 2.63 1.19zm-10.62 18.49c-12.08 0-20.65-7.44-21-7.75l3.77-4.32c.06.06 7.36 6.32 17.23 6.32 9.9 0 16.67-6.2 16.73-6.27l3.9 4.21c-.35.32-8.5 7.8-20.63 7.8zm-20.34 4.9c-.36.65-.79 1.26-1.28 1.82a7.77 7.77 0 0 1-1.73 1.49 8.8 8.8 0 0 1-2.26 1 10.13 10.13 0 0 1-6.27-.27 8.84 8.84 0 0 1-2.84-1.83 9.13 9.13 0 0 1-1.95-2.84 9.12 9.12 0 0 1-.73-3.66v-.05c0-1.28.23-2.48.7-3.58a8.62 8.62 0 0 1 4.86-4.76 9.38 9.38 0 0 1 3.58-.68 9.6 9.6 0 0 1 4.16.92 7.55 7.55 0 0 1 2.35 1.76 8.37 8.37 0 0 1 1.29 1.82l-4.75 2.8a4.42 4.42 0 0 0-1.21-1.53 2.9 2.9 0 0 0-1.9-.58 2.91 2.91 0 0 0-2.34 1.11c-.27.35-.5.74-.66 1.21a4.7 4.7 0 0 0-.23 1.46v.05c0 .56.09 1.07.23 1.54a3.34 3.34 0 0 0 1.68 2c.4.2.84.29 1.31.29.82 0 1.48-.21 1.97-.6.49-.41.92-.93 1.28-1.57zm20.12 4.3h-6.24l-.91-2.32h-6.03l-.88 2.33h-6.15l4.44-10.66c1.43.73 3.06 1.43 4.86 2.05l-.82 2.18h3.15l-.61-1.65c1.95.57 4.06 1 6.33 1.2zm6.77-7.47v7.48h-5.63v-6.77c2-.06 3.87-.32 5.63-.7zm13.74-6.27v13.75h-5.73v-8.58L373 52.21h-.1l-3.34-5.2a36.14 36.14 0 0 0 13.12-6.13zm18.33 2.6v.05c0 1.04-.19 1.96-.57 2.76-.38.79-.9 1.47-1.6 2.01-.68.55-1.5.95-2.47 1.23-.95.27-2.01.4-3.18.4h-1.87v4.7h-5.75v-17.3h7.74c1.15 0 2.2.13 3.14.39.94.24 1.74.63 2.42 1.15.67.5 1.2 1.14 1.57 1.92a6 6 0 0 1 .57 2.7zm-5.68.38c0-.63-.21-1.1-.64-1.43a2.93 2.93 0 0 0-1.8-.48h-1.57v3.86h1.55c.74 0 1.33-.16 1.78-.48.46-.33.68-.8.68-1.42z"/></defs><g><g transform="translate(-325 -14)"><use fill="#2e3041" xlink:href="#wdxba"/></g></g></svg>