<?xml version="1.0" encoding="utf-8"?>
<!-- Generator: Adobe Illustrator 22.0.1, SVG Export Plug-In . SVG Version: 6.00 Build 0)  -->
<svg version="1.1" id="Layer_1" xmlns="http://www.w3.org/2000/svg" xmlns:xlink="http://www.w3.org/1999/xlink" x="0px" y="0px"
	 viewBox="0 0 30 23.9" style="enable-background:new 0 0 30 23.9;" xml:space="preserve">
<style type="text/css">
	.st0{fill:#2E3041;}
	.st1{fill:#C5C7CF;}
	.st2{fill:url(#SVGID_1_);}
	.st3{fill:url(#SVGID_2_);}
	.st4{fill:url(#Shape_714_copy_1_);}
	.st5{fill:#CDCED1;}
	.st6{fill:url(#SVGID_3_);}
	.st7{fill:#FFFFFF;}
	.st8{fill:#FFAD00;}
	.st9{fill:url(#Rectangle_914_copy_2_1_);}
</style>
<path class="st0" d="M-84.3-26.6h5.8v12.4h8.1v4.9h-13.8V-26.6z M-20.2-21.7h-5.1v-4.9h15.9v4.9h-5.1v12.4h-5.8V-21.7z M-58.7-9
	c-1.3,0-2.5-0.2-3.7-0.7c-1.1-0.4-2.1-1.1-3-1.9c-1.7-1.7-2.7-4-2.7-6.4v0c0-1.2,0.2-2.4,0.7-3.5c0.5-1.1,1.1-2,2-2.9
	c0.9-0.8,1.9-1.5,3-1.9c2.4-0.9,5-0.9,7.4,0c1.1,0.4,2.1,1.1,3,1.9c1.7,1.7,2.7,4,2.7,6.4v0c0,1.2-0.2,2.4-0.7,3.5
	c-0.5,1.1-1.1,2-2,2.9c-0.9,0.8-1.9,1.5-3,1.9C-56.1-9.2-57.4-9-58.7-9z M-58.6-14.1c0.5,0,1-0.1,1.5-0.3c0.4-0.2,0.8-0.5,1.1-0.9
	c0.3-0.4,0.6-0.8,0.7-1.2c0.2-0.5,0.2-1,0.2-1.5v0c0-0.5-0.1-1-0.3-1.5c-0.2-0.5-0.4-0.9-0.7-1.2c-0.3-0.4-0.7-0.7-1.1-0.9
	c-0.5-0.2-1-0.3-1.5-0.3c-0.5,0-1,0.1-1.5,0.3c-0.4,0.2-0.8,0.5-1.1,0.9c-0.3,0.4-0.6,0.8-0.7,1.2c-0.2,0.5-0.2,1-0.2,1.5v0
	c0,0.5,0.1,1,0.3,1.5c0.2,0.5,0.4,0.9,0.7,1.2c0.3,0.4,0.7,0.7,1.1,0.9C-59.7-14.2-59.1-14.1-58.6-14.1L-58.6-14.1z M-37-9
	c-1.3,0-2.5-0.2-3.7-0.7c-1.1-0.4-2.1-1.1-3-1.9c-1.7-1.7-2.7-4-2.7-6.4v0c0-1.2,0.2-2.4,0.7-3.5c0.5-1.1,1.1-2.1,2-2.9
	c0.9-0.8,1.9-1.5,3-1.9c2.4-0.9,5-0.9,7.4,0c1.1,0.4,2.1,1.1,3,1.9c1.7,1.7,2.7,4,2.7,6.4v0c0,1.2-0.2,2.4-0.7,3.5
	c-0.5,1.1-1.1,2-2,2.9c-0.9,0.8-1.9,1.5-3,1.9C-34.5-9.2-35.8-9-37-9z M-37-14.1c0.5,0,1-0.1,1.5-0.3c0.4-0.2,0.8-0.5,1.1-0.9
	c0.3-0.4,0.6-0.8,0.7-1.2c0.2-0.5,0.2-1,0.2-1.5v0c0-0.5-0.1-1-0.3-1.5c-0.2-0.5-0.4-0.9-0.7-1.2c-0.3-0.4-0.7-0.7-1.1-0.9
	c-0.5-0.2-1-0.3-1.5-0.3c-0.5,0-1,0.1-1.5,0.3c-0.4,0.2-0.8,0.5-1.1,0.9c-0.3,0.4-0.6,0.8-0.7,1.2c-0.2,0.5-0.2,1-0.2,1.5v0
	c0,0.5,0.1,1,0.3,1.5c0.2,0.5,0.4,0.9,0.7,1.2c0.3,0.4,0.7,0.7,1.1,0.9C-38-14.2-37.5-14.1-37-14.1L-37-14.1z M-47.6,4.4
	c-7.7-0.2-15.1-2.9-21-7.8l3.8-4.3c0.1,0.1,7.4,6.3,17.2,6.3c6.1-0.1,12-2.3,16.7-6.3l3.9,4.2C-32.7,1.5-40,4.3-47.6,4.4z
	 M-72.7,6.6C-73,7.2-73.5,7.8-74,8.2c-1,0.7-2.2,0.8-3.3,0.3c-0.4-0.2-0.7-0.5-1-0.8c-0.3-0.4-0.5-0.8-0.7-1.2
	c-0.2-0.5-0.2-1-0.2-1.5v0c0-0.5,0.1-1,0.2-1.5c0.1-0.4,0.4-0.8,0.7-1.2c0.3-0.3,0.6-0.6,1-0.8C-76.2,1-75,1.1-74,1.7
	c0.5,0.4,0.9,0.9,1.2,1.5l4.7-2.8c0-0.1-0.1-0.1-0.1-0.2c-0.3-0.6-0.7-1.1-1.2-1.6c-0.5-0.6-1.1-1-1.7-1.4c-0.2-0.1-0.4-0.2-0.6-0.3
	c-0.5-0.2-1-0.4-1.5-0.6C-74.1-3.9-75-4.1-75.9-4c-1.2,0-2.4,0.2-3.6,0.7c-1.1,0.4-2.1,1.1-2.9,1.9c-0.8,0.8-1.5,1.8-1.9,2.9
	C-84.8,2.5-85,3.7-85,5v0c0,2.4,0.9,4.8,2.7,6.5c0.8,0.8,1.8,1.4,2.8,1.8c1.1,0.4,2.2,0.6,3.4,0.6c1,0,1.9-0.1,2.9-0.4
	c0.8-0.2,1.6-0.6,2.3-1c0.6-0.4,1.2-0.9,1.7-1.5c0.5-0.6,0.9-1.2,1.3-1.8L-72.7,6.6z M-50.7,6.7C-52.8,6.5-55,6.1-57,5.5l0.6,1.7
	h-3.1l0.8-2.2c-1.7-0.6-3.3-1.3-4.9-2L-68,13.6h6.1l0.9-2.3h6l0.9,2.3h6.2L-50.7,6.7z M-46.7,6.8v6.8h5.6V6.1
	C-42.9,6.6-44.8,6.8-46.7,6.8z M-40.4,6l3.3,5.2h0.1l4-6.2v8.6h5.7V-0.1C-31.2,2.8-35.7,4.9-40.4,6z M-9.6-0.2
	c-0.4-0.8-0.9-1.4-1.6-1.9c-0.7-0.5-1.5-0.9-2.4-1.1c-1-0.3-2.1-0.4-3.1-0.4h-7.7v17.3h5.8V8.9h1.9c1.1,0,2.1-0.1,3.2-0.4
	c0.9-0.2,1.7-0.7,2.5-1.2c0.7-0.5,1.2-1.2,1.6-2C-9.2,4.4-9,3.5-9,2.5v0C-9,1.5-9.2,0.6-9.6-0.2z M-14.7,2.9c0,0.6-0.2,1.1-0.7,1.4
	c-0.5,0.3-1.2,0.5-1.8,0.5h-1.5V0.9h1.6c0.6,0,1.3,0.1,1.8,0.5C-14.9,1.8-14.6,2.3-14.7,2.9L-14.7,2.9L-14.7,2.9z"/>
<path id="Forma_1" class="st1" d="M15.5-24.5c3.3,3.3,3.3,8.7,0,12s-8.7,3.3-12,0s-3.3-8.7,0-12c1.6-1.6,3.8-2.5,6-2.5
	C11.8-27,13.9-26.1,15.5-24.5z M14.1-13.9c0.9-0.9,1.5-2.1,1.8-3.3c-0.2,0.3-0.4,0.4-0.5-0.3c-0.1-1.1-1.1-0.4-1.7-0.8
	c-0.6,0.4-2.1-0.8-1.8,0.6c0.4,0.7,2.1-0.9,1.2,0.5c-0.5,1-1.9,3.1-1.8,4.2c0,1.6-1.6,0.3-2.2-0.2C8.7-14.2,9-16,8-16.6
	c-1.1,0-2-0.1-2.5-1.4c-0.3-1,0.3-2,1.2-2.4c1.4-0.9,1.9,1,3.2,1c0.4-0.4,1.5-0.6,1.6-1c-0.8-0.1,1.1-0.7-0.1-1
	c-0.4,0-0.8,0.3-0.8,0.8c0,0.1,0,0.3,0.1,0.4c-1.2,0.3-1.3-1.8-2.5-1.1c0,1-1.9,0.3-0.7,0.1c0.4-0.2-0.7-0.7-0.1-0.6
	c0.3,0,1.3-0.4,1.1-0.6c0.6-0.4,1.1,0.9,1.6,0c0.4-0.7-0.2-0.8-0.7-0.5c-0.3-0.3,0.5-1,1.2-1.3c0.2-0.1,0.4-0.1,0.6-0.1
	c0.4,0.4,1,0.5,1,0c-2.2-1-4.8-0.8-6.7,0.7c0.3,0.1,0.5,0.3,0.2,0.5c-0.3,0.8-1.1,1.4-2,1.5c-0.4,0.7-0.7,1.5-0.8,2.4
	c0.7,0.2,0.8,0.7,0.7,0.8c-0.3,0.3-0.6,0.7-0.7,1.2c0.6,3.6,4,6,7.5,5.4C11.9-12.3,13.2-12.9,14.1-13.9z"/>
<linearGradient id="SVGID_1_" gradientUnits="userSpaceOnUse" x1="43.4876" y1="11.3724" x2="28.4876" y2="26.3724" gradientTransform="matrix(1 0 0 -1 0 0.3758)">
	<stop  offset="0" style="stop-color:#4AD45A"/>
	<stop  offset="1" style="stop-color:#2CC986"/>
</linearGradient>
<path class="st2" d="M43.4-13.9l-7,2.9c-0.2,0.1-0.5,0.1-0.8,0l-7-2.9c-0.3-0.1-0.6-0.5-0.6-0.8v-7.3c0,0,0,0,0-0.1s0,0,0,0s0,0,0,0
	c0-0.1,0-0.2,0.1-0.3c0,0,0,0,0,0c0,0,0,0,0,0c0.1-0.2,0.3-0.4,0.5-0.5l7-2.9c0.2-0.1,0.5-0.1,0.8,0l7,2.9c0,0,0.1,0,0.1,0.1
	c0,0,0,0,0,0s0,0,0,0c0.1,0.1,0.2,0.2,0.3,0.3c0,0,0,0,0,0.1c0.1,0.1,0.1,0.2,0.1,0.4c0,0,0,0,0,0v7.4C44-14.4,43.8-14.1,43.4-13.9z
	 M42.1-15.4v-5.4l-3.4,1.3L37-18.8v5.5L42.1-15.4z M29.9-15.4l5.1,2.1v-5.5l-5.1-2V-15.4L29.9-15.4z M36-24.1l-4.6,1.9l4.6,1.8
	l3.3-1.3l1.3-0.5L36-24.1z"/>
<linearGradient id="SVGID_2_" gradientUnits="userSpaceOnUse" x1="59.9979" y1="9.3835" x2="59.9979" y2="26.3847" gradientTransform="matrix(1 0 0 -1 0 0.3758)">
	<stop  offset="0" style="stop-color:#339DFF"/>
	<stop  offset="1" style="stop-color:#2BB2F8"/>
</linearGradient>
<path class="st3" d="M55.2-9C55.2-9,55.3-9,55.2-9c0.3,0,0.6-0.2,0.7-0.4c0.3-0.9,0.9-1.7,1.7-2.1c0.8,0.2,1.6,0.3,2.4,0.3
	c5,0,9-3.3,9-7.4S65-26,60-26s-9,3.3-9,7.4c0,1.7,0.7,3.4,2,4.6c0.1,1.7,0.7,3.4,1.7,4.8C54.8-9.1,55-9,55.2-9z M57.5-13.1
	c-0.1,0-0.3,0-0.4,0.1c-0.8,0.4-1.4,1-1.9,1.8c-0.5-1-0.7-2.1-0.7-3.2c0-0.2-0.1-0.4-0.2-0.5c-1.1-0.9-1.7-2.3-1.7-3.7
	c0-3.2,3.4-5.9,7.5-5.9s7.5,2.6,7.5,5.9s-3.4,5.9-7.5,5.9c-0.8,0-1.6-0.1-2.4-0.3C57.6-13.1,57.5-13.1,57.5-13.1z M60-13.9
	c1.6,0,3.1-0.4,4.4-1.3c1.2-0.7,1.9-2,2-3.4c0-0.4-0.3-0.8-0.7-0.8c-0.4,0-0.8,0.3-0.8,0.7c0,0,0,0,0,0.1c0,1.7-2.3,3.3-4.9,3.3
	c-0.6,0-1.2-0.1-1.7-0.2c-0.4-0.1-0.8,0.2-0.9,0.6c-0.1,0.4,0.1,0.8,0.5,0.9C58.6-14,59.3-13.9,60-13.9z"/>
<linearGradient id="Shape_714_copy_1_" gradientUnits="userSpaceOnUse" x1="75.2501" y1="24.1349" x2="87.2501" y2="12.1349" gradientTransform="matrix(1 0 0 -1 0 0.3758)">
	<stop  offset="0" style="stop-color:#FF9B25"/>
	<stop  offset="1" style="stop-color:#FFCD34"/>
</linearGradient>
<path id="Shape_714_copy" class="st4" d="M81.9-18.4c-2.1,0-3.8-1.7-3.8-3.8s1.7-3.8,3.8-3.8c2.1,0,3.8,1.7,3.8,3.8
	C85.7-20.1,84-18.4,81.9-18.4z M81.9-24.6c-1.3,0-2.3,1.1-2.3,2.4c0,1.3,1.1,2.3,2.4,2.3c1.3,0,2.3-1.1,2.3-2.3
	C84.3-23.5,83.2-24.6,81.9-24.6L81.9-24.6z M82-11c-1.3,0-2.5-0.1-3.8-0.3C77.7-11.5,76-11.8,76-13c-0.1-2.1,0.7-4.1,2.2-5.5
	c1-0.9,2.3-1.4,3.7-1.4c3.6,0.2,6.3,3.3,6.1,6.9c0,1.2-1.7,1.5-2.2,1.6C84.5-11.1,83.3-11,82-11z M77.5-13.1c0.4,0.3,2,0.6,4.5,0.6
	s4.2-0.4,4.5-0.6c0.1-2.7-1.9-5.1-4.6-5.3C80.4-18.4,77.5-17.3,77.5-13.1L77.5-13.1z"/>
<path id="Shape_59_copy_3" class="st5" d="M145.4-20.6c0,1-0.8,1.8-1.8,1.8s-1.8-0.8-1.8-1.8c0-1,0.8-1.8,1.8-1.8
	C144.6-22.5,145.5-21.6,145.4-20.6C145.4-20.6,145.4-20.6,145.4-20.6z M142.2-20.6c0,0.8,0.7,1.4,1.5,1.4c0.8,0,1.4-0.7,1.4-1.5
	c0-0.8-0.7-1.4-1.4-1.4C142.8-22.1,142.2-21.4,142.2-20.6z M139.3-17.4l-0.6-0.3c0.8-0.2,1.6,0.3,1.8,1.1c0.2,0.8-0.3,1.6-1.1,1.8
	c-0.7,0.2-1.4-0.2-1.7-0.8l0.7,0.3c0.6,0.2,1.3,0,1.5-0.6c0,0,0,0,0,0C140.2-16.4,139.9-17.1,139.3-17.4L139.3-17.4z M141.5-11
	c-3.5,0-6.6-2.5-7.4-5.9l3,1.2c0.2,1.1,1.3,1.8,2.4,1.6c0.9-0.2,1.5-0.9,1.6-1.8l2.6-1.9c1.5,0,2.8-1.2,2.8-2.7
	c0-1.5-1.2-2.8-2.7-2.8c-1.5,0-2.8,1.2-2.8,2.7c0,0,0,0,0,0l-1.7,2.5c-0.4,0-0.9,0.1-1.2,0.3l-4-1.6c0.6-4.1,4.4-7,8.5-6.5
	c4.1,0.6,7,4.4,6.5,8.5C148.4-13.8,145.2-11,141.5-11z"/>
<path id="Shape_59_copy_2" class="st5" d="M162.3-23.3v1.9H161v2.4h1.3v7h2.7v-7h1.8c0,0,0.2-1.1,0.2-2.4h-2V-23
	c0-0.3,0.3-0.5,0.6-0.6h1.5V-26h-2c-1.4-0.2-2.6,0.8-2.7,2.2C162.3-23.6,162.3-23.5,162.3-23.3z"/>
<path id="Shape_1355_copy" class="st5" d="M192.3-19.7c0.1,0.5,0.1,0.9,0.1,1.4c0,3.7-2.4,6.4-6.1,6.4c-3.6-0.1-6.4-3.1-6.3-6.7
	c0.1-3.4,2.9-6.2,6.3-6.3c1.6,0,3.1,0.6,4.2,1.7l-1.8,1.8l0,0c-0.7-0.6-1.5-1-2.4-1c-2.2,0.1-3.9,2-3.8,4.1c0.1,2,1.7,3.7,3.8,3.8
	c1.7,0.1,3.1-1,3.5-2.6h-3.5v-2.5H192.3z M197-19.3v-2h-1.6v2h-2v1.6h2v2h1.6v-2h2v-1.6H197z"/>
<path id="Shape_59_copy" class="st5" d="M222.1-19.8c0.2-0.3,0.4-0.6,0.6-0.8c1-1.4,1.5-2.3,1.3-2.7l-0.1-0.1
	c-0.1-0.1-0.2-0.1-0.3-0.1c-0.2,0-0.4-0.1-0.6,0l-2.6,0c-0.1,0-0.1,0-0.2,0c0,0-0.1,0-0.1,0l0,0l0,0c0,0-0.1,0.1-0.1,0.1
	c0,0-0.1,0.1-0.1,0.2c-0.3,0.7-0.6,1.4-0.9,2c-0.2,0.4-0.4,0.7-0.6,1c-0.1,0.2-0.3,0.4-0.5,0.6c-0.1,0.1-0.2,0.2-0.3,0.3
	c-0.1,0.1-0.1,0.1-0.2,0.1l-0.2,0c-0.1-0.1-0.2-0.1-0.2-0.2c-0.1-0.1-0.1-0.2-0.1-0.4c0-0.1,0-0.3,0-0.4s0-0.2,0-0.4s0-0.3,0-0.4
	c0-0.2,0-0.5,0-0.8s0-0.5,0-0.6s0-0.3,0-0.5c0-0.1,0-0.3,0-0.4c0-0.1-0.1-0.2-0.1-0.3c0-0.1-0.1-0.2-0.2-0.2
	c-0.1-0.1-0.2-0.1-0.3-0.1c-0.4-0.1-0.8-0.1-1.2-0.1c-0.7-0.1-1.4,0-2.1,0.2c-0.1,0.1-0.2,0.2-0.3,0.3c-0.1,0.1-0.1,0.2,0,0.2
	c0.3,0,0.6,0.2,0.8,0.4l0.1,0.1c0.1,0.1,0.1,0.3,0.1,0.4c0,0.2,0.1,0.4,0.1,0.7c0,0.4,0,0.8,0,1.1c0,0.3-0.1,0.6-0.1,0.7
	c0,0.1-0.1,0.3-0.1,0.4c0,0.1-0.1,0.1-0.1,0.2c0,0,0,0,0,0c-0.1,0-0.2,0-0.2,0c-0.1,0-0.2-0.1-0.3-0.1c-0.1-0.1-0.3-0.2-0.4-0.4
	c-0.2-0.2-0.3-0.4-0.4-0.6c-0.2-0.3-0.3-0.6-0.5-0.9l-0.1-0.3c-0.1-0.2-0.2-0.4-0.4-0.7c-0.2-0.3-0.3-0.6-0.4-0.9
	c0-0.1-0.1-0.2-0.2-0.3l0,0c0,0-0.1-0.1-0.1-0.1c-0.1,0-0.1,0-0.2-0.1l-2.4,0c-0.2,0-0.4,0-0.5,0.2l0,0.1c0,0,0,0.1,0,0.1
	c0,0.1,0,0.2,0.1,0.2c0.4,0.9,0.7,1.7,1.2,2.5s0.8,1.4,1.1,1.9c0.3,0.5,0.6,0.9,0.9,1.4c0.3,0.4,0.5,0.7,0.6,0.8
	c0.1,0.1,0.2,0.2,0.2,0.3l0.2,0.2c0.2,0.2,0.4,0.4,0.6,0.5c0.3,0.2,0.6,0.4,0.9,0.6c0.4,0.2,0.8,0.4,1.2,0.5
	c0.4,0.1,0.9,0.2,1.3,0.1h1c0.2,0,0.3-0.1,0.5-0.2l0,0c0-0.1,0.1-0.1,0.1-0.2c0-0.1,0-0.2,0-0.3c0-0.2,0-0.5,0.1-0.7
	c0-0.2,0.1-0.3,0.2-0.5c0.1-0.1,0.1-0.2,0.2-0.3c0-0.1,0.1-0.1,0.2-0.1c0,0,0,0,0.1,0c0.2,0,0.4,0,0.5,0.1c0.2,0.2,0.4,0.3,0.5,0.5
	c0.2,0.2,0.4,0.4,0.6,0.7c0.2,0.2,0.4,0.4,0.6,0.6l0.2,0.1c0.1,0.1,0.3,0.2,0.5,0.2c0.2,0.1,0.3,0.1,0.5,0l2.3,0
	c0.2,0,0.4,0,0.5-0.1c0.1-0.1,0.2-0.1,0.2-0.3c0-0.1,0-0.2,0-0.3c0-0.1,0-0.2-0.1-0.2c0,0,0-0.1-0.1-0.1c-0.5-0.8-1-1.4-1.7-2l0,0
	l0,0l0,0h0c-0.3-0.2-0.5-0.5-0.7-0.7c-0.2-0.2-0.2-0.5-0.1-0.7C221.5-19.1,221.8-19.5,222.1-19.8z"/>
<path class="st5" d="M244.8-19.4L250-24v9.1L244.8-19.4z M235.3-24.7c0.2-0.2,0.5-0.3,0.7-0.3h12.8c0.3,0,0.5,0.1,0.7,0.3l-7.2,6.3
	L235.3-24.7z M235-14.9V-24l5.2,4.6L235-14.9z M242.5-17.3l1.9-1.7l5.3,4.7c-0.2,0.2-0.5,0.3-0.7,0.3h-12.8c-0.3,0-0.5-0.1-0.7-0.3
	l5.3-4.7L242.5-17.3z"/>
<linearGradient id="SVGID_3_" gradientUnits="userSpaceOnUse" x1="118.9999" y1="8.3847" x2="97.9999" y2="29.3847" gradientTransform="matrix(1 0 0 -1 0 0.3758)">
	<stop  offset="0" style="stop-color:#4EE360"/>
	<stop  offset="1" style="stop-color:#2CC986"/>
</linearGradient>
<circle class="st6" cx="108.5" cy="-18.5" r="10.5"/>
<path class="st7" d="M112.9-15h-8.8l-1.1-7.3l3,2.4l2.5-3.1l2.5,3.1l3-2.4L112.9-15z"/>
<path class="st0" d="M8,16.2c-0.8,0.2-1.7,0.3-2.6,0.2c-0.8-0.1-1.6-0.4-2.3-0.8c-0.7-0.4-1.3-0.9-1.8-1.6c-0.5-0.7-0.9-1.4-1.1-2.2
	l0,0C0,11-0.1,10.2,0.1,9.3c0.1-0.8,0.4-1.6,0.8-2.3c0.4-0.7,1-1.3,1.6-1.8c1.4-1.1,3.2-1.5,4.9-1.3C8.2,4,9,4.2,9.7,4.6
	C10.4,5,11,5.6,11.5,6.2c0.5,0.7,0.9,1.4,1.1,2.2l0,0c0.2,0.8,0.3,1.7,0.2,2.5c-0.1,0.8-0.4,1.6-0.8,2.3c-0.4,0.7-1,1.3-1.6,1.8
	C9.7,15.6,8.9,16,8,16.2z M7.1,12.8c0.3-0.1,0.7-0.3,0.9-0.5c0.2-0.2,0.5-0.5,0.6-0.8c0.1-0.3,0.2-0.6,0.3-1c0-0.3,0-0.7-0.1-1l0,0
	C8.7,9.2,8.6,8.9,8.4,8.6C8.2,8.3,7.9,8.1,7.7,7.9C7.4,7.7,7.1,7.6,6.8,7.5c-0.3-0.1-0.7,0-1.1,0.1C5.4,7.6,5.1,7.8,4.8,8
	C4.6,8.2,4.3,8.5,4.2,8.8C4.1,9.1,4,9.4,3.9,9.7c0,0.3,0,0.7,0.1,1l0,0c0.1,0.3,0.2,0.7,0.4,0.9c0.2,0.3,0.4,0.5,0.7,0.7
	c0.3,0.2,0.6,0.3,0.9,0.4C6.4,12.9,6.8,12.9,7.1,12.8z M22.3,12.4c-0.8,0.2-1.7,0.3-2.6,0.2c-0.8-0.1-1.6-0.4-2.3-0.8
	c-0.7-0.4-1.3-0.9-1.8-1.6c-0.5-0.7-0.9-1.4-1.1-2.2l0,0c-0.2-0.8-0.3-1.7-0.2-2.5c0.1-0.8,0.4-1.6,0.8-2.3c0.4-0.7,1-1.3,1.6-1.8
	C18.2,0.3,20-0.2,21.7,0c0.8,0.1,1.6,0.4,2.3,0.8c0.7,0.4,1.3,0.9,1.8,1.6c0.5,0.7,0.9,1.4,1.1,2.2l0,0c0.2,0.8,0.3,1.7,0.2,2.5
	c-0.1,0.8-0.4,1.6-0.8,2.3c-0.4,0.7-1,1.3-1.6,1.8C24,11.8,23.2,12.2,22.3,12.4L22.3,12.4z M21.5,8.9c0.3-0.1,0.7-0.3,0.9-0.5
	C22.6,8.2,22.8,8,23,7.7c0.1-0.3,0.2-0.6,0.3-1c0-0.3,0-0.7-0.1-1l0,0C23,5.3,22.9,5,22.7,4.7C22.5,4.4,22.3,4.2,22,4
	c-0.3-0.2-0.6-0.3-0.9-0.4c-0.3-0.1-0.7,0-1.1,0.1c-0.3,0.1-0.7,0.3-0.9,0.5c-0.3,0.2-0.5,0.5-0.6,0.8c-0.1,0.3-0.2,0.6-0.3,1
	c0,0.3,0,0.7,0.1,1l0,0c0.1,0.3,0.2,0.7,0.4,0.9c0.2,0.3,0.4,0.5,0.7,0.7c0.3,0.2,0.6,0.3,0.9,0.4C20.8,9,21.1,9,21.5,8.9L21.5,8.9z
	 M17.8,23.3C12.6,24.5,7.2,24,2.5,21.8l1.7-3.6c3.9,1.8,8.3,2.2,12.5,1.2c4.1-1.2,7.6-3.7,10-7.2l3.3,2.1
	C27.1,18.7,22.8,21.8,17.8,23.3z"/>
<path class="st7" d="M279-20.5c0,1.4-1.2,2.5-2.6,2.5c-1.4,0-2.5-1.2-2.5-2.6c0-1.4,1.2-2.5,2.5-2.5C277.9-23,279-21.9,279-20.5
	C279-20.5,279-20.5,279-20.5z M274.5-20.5c0,1.1,0.9,2,2.1,2c1.1,0,2-0.9,2-2.1c0-1.1-0.9-2-2-2C275.4-22.5,274.5-21.6,274.5-20.5z
	 M270.5-15.9l-0.9-0.4c1.1-0.3,2.3,0.4,2.5,1.6c0.3,1.1-0.4,2.3-1.6,2.5c-0.9,0.2-1.9-0.2-2.3-1.1c0.3,0.1,0.7,0.3,1,0.4
	c0.8,0.3,1.8-0.1,2.1-0.9c0,0,0,0,0,0C271.7-14.6,271.3-15.6,270.5-15.9L270.5-15.9z M273.4-7c-5,0-9.2-3.4-10.3-8.3l4.2,1.7
	c0.3,1.5,1.8,2.5,3.3,2.2c1.2-0.2,2.1-1.3,2.2-2.5l3.6-2.7c2.1,0,3.9-1.7,3.9-3.8s-1.7-3.9-3.8-3.9c-2.1,0-3.9,1.7-3.9,3.8
	c0,0,0,0,0,0l-2.4,3.4c-0.6-0.1-1.2,0.1-1.7,0.4L263-19c0.8-5.8,6.1-9.8,11.9-9c5.8,0.8,9.8,6.1,9,11.9C283.2-10.9,278.7-7,273.4-7
	L273.4-7z"/>
<path class="st7" d="M298.9-25.1v2.8H297v3.4h1.9v10h4v-10h2.7c0,0,0.3-1.6,0.4-3.4h-3v-2.3c0.1-0.4,0.4-0.8,0.9-0.8h2.2V-29h-3
	C298.8-29,298.9-25.6,298.9-25.1z"/>
<path class="st7" d="M338.5-19.7c0.1,0.6,0.2,1.3,0.2,1.9c0,5.1-3.4,8.8-8.6,8.8c-5,0-9-4-9-9s4-9,9-9c2.2,0,4.4,0.8,6,2.3l-2.5,2.5
	v0c-0.9-0.9-2.2-1.4-3.5-1.4c-3,0.1-5.4,2.6-5.4,5.6c0.1,2.9,2.4,5.3,5.4,5.4c2.7,0,4.5-1.5,4.9-3.7H330v-3.5H338.5z M345.2-19.1
	v-2.8h-2.3v2.8h-2.8v2.3h2.8v2.8h2.3v-2.8h2.8v-2.3H345.2L345.2-19.1z"/>
<path class="st7" d="M374.5-19.6c0.3-0.4,0.6-0.8,0.7-1c1.3-1.8,1.9-3,1.7-3.5l-0.1-0.1c-0.1-0.1-0.2-0.2-0.4-0.2
	c-0.2-0.1-0.5-0.1-0.7,0l-3.3,0c-0.1,0-0.2,0-0.2,0c-0.1,0-0.1,0-0.1,0l-0.1,0l0,0c0,0-0.1,0.1-0.1,0.1c0,0.1-0.1,0.1-0.1,0.2
	c-0.3,0.9-0.7,1.8-1.2,2.7c-0.3,0.5-0.5,0.9-0.8,1.3c-0.2,0.3-0.4,0.6-0.6,0.8c-0.1,0.1-0.3,0.3-0.4,0.4c-0.1,0.1-0.2,0.1-0.3,0.1
	c-0.1,0-0.1,0-0.2,0c-0.1-0.1-0.2-0.2-0.3-0.3c-0.1-0.1-0.1-0.3-0.1-0.5c0-0.2,0-0.3,0-0.5s0-0.3,0-0.6s0-0.4,0-0.5c0-0.3,0-0.6,0-1
	s0-0.6,0-0.8s0-0.4,0-0.7c0-0.2,0-0.4,0-0.5c0-0.1-0.1-0.3-0.1-0.4c0-0.1-0.1-0.2-0.2-0.3c-0.1-0.1-0.2-0.1-0.4-0.2
	c-0.5-0.1-1-0.2-1.5-0.2c-0.9-0.1-1.9,0-2.7,0.3c-0.2,0.1-0.3,0.2-0.4,0.4c-0.1,0.2-0.2,0.3-0.1,0.3c0.4,0,0.7,0.2,1,0.5l0.1,0.1
	c0.1,0.2,0.1,0.4,0.2,0.5c0.1,0.3,0.1,0.6,0.1,0.9c0,0.5,0,1,0,1.5c0,0.4-0.1,0.7-0.1,1c0,0.2-0.1,0.4-0.2,0.6
	c0,0.1-0.1,0.2-0.1,0.3c0,0,0,0-0.1,0.1c-0.1,0-0.2,0.1-0.3,0.1c-0.1,0-0.3-0.1-0.4-0.2c-0.2-0.1-0.3-0.3-0.5-0.5
	c-0.2-0.3-0.4-0.5-0.6-0.8c-0.2-0.3-0.4-0.8-0.6-1.2l-0.2-0.3c-0.1-0.2-0.3-0.5-0.5-1s-0.4-0.8-0.5-1.2c-0.1-0.2-0.1-0.3-0.3-0.4
	l-0.1,0c-0.1,0-0.1-0.1-0.2-0.1c-0.1,0-0.2-0.1-0.3-0.1l-3.1,0c-0.2,0-0.5,0.1-0.7,0.2l0,0.1c0,0.1,0,0.1,0,0.2c0,0.1,0,0.2,0.1,0.3
	c0.5,1.1,1,2.2,1.5,3.2s1,1.9,1.4,2.5c0.4,0.6,0.8,1.2,1.2,1.8c0.4,0.6,0.7,0.9,0.8,1.1c0.1,0.2,0.2,0.3,0.3,0.4l0.3,0.3
	c0.3,0.2,0.5,0.5,0.8,0.7c0.4,0.3,0.8,0.5,1.2,0.8c0.5,0.3,1,0.5,1.5,0.6c0.5,0.2,1.1,0.2,1.7,0.2h1.3c0.2,0,0.4-0.1,0.6-0.3l0-0.1
	c0-0.1,0.1-0.1,0.1-0.2c0-0.1,0-0.2,0-0.3c0-0.3,0-0.6,0.1-0.9c0-0.2,0.1-0.4,0.2-0.6c0.1-0.1,0.1-0.2,0.2-0.4
	c0.1-0.1,0.1-0.1,0.2-0.2c0,0,0.1,0,0.1,0c0.2-0.1,0.5,0,0.6,0.2c0.3,0.2,0.5,0.4,0.7,0.7c0.2,0.3,0.5,0.6,0.8,0.9
	c0.2,0.3,0.5,0.5,0.8,0.8l0.2,0.1c0.2,0.1,0.4,0.2,0.6,0.3c0.2,0.1,0.4,0.1,0.6,0.1l2.9-0.1c0.2,0,0.5,0,0.7-0.1
	c0.1-0.1,0.2-0.2,0.3-0.3c0-0.1,0-0.3,0-0.4c0-0.1,0-0.2-0.1-0.3c0-0.1,0-0.1-0.1-0.1c-0.6-1-1.3-1.9-2.2-2.6l0,0l0,0l0,0h0
	c-0.5-0.5-0.8-0.8-0.9-1c-0.2-0.3-0.3-0.6-0.2-1C373.8-18.6,374.1-19.1,374.5-19.6z"/>
<path id="Shape_59_copy_4" class="st7" d="M407.5-26.2c-0.7,0.5-1.5,0.8-2.3,1c-0.7-0.8-1.7-1.3-2.7-1.3c-2.1,0.1-3.8,1.9-3.7,4
	c0,0.3,0,0.6,0.1,0.9c-3-0.2-5.8-1.7-7.6-4.2c-0.3,0.6-0.5,1.3-0.5,2c0,1.3,0.6,2.6,1.6,3.4c-0.6,0-1.2-0.2-1.7-0.5v0
	c-0.1,1.8,1.2,3.5,3,4c-0.5,0.2-1.1,0.2-1.7,0.1c0.4,1.6,1.8,2.7,3.4,2.8c-1.3,1.1-2.9,1.7-4.6,1.7c-0.3,0-0.6,0-0.9-0.1
	c1.7,1.2,3.6,1.8,5.7,1.8c6.8,0,10.5-6.2,10.5-11.5l0-0.5c0.7-0.6,1.4-1.3,1.8-2.1c-0.7,0.3-1.4,0.5-2.1,0.6
	C406.7-24.5,407.2-25.3,407.5-26.2z"/>
<path id="Shape_511_copy" class="st8" d="M51,3c-3.8-0.1-6.9,3-7,6.7c0,2.2,1.1,4.2,2.9,5.5v1.3c0,2,1.7,3.5,3.6,3.5h1
	c2,0,3.6-1.5,3.6-3.5v-1.3C56.9,14,58,11.9,58,9.7C57.9,5.9,54.8,2.9,51,3z M51.5,18.6h-1c-1.2,0-2.1-0.9-2.1-2.1v-0.9h5.3v0.9
	C53.6,17.7,52.6,18.6,51.5,18.6L51.5,18.6z M54,14.2h-1.7l2-3.3c0.1-0.2,0.1-0.5,0-0.7c-0.1-0.2-0.4-0.4-0.6-0.4h-5.2
	c-0.3,0-0.5,0.1-0.6,0.4c-0.1,0.2-0.1,0.5,0,0.7l2,3.3H48c-1.6-0.9-2.5-2.6-2.5-4.5c0.1-3,2.7-5.4,5.7-5.3c2.9,0.1,5.2,2.4,5.3,5.3
	C56.5,11.6,55.6,13.3,54,14.2L54,14.2z M51,13.5l-1.3-2.2h2.7L51,13.5z"/>
<linearGradient id="Rectangle_914_copy_2_1_" gradientUnits="userSpaceOnUse" x1="80.9999" y1="-15.6153" x2="70.9999" y2="-5.6153" gradientTransform="matrix(1 0 0 -1 0 0.3758)">
	<stop  offset="0" style="stop-color:#4AD45A"/>
	<stop  offset="1" style="stop-color:#2CC986"/>
</linearGradient>
<path id="Rectangle_914_copy_2" class="st9" d="M81,9.7v2.5h-3.8V16h-2.5v-3.8H71V9.7h3.8V6h2.5v3.8L81,9.7L81,9.7z"/>
<path class="st7" d="M137.3,7.6c-0.5-2.2-2.2-3.8-4.4-4.1c-5.1-0.5-10.2-0.7-15.4-0.6c-5.1-0.1-10.2,0.1-15.4,0.6
	c-2.2,0.3-4,1.9-4.4,4.1c-0.6,3.2-0.8,6.5-0.7,9.8c-0.1,3.3,0.1,6.6,0.7,9.8c0.5,2.2,2.2,3.8,4.4,4.1c5.1,0.5,10.2,0.7,15.4,0.6
	c5.1,0.1,10.2-0.1,15.4-0.6c2.2-0.3,4-1.9,4.4-4.1c0.6-3.2,0.8-6.5,0.7-9.8C138.1,14.2,137.9,10.9,137.3,7.6z M112.2,23.9V10.2
	l13,6.9L112.2,23.9z"/>
<path class="st7" d="M154.5,11.2l4,2.8L157,9.4l4-2.7h-4.9L154.5,2l-1.6,4.7H148l4,2.7l-1.5,4.6L154.5,11.2z"/>
</svg>
