<?xml version="1.0" encoding="utf-8"?>
<!-- Generator: Adobe Illustrator 19.0.1, SVG Export Plug-In . SVG Version: 6.00 Build 0)  -->
<svg version="1.1" id="Слой_1" xmlns="http://www.w3.org/2000/svg" xmlns:xlink="http://www.w3.org/1999/xlink" x="0px" y="0px"
	 viewBox="-433 458.1 68.1 59.8" style="enable-background:new -433 458.1 68.1 59.8;" xml:space="preserve">
<style type="text/css">
	.st0{fill:#FFFFFF;}
</style>
<g>
	<path class="st0" d="M-413,458.1c-4,0-7.4,2.7-8.5,6.4h-9.1c-1.4,0-2.4,1.1-2.4,2.5s1.1,2.5,2.5,2.5h9.1c1,3.7,4.5,6.4,8.5,6.4
		c4.1,0,7.5-2.7,8.6-6.4h36.9c1.4,0,2.5-1.1,2.5-2.5s-1.1-2.5-2.5-2.5h-36.9C-405.5,460.8-408.9,458.1-413,458.1z M-412.9,463.1
		c2.1,0,3.9,1.7,3.9,3.9c0,2.2-1.8,3.9-3.9,3.9s-3.9-1.7-3.9-3.9C-416.8,464.8-415,463.1-412.9,463.1z"/>
</g>
<g>
	<path class="st0" d="M-382.9,478.1c-4,0-7.4,2.7-8.5,6.4h-39.1c-1.5,0-2.5,1.1-2.5,2.5s1.1,2.5,2.5,2.5h39.1c1,3.7,4.5,6.4,8.5,6.4
		c4.1,0,7.5-2.7,8.6-6.4h6.9c1.4,0,2.5-1.1,2.5-2.5s-1.1-2.5-2.5-2.5h-6.9C-375.4,480.8-378.8,478.1-382.9,478.1z M-382.8,483.1
		c2.1,0,3.9,1.7,3.9,3.9c0,2.2-1.8,3.9-3.9,3.9c-2.1,0-3.9-1.7-3.9-3.9C-386.7,484.8-385,483.1-382.8,483.1z"/>
</g>
<g>
	<path class="st0" d="M-401,500.1c-4,0-7.4,2.7-8.5,6.4h-21c-1.5,0-2.5,1.1-2.5,2.5s1.1,2.5,2.5,2.5h21.1c1,3.7,4.5,6.4,8.5,6.4
		c4.1,0,7.5-2.7,8.6-6.4h24.9c1.4,0,2.5-1.1,2.5-2.5s-1.1-2.5-2.5-2.5h-25C-393.5,502.8-396.9,500.1-401,500.1z M-400.9,505.1
		c2.1,0,3.9,1.7,3.9,3.9s-1.8,3.9-3.9,3.9s-3.9-1.7-3.9-3.9C-404.7,506.8-403,505.1-400.9,505.1z"/>
</g>
</svg>
