<?xml version="1.0" encoding="utf-8"?>
<!-- Generator: Adobe Illustrator 22.1.0, SVG Export Plug-In . SVG Version: 6.00 Build 0)  -->
<svg version="1.1" id="Слой_1" xmlns="http://www.w3.org/2000/svg" xmlns:xlink="http://www.w3.org/1999/xlink" x="0px" y="0px"
	 viewBox="0 0 236.6 63.3" style="enable-background:new 0 0 236.6 63.3;" xml:space="preserve">
<style type="text/css">
	.st0{clip-path:url(#SVGID_2_);fill-rule:evenodd;clip-rule:evenodd;fill:#00A650;}
	.st1{clip-path:url(#SVGID_2_);fill-rule:evenodd;clip-rule:evenodd;fill:#F7931D;}
	.st2{clip-path:url(#SVGID_2_);fill:#00A650;}
</style>
<g>
	<defs>
		<rect id="SVGID_1_" x="-306.5" y="-225.8" width="595" height="842"/>
	</defs>
	<clipPath id="SVGID_2_">
		<use xlink:href="#SVGID_1_"  style="overflow:visible;"/>
	</clipPath>
	<path class="st0" d="M51.6,14.7V6.3h4.7c1.7,0,3.1,0.4,3.8,1.2c0.9,0.9,1.2,1.8,1.2,3.1c0,1.2-0.4,2.2-1.2,3
		c-0.8,0.8-2.1,1.2-3.8,1.2H51.6 M51.6,32.8V21.1h6.1c4,0,7.3-0.8,9.6-2.3c2.4-1.6,3.7-4.3,3.7-8.2c0-3.9-1.3-6.7-3.7-8.2
		C64.9,0.7,61.7,0,57.6,0H42.4v32.8H51.6z"/>
	<polygon class="st0" points="101.1,32.8 101.1,26.4 85.1,26.4 85.1,19.5 99.7,19.5 99.7,13.1 85.1,13.1 85.1,6.3 101.1,6.3 
		101.1,0 76,0 76,32.8 	"/>
	<path class="st1" d="M116.1,6.4h5c1.2,0,1.9,0.3,2.7,0.9c0.7,0.6,1,1.3,1.1,2.3c-0.1,1.1-0.4,2.1-1.2,2.6c-0.7,0.6-1.6,0.9-2.9,0.9
		l-4.7,0.1V6.4 M116.1,26.5v-7.1h6.1c1,0,1.8,0.5,2.4,1.2c0.6,0.8,0.9,1.6,0.9,2.5c-0.1,1.2-0.4,1.9-1.2,2.5c-0.8,0.7-1.6,1-2.8,1
		H116.1z M122.4,32.8h2c0.1,0,0.3,0,0.4,0c1.2-0.1,2.5-0.3,4-0.7c1.5-0.5,3-1.4,4.2-2.7c1.2-1.2,1.8-3.1,1.9-5.4
		c-0.1-2.4-0.9-4.2-2.4-5.6c-1.4-1.4-3.4-2.2-5.6-2.5v-0.1c1.9-0.4,3.6-1.2,4.9-2.3c1.3-1.2,2.1-2.9,2.2-4.9c0-1.9-0.6-3.5-1.5-4.8
		c-1.1-1.2-2.5-2.2-4.1-2.8c-1.7-0.7-3.7-1.1-5.7-1.1h-15.9v32.8H122.4z"/>
	<polygon class="st0" points="164.9,32.8 164.9,26.4 148.9,26.4 148.9,19.5 163.6,19.5 163.6,13.2 148.9,13.2 148.9,6.3 164.9,6.3 
		164.9,0 139.8,0 139.8,32.8 	"/>
	<path class="st0" d="M180.9,14.7V6.3h4.6c1.8,0,3.2,0.4,3.9,1.2c0.8,0.9,1.2,1.8,1.2,3.1c0,1.2-0.5,2.2-1.2,3
		c-0.8,0.8-2.1,1.2-3.9,1.2H180.9 M180.9,32.8V21.1h6c4,0,7.3-0.8,9.7-2.3c2.4-1.6,3.6-4.3,3.7-8.3c-0.1-3.9-1.3-6.7-3.7-8.3
		c-2.4-1.6-5.7-2.3-9.7-2.3h-15.1v32.8H180.9z"/>
	<path class="st0" d="M203.1,23l-3.9,9.9h10.3l3.2-9.9H203.1z M218.3,6.4l8.8,26.4h9.1L223.3,0h-11.2l-6.7,17h9.2l3.5-10.6H218.3z"
		/>
	<polygon class="st1" points="1.5,52.8 6.8,52.8 6.8,59.1 8.4,59.1 8.4,45.9 6.8,45.9 6.8,51.6 1.5,51.6 1.5,45.9 0,45.9 0,59.1 
		1.5,59.1 	"/>
	<path class="st1" d="M21.3,51.6c0-1.5,0.2-2.7,0.6-3.5c0.4-0.8,1.2-1.2,2.4-1.3c1.3,0,2.1,0.5,2.4,1.3c0.5,0.8,0.6,1.9,0.6,3.5
		H21.3 M28.9,52.8c0-1.3-0.1-2.6-0.2-3.7c-0.2-1.1-0.6-1.9-1.2-2.6c-0.7-0.6-1.7-0.9-3.3-1c-1.4,0-2.6,0.5-3.3,1.3
		c-0.9,1-1.3,2.4-1.3,4.2v3.2c0,1.3,0.2,2.3,0.7,3.1c0.5,0.8,1.1,1.2,1.7,1.5c0.7,0.2,1.3,0.4,2.1,0.3c1.3,0.1,2.4-0.2,3.3-0.9
		c0.8-0.7,1.2-1.7,1.3-3.4h-1.7c0,1-0.2,1.6-0.7,2.2C26,57.8,25.4,58,24.3,58c-0.8,0-1.4-0.2-1.8-0.7c-0.5-0.4-0.8-1-0.9-1.6
		c-0.2-0.7-0.3-1.3-0.3-1.9v-1H28.9z"/>
	<path class="st1" d="M48,57.8h-6c0.8-0.9,1.3-2.1,1.5-3.9c0.4-1.8,0.5-4,0.5-6.8H48V57.8 M50.8,63.3v-5.5h-1.3V45.9h-7
		c0,1.3,0,2.8-0.1,4.2c0,1.4-0.2,2.9-0.5,4.1c-0.4,1.3-0.9,2.5-1.6,3.6h-1.2v5.5h1.5v-4.2h8.5v4.2H50.8z"/>
	<path class="st1" d="M69.2,55.4c0,0.9-0.2,1.5-0.7,1.9c-0.5,0.3-1.2,0.5-1.7,0.5h-3.2v-5h2.4c1.2,0,2,0.2,2.6,0.6
		C69.1,53.8,69.3,54.5,69.2,55.4 M69.1,49.2c0.1,0.8-0.2,1.4-0.7,1.8c-0.5,0.4-1.3,0.6-2.4,0.6h-2.4v-4.4h2.9c0.6,0,1,0,1.5,0.2
		C68.9,47.6,69.1,48.3,69.1,49.2 M71,55.5c0.1-0.9-0.1-1.6-0.5-2.2c-0.4-0.6-1.1-1-2.1-1.2v-0.1c1-0.2,1.5-0.5,1.9-1.1
		c0.4-0.6,0.5-1.3,0.5-2.2c0-0.8-0.2-1.3-0.6-1.8c-0.6-0.6-1.2-1.1-2.3-1.1l-1.1,0h-4.7v13.2H67c1.1,0,2-0.3,2.8-0.9
		C70.5,57.7,71,56.8,71,55.5"/>
	<polygon class="st1" points="83.8,59.1 89.1,48.9 89.1,59.1 90.7,59.1 90.7,45.9 89.1,45.9 83.8,56.1 83.8,45.9 82.3,45.9 
		82.3,59.1 	"/>
	<polygon class="st1" points="107.9,59.1 109.4,59.1 109.4,51.9 114.1,59.1 116.1,59.1 111.1,51.8 115.9,45.9 114,45.9 109.4,51.8 
		109.4,45.9 107.9,45.9 107.9,51.8 107.8,51.8 103.2,45.9 101.3,45.9 106.1,51.8 101.1,59.1 103.1,59.1 107.8,51.9 107.9,51.9 	"/>
	<polygon class="st1" points="128.1,59.1 133.4,48.9 133.4,59.1 134.9,59.1 134.9,45.9 133.4,45.9 128.1,56.1 128.1,45.9 
		126.4,45.9 126.4,59.1 	"/>
	<polygon class="st1" points="149.3,45.9 147,45.9 147,59.1 148.6,59.1 148.6,49.2 152.4,59.1 154,59.1 157.5,49.2 157.6,49.2 
		157.6,59.1 159.2,59.1 159.2,45.9 157,45.9 153.2,56.7 	"/>
	<path class="st1" d="M174.8,58c-0.8,0-1.3-0.1-1.6-0.3c-0.4-0.3-0.6-0.5-0.8-0.9c-0.2-0.2-0.3-0.4-0.3-0.6c0-0.2-0.1-0.6-0.2-1.1
		c0-0.5-0.1-1-0.1-1.5v-1.3c-0.1-1.9,0.2-3.4,0.5-4.2c0.4-0.9,1.3-1.3,2.5-1.3c1.3,0,2.1,0.5,2.4,1.3c0.4,0.9,0.6,2.3,0.6,4.2
		c0,0.3,0,0.7-0.1,1.3c0,0.6,0,1.1-0.1,1.5c0,0.5,0,0.9-0.1,1.1c-0.1,0.2-0.2,0.4-0.3,0.6c-0.2,0.4-0.4,0.6-0.9,0.9
		C176.1,57.9,175.5,58,174.8,58 M174.8,59.3c1.6,0,2.8-0.5,3.5-1.3c0.8-1,1.2-2.3,1.1-4v-3.2c0.1-0.6,0-1.3-0.2-2
		c-0.1-0.8-0.5-1.5-1.2-2.1c-0.7-0.6-1.6-0.9-3.2-1c-1.5,0.1-2.6,0.4-3.3,1c-0.6,0.6-1,1.3-1.2,2.1c-0.1,0.8-0.1,1.4-0.1,2v3.2
		c0,1.7,0.3,3.1,1,4C172,58.8,173.2,59.3,174.8,59.3"/>
	<path class="st1" d="M198,49.7c0.1-1.3-0.2-2.4-0.9-3.1c-0.7-0.7-1.6-1-2.8-1c-0.9,0-1.7,0.2-2.4,0.6c-0.7,0.4-1.3,1.1-1.5,1.9
		c-0.2,0.7-0.3,1.3-0.4,2.1v2.3c-0.1,1.1,0,2.2,0.2,3.2c0.1,1.1,0.5,1.9,1.1,2.6c0.7,0.7,1.7,1,3.2,1c0.5,0.1,1-0.1,1.5-0.2
		c0.6-0.3,1.1-0.6,1.4-1.3c0.4-0.6,0.7-1.4,0.7-2.7h-1.5c0,0.9-0.2,1.5-0.6,2.1c-0.2,0.6-0.9,0.8-1.8,0.8c-0.9,0-1.4-0.3-1.8-0.9
		c-0.3-0.6-0.5-1.3-0.6-2.1c-0.1-0.8-0.1-1.6-0.1-2.5c0-0.9,0-1.7,0.1-2.5c0.1-0.8,0.2-1.3,0.3-1.6c0.2-0.5,0.4-0.9,0.9-1.2
		c0.3-0.3,0.8-0.3,1.3-0.4c0.9,0,1.5,0.3,1.8,0.8c0.4,0.5,0.6,1.2,0.6,2H198"/>
	<polygon class="st1" points="217.1,45.9 208.1,45.9 208.1,47.2 211.8,47.2 211.8,59.1 213.4,59.1 213.4,47.2 217.1,47.2 	"/>
	<path class="st1" d="M236.5,55.5c0-1.3-0.2-2.1-0.7-2.7c-0.4-0.6-1-1-1.6-1.1c-0.7-0.2-1.3-0.2-2.1-0.2h-2.9v-5.7h-1.5v13.2h5
		c1.1,0,1.9-0.3,2.7-0.9C236.1,57.7,236.5,56.8,236.5,55.5 M234.8,55.4c0,0.9-0.3,1.5-0.8,1.9c-0.5,0.3-1.1,0.5-1.8,0.5h-3.1v-5h2.4
		c1.2-0.1,2.1,0.1,2.6,0.5C234.6,53.6,234.9,54.3,234.8,55.4"/>
	<polygon class="st1" points="219.6,16.4 205.6,16.4 203.1,23 221.8,23 	"/>
	<path class="st0" d="M33.3,23l3.9,9.9H26.9L23.7,23H33.3z M18.1,6.4L9.2,32.8H0.1L13.1,0h11.2L31,17h-9.2L18.3,6.4H18.1z"/>
	<polygon class="st1" points="16.8,16.4 30.7,16.4 33.3,23 14.6,23 	"/>
	<path class="st2" d="M233.5,0c1.6,0,2.8,1.2,2.8,2.8c0,1.6-1.2,2.8-2.8,2.8c-1.6,0-2.8-1.2-2.8-2.8C230.6,1.2,231.9,0,233.5,0
		L233.5,0z M233.4,0.6c-1.2,0-2.1,1-2.1,2.2c0,1.2,0.9,2.2,2.2,2.2c1.2,0,2.1-1,2.1-2.2C235.6,1.5,234.7,0.6,233.4,0.6L233.4,0.6z
		 M233,4.2h-0.6V1.4c0.3-0.1,0.6-0.1,1.1-0.1c0.5,0,0.8,0.1,1,0.2c0.2,0.1,0.3,0.3,0.3,0.6c0,0.3-0.2,0.6-0.6,0.7v0
		c0.3,0.1,0.4,0.3,0.5,0.7c0.1,0.4,0.1,0.6,0.2,0.7h-0.7c-0.1-0.1-0.1-0.3-0.2-0.7c0-0.3-0.2-0.4-0.6-0.4H233V4.2z M233,2.6h0.3
		c0.4,0,0.6-0.1,0.6-0.4c0-0.3-0.2-0.4-0.6-0.4c-0.2,0-0.3,0-0.4,0V2.6z"/>
</g>
</svg>
