<?xml version="1.0" encoding="utf-8"?>
<!-- Generator: Adobe Illustrator 19.0.1, SVG Export Plug-In . SVG Version: 6.00 Build 0)  -->
<svg version="1.1" id="Слой_1" xmlns="http://www.w3.org/2000/svg" xmlns:xlink="http://www.w3.org/1999/xlink" x="0px" y="0px"
	 viewBox="-435 462 72 52" style="enable-background:new -435 462 72 52;" xml:space="preserve">
<style type="text/css">
	.st0{fill:#FFFFFF;}
</style>
<g>
	<path class="st0" d="M-363,466c0-2.2-1.8-4-4-4h-64c-2.2,0-4,1.8-4,4s1.8,4,4,4h64C-364.8,470-363,468.2-363,466z"/>
	<path class="st0" d="M-363,510c0-2.2-1.8-4-4-4h-24c-2.2,0-4,1.8-4,4c0,2.2,1.8,4,4,4h24C-364.8,514-363,512.2-363,510z"/>
	<path class="st0" d="M-363,488c0-2.2-1.8-4-4-4h-44c-2.2,0-4,1.8-4,4s1.8,4,4,4h44C-364.8,492-363,490.2-363,488z"/>
</g>
</svg>
