<svg xmlns="http://www.w3.org/2000/svg" viewBox="0 0 372.7 175"><path d="M168.9 84.4l4-4.1 4.1 4.1 2.9-3-4-4 4-4.1-2.9-2.9-4.1 4.1-4-4.1-3 2.9 4.1 4.1-4.1 4z"/><path fill="#3BB54B" d="M204.6 73.3l-2.9-2.9-4.1 4.1-4-4.1-3 2.9 4.1 4.1-4.1 4 3 3 4-4.1 4.1 4.1 2.9-3-4-4z"/><path d="M167.4 99.5h35.7v4.1h-35.7z"/><path d="M90.9 5.8h-7.3L5.9 120.7v3.4h79v44.3h6V124h28.2v-6H90.9V5.8zM84.8 118H15.3l60.2-89.6L84.8 13v105zM184.7 3.4c-15.4 0-27.3 6.1-35.9 18.2-8.5 12.1-12.8 29-12.8 50.5v29.5c0 21.9 4.3 38.9 13 50.9 8.7 12.1 20.6 18.1 35.9 18.1 15.4 0 27.3-6 35.8-17.9 8.5-12 12.8-28.8 12.8-50.7V72.5c0-21.9-4.3-38.9-12.8-51-8.5-12-20.5-18.1-36-18.1zm42.8 97.9c0 20-3.7 35.6-11.1 46.7-7.4 11.1-17.9 16.6-31.4 16.6s-24-5.5-31.5-16.6c-7.5-11.1-11.3-26.5-11.3-46.1V72.7c0-20 3.7-35.6 11-46.6C160.5 15 171 9.4 184.7 9.4c13.6 0 24.2 5.5 31.6 16.5 7.4 11 11.1 26.4 11.1 46.1v29.3zM341.7 118V5.8h-7.3l-77.7 114.9v3.4h79v44.3h6V124h28.2v-6h-28.2zm-6.1 0H266l60.2-89.6 9.4-15.4v105z"/></svg>