<svg xmlns="http://www.w3.org/2000/svg" viewBox="0 0 1114.9 763.6"><path fill="#3AB54B" stroke="#FFF" stroke-width="3" stroke-miterlimit="10" d="M82.7 580.7l1.9 1.9 1.9.5v1.8l2.5 2.5 2.4 2.4-.5 3.6v3.8l-2.2 2.2 1.6 2.6H94l2 1.3.7-4.8 2.7-2.7-3.4-3.6.2-2.7-1.6-4.4h2.9l1.9-1.9-.8-2.7-.7-4.2 2.3-2.3 2.3-2.1-2.6-4.2v-2.9l-4.6-1.1-2.9-2.9-2.7-.9-4.4-1.3v2.2l-2 3.3-2.6.4-1.5 3.3-2.2 1.5 7 7.4-1.3 4z"/><path d="M36.4 667.3l-1.4-6 .9-3.2.5-3.3 2 .5v1.9l5 5-.5 3.6v3.9l-2.2 2.2-1.8-1.8-2.5-2.8m11.7 8.6l5.6-.6 3.4-1.1 2.1 1.5 4.5-.7 3.4 1.7.9 3.9-2 2-1.9 1.9v2l-4.2-1.1-.7 4.3 2.6 2.6v4.7l3.2 1.1 2.2-3 .6-3.4 3-.7 1.6-1.6.8 2.5 2-2 3.3-1.2.6-3.6 4.1-2.2 2.8-2.8 4.7.6L93 683h2.2v-3l-3.2-2.2-1.5-2.8-.9-5.4 1.5-5.6v-5l.9-3.7-1.6-1.6-4.1 1.9-2.7-1.2-3.9 1.4-3.7-.8-.5-3.2-1.9-5.6-.3-4.1-2.7-1.9-3.5-.2-1.7 1.7 1.7 1.7.7 2.4-.7 3.6h-2.4l-1.5-3.7h-2.4l-1.3-6-2.7-2.7H55l-2.8-.1v3l2.6 4.3-4.7 4.5.7 4.3.8 2.7-2 2h-3l1.7 4.5-.2 2.8 3.5 3.6-2.7 2.7-.8 4.6" transform="matrix(.97915 0 0 .97845 49.018 -58.17)" fill="#3AB54B" stroke="#FFF" stroke-width="3" stroke-miterlimit="10"/><g fill="#3AB54B" stroke="#FFF" stroke-width="3" stroke-miterlimit="10"><path d="M72.5 538.9l3.1-1.2 3.3-2.9 1.3-4 2.3-2.3v-3.2l-1.2-4 .7-3.8-4.2-4.2.9-3.8-1-3.7 2.2-.3 1.7 2.3 1.3 1.7 1.8.3.8 3.3 2.5 3.8 1.2 4 3.7 2.5 2.5 1.2 1.5 3.8 2.8 2.3-.7 3.3 2.3 2.2.7 5.3 2.3 2.3 3.7.5 2.1 2.1.6 1.7 2.8.3.8 3 2.5 2.7-1 2.8-1.5 2.5 2.3 3 1.3 3.5v2.2l-3.4-.2-1.6 1.6 1.6 1.6.7 2.4-.7 3.5h-2.4l-1.5-3.7h-2.4l-1.3-5.9-2.7-2.7-4.5-.1-4.6-1.1-2.9-2.9-7.1-2.2-2-4.4 2-2-3.7-7.9-2 1.1-2-4.5h-3.2l-1.7-1.8z"/><path d="M82.5 528.5l2.6.1 2.4.1.6-2.5 1.4-2.1 2.4.2.8-1-3.6-2.5-1.2-4-2.5-3.8-.8-3.3-1.8-.3-1.3-1.7-1.7-2.3-2.2.3 1 3.7-.9 3.8 4.2 4.2-.7 3.8 1.2 4 .1 3.3zm19.3 12.6l-1.6.9-1.8 2.7.4.6-.9.2-1.2 1.4.9.8.5 1.3 1.6-.5 1.6.1-.6 2.2 1-.4.2 1.6 1.7 1.1 2.1-.9 1.6-2.1-1.3-2.7.7-.4-.5-2.9-2-.3-2.4-2.7z"/></g><path fill="#3AB54B" stroke="#FFF" stroke-width="3" stroke-miterlimit="10" d="M99.9 454.4l2.5-2.7 3.7-1.7 3.2 1.3 2.8-1.2 2.7 2.8 4 4.3 3.7-3.7 2.5-1.5-.7-3.7 2.3-2.3 2.3.3-.2-2.7 6.2-.8 1.2-2.8 1.3-1.7-2.8-1.3v-3.5l-2.7-3-1-3.8-2.5-1.5-2.7-3 1-3.5-1-5.2-3.2-2.3-3.7-2.8-1.2-3.8-2.5-2-.8-2.3 2.2-2.5 1.7-3.7v-3.5l-1.8-3.3-1.8-2.8 1.7-1.3 1-2.5h2l1.5-1.3 1.2-4.5.3-2.7-1.3-3.3-1.8-1.8-2.5-.3-1.8-2-1.5-2.2-2.2 1.9-1.7-1.7-1.5-2.5-3-3.7h-3.3l-4-.3L95 359h-3.5l-.2-3.6-2.7-2.7-2.2-2.2v-3.2l-4-2.2.7-3.2-2.7-2.7-2.7-2.7v-1.8l-2.5-4.2-.3-3.5-3.3-6.5-3-3-3.7-3.7-1.4-1.4-5.3.5V310l-1.7-1.7-3.8 3v2.5l-1.7 3.4-1.5 1.2-2 2-1.4 2.1-2.5.9-2.6-1.8-2.8-.2-12.7.1-2.4 3-2.1 2.1-3.1-1.5-3.8 1.1-1.3 1.3-2.5-1-.5 2.8-.8 2.3-1 2.3 1 3.3 2.9 1.2 1.7 3.3 1.3 4.2 3.3 5.1-1.1 4.1 3 .8 2.6.7 3.6 2.7 1.4 3.1 3.8.1 3.9-.3 2.3 1.5.9 3.5 3.4-.7 1.7 1.6-.8 2 .1 2.1 1.3 1.9.4 2.8 1.8.7-.3 5 .9 1.2-.5 1.7-1.3 1.4-3.8 1 1.3 4.1-.2 2-1.6 1.5-2.4 1.9.8 3.4-1.1 2.6-2.1.9-1 1.9-1.9-3.4-1.9-3.1-.8-2-1.3-.3-1.4.9-1.7 3.1-3.8.1-4.2-.1-3.5-.3-1.3 1.5 1.5 5.2 4.7.6 2.5 2.3.5 3 2-3.6 2-1.7.1 2.3 2.5-.4 1.4 1 .8 1.4 5.5-.8 2.1-.5 3.4-.9 2.6.2 1.6 1.8 2.2.8 1.6 1.2H52l1.4-1.4 1.1-2.4.7.7-1.1 1.1-.9 1.9-1 2.2v1.7l2.4 1-1.9.9-1.2-1.2-1-.7-1 1.3-3.3-.4 1.3 5.5 1.6 2.2 1.4.7 1.1 1.1.9-1.1 1.1 1.1L55 430l.1 1.4 1.1 1.1.9.9v1.1h-1.8l-1.9.2-1.1-1.1-1.7-1.1-.7 1.8-2.3-.6-2-.6-2.9.2 2.7 2.8 1.2 2.4-.1 1.3.6 2.4-.3 2.5-1.9 2.2-1.6 1.6h-2.6l.7 2.2.6 2.2.8 2.1 2.6.1 5.2-.9 1.2 1.2 2.7 1.1H60l1.2 2.6.6 1.7 3.6 2.2 3.2.6 1.2-2 2.6.4-2.5-2.7s-.6-2.5-1.6-2.5-2.7-.5-2.7-.5l-3.2-1.7L60 451l1.4-2.2.7-3.2-.5-3s-1.4-.9-1.4-1.5.6-3.1.6-3.1l-1.6-1.6v-2.5l1.1 1.1 1.4 1.4 1.1 2.4 1.6 1.6 2.6.8 3 .7 2-.9.5 2.1 2.4.2 3.1-.1 1 1 1.4 2.5 4.4.4 1.7 1.7 3.9.5 1.2 1.2h3.1l1.7 1.7 1.7 1.7 1.8.5zm63.4 175.3l-.1-2.5 1.7-2.9 6.7-6.7.5 2 1.2 2.5h1.8l.4 1.8 2.3-.6v2.4l2.2 2.2h2.9l1.5-1.5 1.8.8 1.9 1 2.2-2.2-1.1-4.3-1.7-1.7-.9-3.3 1.9-3.8.6-3.5-1.3-2.2-2.6-2.6-2.6.7-2.6-1.3-2.2 3.1-2.4 2.5-2.3 2.3-.7-2.5 2.4-4.3.1-2.4 4.3.2 4.2.2 6.8 1.8 4.2 2.7 4.3 6.5v11.7l6.2 2 .6 2.2 1.3 1.7 2.4 1.2 6.3 5.4 1.3-8.2 3.1-3.8 5.2-.9 3.4 1.1 3.6-1.7 2.2 1 1-2.3 5.3-.3.2 4 5.4 3.7 1.2 5.2h3.6l1.5 2.8-.8 6.3-2.4 2.8v3.3l1.9 2.8 2.9 1.5 3.1 1.4 2.2 1.6 2.2-.6 2.6 1 1.2 3.5.2 2.1-1.1 1.1-.2 4.9 2 1.3-1.2 2.4-.2 5.5 2.5 2.2 1.9 2.4 1.3 3.9 3.9 4.4.7 4.2 3.1 3.6 2.4.1-.1 3.6 2.1 2.2 2.3 1.6 1.2 3 4.9 4.7h3.8l2.2 4.2 1.8 1.7 1.8 1-6.4 7.3-4 .2-1.3-3.1-2-2.8-2 .2-1 1.7-1.1 1.7h-3.2l-1.2-1.9-5.4.8-.3 3.1-4.4 2.3.9 3.3-2.6 2.1-18.2.1-1.5 3.4-4.4 1.7-6.7-.2.4-4-3.2-1.5-3.7-1-2-3.5.4-6.6 3.2-3.3.6-5.4-5-2.6-4.7-.7-1.1-6.8-1.6-2.6-2.4-1.1-1.5-2.8 1.4-2.7-2.5-3.2-5-2.6-3.6-1.1-.5-3.3-2.9-3.2-2.6-1-1.5-1.6.4-4.5h-3.1l-1-.9-1.9-1.5-1-2-1.6.6-.7 2.1-1.6.7-.9-2.2h-2.2l-.5-1.9-1.5.5-1.4-1.6-7.3-.5-1 1.4-2.6.2-2 2.5-5-.6-1.5-1.5-3.5-.1 1.6-5.8 1.9-3.5 2.6-3.7 2.2-3.6 3.3-2.6-.8-3.6-2-1.6 1-2.8 3.1-3.2-1.8.6-2.7 1.5-2.2-.7 1.2-3.3 4.9-1.6 1.9-2.7-2.7-.4-1.7-2.3-1.9.1-1.5 4.5-1.3-8.2"/><path fill="#3AB54B" stroke="#FFF" stroke-width="3" stroke-miterlimit="10" d="M216.6 629.7l-.4 2.5-.8 5.8-6.2-5.2-2.3-1.1-1.5-2.1-.6-2 24.8-46 27.5 4.3 14.2 23.1 6 18.6 3.6.6 2.4 2.8 4 1.6 3.2-.6 11.7 7.1 1.8-1 2.2-1.2 2.8 1.2.6 3 2.4 2.9.4 2.3.5 6.5 1.6-1 2.1-.2-1.6 4.3-1.7 2.6-2.2 4.7 1.4 1.9 2.9 1.1 1.2 5.7-2.5 2.5.7 5.1 2.9.5 3.3 1.9h6.6l1.2 2.9-1.4 3.7 4.3 4.8 1.4-1.2-.3-3.4 1.6-1.3 2.7.1 4.3-4.5 4.6-1 4.3-.4 3.4-2 2.2-1.8 2.4.2 1.4 1.6-1.1 1.2-1.7 1-.9 1-4.1 1.2 2.5 2.7 2.9.6.7 3.2 2.7 1.6 2.8 2 2.7-3.2 2.1-1.8.9 2.9-.4 2.5 3.6.2-1 3.1 1.2.4 2 .3.4 2.1 1.7.8 3.6 1.8-3 .8-2.9 1.7-2.6-.7.4 1.8-1.1-.1-2.7-1.2-2 2.1-1.7.8-2.3-.8-2.3-3.2h-6.5v-.5l-2.7-2.1-.3-2.8 3.5-.1 1.6-2.9-1.8-3.7-1.9-.6-1.4 2.7-2.7.8-2.6-1.4-1.7 2.6-1-3.7-2.2.3-1.3 1.2-1 6.6-6.8-3-1.8.6 2.3 3.5-2.8 1.7-.7 2.4-2 1.3-3.4-1.7-4.3-3.5-4.6 1.9-2.5 4.6h2.9l1.6 3.4 3.7.3-.1 3.3-1.9 1.4-.3 5.6 1.7.5-.1 3.7-1.7.5-1.2 1.2h-1.8l.2 1.7-1.6.9-.4 1-2.6-.7.1 2.4-1.1 1.1-.2 1.1-.9.1-.9-.4-4-1-1.2-2.5-3.4-2-2.9.3-1.2-1.6 5.9-6.9-1.8-1-1.8-1.7-2.2-4.2h-3.8l-2.9-2.7-2.1-1.9-1.2-3-2.4-1.6-2.1-2.1.1-3.6-2.4-.1-3.1-3.7-.7-4.2-3.9-4.4-1.3-3.8-2.1-2.6-2.3-2.1.2-5.6 1.2-2.4-1.9-1.3v-4.9l1.2-1.2-.1-2-.6-1.8-.6-1.8-2.7-1-2.1.7-2.3-1.7-3.1-1.3-2.3-1-2-2.8.1-3.3 2.5-2.8.8-6.3-1.6-2.8-3.5.1-1.3-5.2-5.3-3.9-.2-3.9-5.3.2-1 2.4-2.3-1-3.6 1.7-3.6-1.2-5.1 1-3 3.5z"/><path fill="#3AB54B" stroke="#FFF" stroke-width="3" stroke-miterlimit="10" d="M383.8 725l-2.5-.1-.1-.7-5.7.7-3.1-2.1-4.2-.6-3.2 2.9-.6-4-3.8 1.3-.2-3.1-1.6-4.2-3.6 1.1-3.1 2.2-3.9-4.1-5.4-2.2-7.1-.3-.9-2.2 1.4-3.4 3.6-1.4 5.5-.2 4.3 4.4 3.9-1.7.3-2.3h6.5l2.3 3.2 2.2.8 1.7-.8 2.1-2.1 2.6 1.2 1.2.2-.4-1.8 2.6.7 2.9-1.7 3-.8-5.3-2.6-.4-2.1-2-.3-1.2-.4 1-3.1-3.6-.2.4-2.6-.9-2.8-2.1 1.6-2.7 3.3-2.7-1.9-2.8-1.7-.8-3.2-2.9-.6-2.6-2.7 4.1-1.2.9-1 1.7-1 1.2-1.3 5.9.3-1.4-2.7-1.7-2 2.5-2.5 3.7-2.2 5.8.8 3.3 2 2.8 1.4 2.5 2.3 3.2 1.6 2.7 2.6 1-3.5.3-2.5 2.1-3.5 2.7-.2 3.5.1 3.2.8 1.1 1.6 1.5 1.8 2 1.1 2.4.6.4 1.6 2.1.4 1.4.9 1.4.2.5-1.3 2.9.5 2.5-.5 2.5 2 2.9.4 2.4-.9 2.1.4.3 1.6 2.5.4 2.3-.7 2.8.6 1.2 1.6 3.3-.3 8.3 2.9 1.4 5.2 4.5.5 1.8.4 2 3.1-.2 3.3-1.6 1.7-5 .2-13.6 3.7-5.5 7.4-2.9-2.4-2.2 1.3-2.4-.5-1.3-1.3-3.1.4-1.5-1.7-3.4 5.3-3.7 3.9-2.3-1-3.3 1.4-3.9-2.9 1.5-4-6 2-2.3-1.4-1.9 1.8-1 2-3 .7-4.6.3-1.9 1.1-2 2.7 1.8 2.2-1.3 1.8z"/><path fill="#3AB54B" stroke="#FFF" stroke-width="3" stroke-miterlimit="10" d="M180.2 529.6l-2.1-2.1-1.4-2.9-.3-3 2.5.3 1.7 1.8 1.7-1.7v-4.6l-.9-5.7.8-4.3-2-2-3.2-3-2.2-1.3 2.2-2.2 1-4.3-2.4-2.4-1.1-3.2 2.7-1.8 2.2-2.2 3 .2 2.8-1.2v-3l2.2-2.2 2.6-2.6h3.2l2.2-1.6 1.2-2.7h2.8l1.8 1.7-1.2 3.4v3.3l2.4 2.4 4.1.7.3-3.2 2.2-2.2.8-1.8h7.3l1.7-2.5h3.5l3.3 1.8 3.8-1.3 2.1-2.1 4.1.8 1.2 3.3v3.2h2.3l4-.7 2.2 2.2 1.2 2.8 4 1.5 2.5 3 .7 4.5 1.7 4.3 1.3 2.8-2 2v2.7h2.2l2-3.3 2.8 2.5 2 3.8 2.8.8 3.5-.5 3.8-1.8 2.8 1.5 3.2 2.5 1.2 2.5 3.2-1.2h3.8l2.1 2.1v4.2l2.5 2.5.6 1.9 3.2 3.2h2.9l1.8-1.8h1.7l1.3 2.7 1.9 1.9 3.7-.2h3.7l2.2-2.2 2.3-3.2-2.3-2.3-.7-2.8-1.6-1.6-2.3-2.3-1.1-2.4 1.3-3.5 3.3.8 2.8-.8 1.2-3-1.2-4.2 2.8-1.2 4.3-.2 2.8 2.8h2.3l2.1-2.1-2.2-2.2-1.8-1.8-1.8-1.2 2.3-2.3-1.2-2.5 1.2-3.7h3.5l3.8 2 2.7 2.3 3-.8 4.2.8 5.7-.2 3.8 1.2h2.8l3.2 1.7 3.3-.7 1.9-1.9h1.7l4.3 2.2h4.5l3.7-.7 3 1.7 3.7-1h4.2l2-2.8 3.7.3 3.3 2h4.2l1.5 3h3l2.5 1.2 1.3 4.2-.8 2.3v3.2l-2.1 2.1.9 2.9 3.7 1 3.3-2 2.4 2.4-1.1 3.9 3.3 1 1.8-1.8 3 1.8h3.3v2.3l-4 1.8-1 4.5h2.8l3.5-1.7 1.8 2.7 4-2.2 4.7-1.3 2.7-2.7 2.6-.1 3.5-.2 2.5-2.5h3l.8 2.3-2 2.7h-2.3v3l2.8 1.2 2.1 2.1 1.9 4.1 1.8 1.8 2.8 2.8 2 6.7v5.5l2.7 2.5v4l2.8 5 .8 4.3 1.2 3.8 2.2 4.3 3.7-.7 1.8-3.8 2.7-.8 1.8 2.2v2.5l1.8 1.8 2 2 3.7-.7 1.7 1.7 4.2-.7 2.1-2.1h4.2l2 2 3.1 1.4 2.3 2.2.7 4 2.8 1.8 1.3 3 3.5 2.2v4l4.5 1.2 4 1.3 4.3-1.7 2.6-2.6.9 3.4 1.8 3.3 1.5 2.5-4.4 1-1.2 6.7-2.6 2.6-5.3-.2-1.8 1.5-2.1 3.6.5 10.5-3 3.1h-3.4l-4.6 4.2V632l-6.2 1.1-3.7-1.2-7.5-3.6.4 3.8-1.4 3.5-3.7 4.4-3.1 7.6-1.3 5 3 .2.4 2-.8 2-1.8 1.1-1.2-1.9-3 .8-2.3-.7.2-2-5.1-.7-2.4 1.6-6.8.5-.7 1.7-1.9-1.9-1.4 1.4-2.4 1.5 1.3 1 6.1.9-2.3 2.4-1.5 2.8.3 3.8 1.1 3.7 1.1 3.7.9 3.3-.5 4.7-3.3-.2.8 2.7-2.6 1.2-1.7.3-1.1 1.7.7 3.6-.3 2.3-1.9-2.8-1.6-.4-4.7-.5-.5-1.8-.9-3.5-6-2.1-2.2-.8-3.4.2-1.2-1.6-2.8-.6-2.3.7-2.4-.4-.4-1.6-2-.4-2.5.9-2.9-.4-.9-.8-1.5-1.3-2.5.4-2.9-.5-.5 1.3-1.4-.2-1.4-.9-2.1-.4-.5-1.6-2.5-.6-1.9-1.1-1.5-1.7-1.1-1.7-3.2-.8-3.5-.1-2.6.2-2.2 3.5-.4 2.6-1 3.5-2.6-2.6-3.2-1.7-2.5-2.3-2.9-1.5-3.2-1.9-2.9-.4-2.9-.4-3.7 2.2-2.6 2.5 1.6 2 1.4 2.7-2-.1-3.9-.2-1.5-1.6-2.5-.1-2.5 2-3 1.7-4.5.4-4.4.9-2.2 2.4-2.1 2.1-2.7.1-1.5 1.5v3l-1.2 1.6-1.7-2-2.6-3.3 1.5-3.1-1.2-3-4.1-.1H320l-3.3-1.9-3-.6-.7-5.1 2.5-2.4-1.2-5.7-2.8-1-1.5-1.9 2.1-4.6 1.9-2.9 1.5-4.2-2 .2-1.6 1.1-.5-6.5-.4-2.4-2.5-2.9-.7-3-2.7-1.1-3.9 2.1-11.8-7.1-3 .6-4.1-1.6-2.5-2.8-3.6-.6-6-18.6-13.2-22.6-27.5-4.3-24.8 46-6.2-2v-11.7l-4.3-6.5-4.2-2.7-6.8-1.8-4.2-.2-4.3-.2 1-2.3 3.6-3.6 2.2-4.2-2.6-2.6-2.2-2.2-1.1-5.7-2.7-1.8 3.3-4-1-5.7 2.5-5.7-4.6-4.6 1.1-2.6h3.3l2.2 2.2 2.5 3.3h2.8v-5.3l2.4-2.4h4.4l4.2 1.6 5.7 3.2 3.9 3.9.9-.9-2.2-3.8 2.3-2.8 3.2-1.3 1.8-3.7 3.1-3.1 2.2-2.2-1.9-5.2-4.2-1.7-1.8 1.8-3.8-6.5-1.8-3.7-4.5-.3-5.7-1-5.2 1-2.8-1.3-2.3 1.2v-2.2l-2.7 1.1zM60.3 306.2l1.8-1.8-.2-3.9 1.8-.9 3.3-.6 1.2 1.8 3.3 1.4 4.1-4.1 2.7-4.5 4.2-3.8 2.9 1.6 2 2.9 2.4 1.3 1.7 1.7s2.4-.4 2.8-.4c.4 0 1.7 1.7 1.7 1.7l1.5 2.6 1.5-1.8 1.2-1.4 2-.4 2.2-1.8 2.4.6 2.2.8 1.3-.4.7.7 1.5 1 2.5.3.4-2.7 1.9-.8 2.6.5h2.1l1.1 1.1.2 2.3 2 .3.7-1.9 3.2 1.1h2.1l1.1.8-.5 2.3 1.5 3.3 2.3 2.3-.8 2.7-1 2.5 3.2.8 2.8 2.7v5.7l-3.2 2.7-1.2 2.5-3.3 1-1.3 3.7-1.9 4.3-1 4 .2 2.8-1.7 1.2 2.5 2.5-1 3.7-.8 3.3-3.2 1-3.3-1.2-1-2.5-1.8-2-2.5.2-.8 3-2.2 2.5-3.2 3.2-1.5 2.7-3-3.7h-3.3l-4-.3-2.7 2.7h-3.5l-.2-3.6-2.7-2.7-2.2-2.2v-3.2l-4-2.2.7-3.2-2.7-2.7-2.7-2.7v-1.8l-2.5-4.2-.3-3.5-3.3-6.5-3-3-3.7-3.7-1.4-1.4-5.3.5v-3l-1.7-1.7 4.1-2.1z"/><g fill="#3AB54B" stroke="#FFF" stroke-width="3" stroke-miterlimit="10"><path d="M731.7 197.2l-.3-1.2 2.3 1.1 1.2-1.2 1.6-1.6 2.4-2.4 1.5 1.8h.8l1.9-1.9 1.8-2.1 3.4-1.5 2.5 1.9-1.4 3.9v2.2l-1.6 1.6-2.5 1.2-2.8 1.1h-2.8l-2.1 2.1-3.3-1.2-1.7-2.5-.9-1.3m-5.7 3.3h-4.9l-1.6 1.6-2.5 1.8-1.9-1.9-4.5 1.4.3 2.8 1.2 1.2 1.7 1.7 1.2 1.2-1.7 1.4-2.3-2-1.2 1.2-1.7-1.7-3.9.8-1.7-.9-.8 2 1.2 1.2-2.3 1.2v2.9l1.9 1.9-.5 2.2h1.7l2.2 2.2-.6 2.5 2.8 1.4 3.7.2 1.5 1.5h2.8l3.2-.9v-2.5l-2-1.9 1.1-1.1 1.6 1.6 2.9-5.2 2.7-2.7 1.2 1.2 2.5-2.5.8-2.3-2.8-.9-1.9 1.9-2.3-1.7-2.8-1.7-2.8-2 .9-2 1.5-1.5 1.2 3.9 1.8 1.8 3 .5 1.9-.8h1.5l1.5-1.5-.8-3.2h-2.5l.6-2.8v-2l-2.1.5m2.6 27.2l-1.4 1.2 1.1 3.1 1.8 1.8 1.5-2.9v-2.3l-1.1-1.1-1.9.2m6.4 2.7l-1.8 1.8 1 2.4 1.7 1.7-1.1 2.5.9.9 1.4-2.9 3.6-.8 3.1-1.2 4.2-2.5-2.2-4h-2.9l-4.2-1.4-1.9 1.8-1.8 1.7m-34.8-6.6l-1.4-1.4-2.5-.2 1.6 1.6 1 3.6h2v-2l-.7-1.6M623 283.9l-2.9 2.9v1.9h2.4l.8 1.9 2-.9 2.3-2.3v-3.7h-2.9l-1.7.2m100.7-108.8l-.9 1.7 1 1 1.2-1-1.3-1.7m-8.7 67.5l-2.9-.6-.9.8 1.7.8 2.2 1.7.9-1.2-1-1.5m-124.4 2.7l-.6.9 1.4.9.6-1.1-1.4-.7m-6.7-13.8l-1.5.9 2.2 1.1 1.5 1.1 1.7-.5-.5-2-1.7.5-1.7-1.1m-15.1-7.6v-2.2l.2-3.9-1.1-2.2-1.5.2-2.2 2.6.2 2.3-.9 1.5.6 4.2-1.9 1.9.2 4.2-.9 3.6-.8 3.6 1.4.8 2.9-2.3 1.7-1.1 3.9-2 3.1-.3 3.9-2.9 1.9-3.6-1.2-3.1-1.4-2.3-1.9.8-1.9-3.2-1.4-1.4-1.7 2-1.2 2.8m-13.9-16.5l-1.4 1.7-1.2 2.3-1.1-.5.8-2.9v-3l-3.4 1.1s-2 .5-2.5.6c-.5.2-2.8.9-2.8.9l-1.1 2.3-.6 2-1.4 1.7.5 2-2.6 2 1.2 1.1 1.9-.6 1.5 2.2.2 2 1.4 1.7 3.6.3.5 2 2.5-1.5 1.2 2 3.4 1.2 3.2-1.5 1.5-2.2-1.2-2.5-2-2.8 1.5-1.1.6-2.6-.8-2.9.3-2.9-3.7-2.1zm-2.8 47.3l-1.5 1.9-2 .5 1.9 1.4 1.9-1.9-.3-1.9m-25.8-.6l-.8 1.2 1.1.9 1.4-2-1.7-.1m-15.9 42.3l-1.9.9s.8 2.3.8 2 1.4-.6 1.4-.6l-.3-2.3zm-13.2-13.9l-1.7 1.4.9 1.9 1.5-.3-.7-3m-.7 20.2l-.3 1.7h2.6l1.4 1.4.2-2.3-1.5-.3-2.4-.5m-8.9-91.6l-.9.9 1.1.6 1.7 1.2.5-1.5-2.4-1.2m-9.4 107.7l-1.1 1.4.6 1.9 1.1 1.4 1.5-1.7.6-2-1.4-1.4-1.3.4m-7.9 5.2l-1.7 1.7-1.9 1.5 1.7 1.2 1.4-1.2h2.2l2-1.9-1.9-1.9-1.8.6m-5.6-17.1l-1.4 1.2.9 1.4 1.9-1.2 2.3.6-.6-1.4-3.1-.6m-7.1 6.1l-.8 2 1.2 1.1 1.4-1.7-1.8-1.4m-16.5-10l-1.7 1.2.6 1.4-1.2 1.7.3 1.1 2.8.8 2.6-1.2 1.5.2v-1.5l-2.5-.6 1.2-1.4-1.4-2-1.7.6-.5-.3m-67 24.4l-2.5 1.2-1.9.6.5 4 .3 2.2 1.7.5.6 3.2 3.2.3 1.1-2.6-1.5-2.6.2-2.9-1.7-3.9M319.4 314l-3.4.9-2 2.6-1.5 2 1.1 2.9 2.5.9 2.3.9 2.2-1.5 2.6.5 1.4-3.2-2.2-2.8-.2-2.3-2.8-.9m-100.1 2.1l-.6.9 1.1 1.4 1.4-1.4-1.9-.9m144 2.2h-1.7l-1.9-2.8-1.1.6-3.2-3.1-2.5-2.6.9-2.8 2.5-.8.9-1.5-1.7-1.4.2-3.7-1.1-.3-1.1-2.8-2.3-.2-1.9-2.6.6-3.4 2.5-3.4 2.9.3.9 1.1 1.1.5.5-2 3.6-1.1 2.8-2.9-1.9-2 2.5-1.5 2.8 1.1.8-2.3v-2.3h3.6l1.7 1.7 1.8-1.8.4-1.6 3.9-.8-1.3-1.3-3.3-1.2v-1.2l3.9-1.1 4-1.1 2-2h2.6v-1.9l3.7-.2-2-2 3.2-.2 1.2 1.2-.2-3.1 1.5-1.5-1.7-2 1.1-1.7 1.9 1.9h2.3v-2.3l3.4 1.2 1.7-1.9 1.7-2h2.2l3.7-1.7 2.6.9h3.9l2.5-2.5 3 .2 1.4 2h3.2l1.5 1.5 2.8-.8h3.9l2.5-2.5 3-1.6 4-1.5h3.7l2.2 3.4v3.7l-3.2 2.9-2.9 2.8-3.9.3-4.6 2.2-4.2-1.5-2 2-4.8-.2h-6.2l-2.3 2.5h-4.8l-3.6 2 1.1 2.5-2.5.9-2.9-.3h-2.6l-.3 1.7-2.8-.8v2.8l-2.8 2-2.3 1.7v-2.6l-1.9 1.7.5 3.1h-1.9l-1.3-1.3v3.8l-1.4-1.4-1.7 1.7-1.5 1.5h-2l-1.5 2-2 3.4h-3.2l-2.6 2.2v2.9l-2.6 1.1-.9 3.1-2.2 2.2v3.9l-1.1 2.8 1.4 4-1.2 4 1.7 2.6.8 2.8-.9.9-2.6 1.2v-2l-2.6-1.4m137.3-127.2l-1.3.3-.8.8 1.3 1.3 1.7-.6 1-1-1.9-.8m29.2-2.5l-1.1 1.1.9.9 1 1 2-1.9v-1.3l-2.8.2m12.2-1.7l-.4 2.6-2.3 1-3.4 2.3v3.2l1.4 1.4-1.8 1.9-1.2 2.4 1.7 2.3.6 2.3 2.9 2.6 2.7-2.6h1.8l2.7-1.5 3.2-1-.9-3.1v-3.8l1.9-1.7-1.6-1.6-3.3-3.3-1.1-2.6-2.9-.8m-7.5 21.2l-2.2-.3.4 2.8v1.8l2.8.8 1.1 1.1 1.7-1.7 1-2.5-1.7-1.3-3.1-.7m-34.1 65.4l-.8.8 1.1 1 1.8-.5-2.1-1.3m-38.8-107l-1.3.4 1 1.4v1.3h1.8v-2.4l-1.5-.7m-.3 10.9l-.9 1.4-3.3.6-2.2 1.1 1.7.8-.8 1.8 1.4.4h2.8l2.2-2.2 1.7-1.7-.6-2.5-2 .3m-10.6-2.3l-.7.7 1.3 1.3 2.4-.9v-2h-1.4l-1.6.9m-1.9 4L447 177l-1.4 1.4-1 2v2.6l2.2.4.5 1.5 2.7-.6 1.7-1.7 1.3-1.3.7-2.1h-1.9l-3-.1m-7.6 8.8l-.8.8v1.6h1.7l.6-2-1.5-.4m-3.6-6.5l-.9-.9h-2.8v1.9l-1.5 1.5.9.9 3.1-.6 1.1 1.1 2.7-.6.8-1.8 1.9.6-1-2.3-1.7-1.7-2.6 1.9m14.2-21.3l-.8 1.5 1.3 1.3 1.3-1.3-1.8-1.5m-2.8 3.6h-2v2.3l2.2 2.2v1.8l1.9-.9-1.1-2.4-1-3m-12.8 6.6h-1.8l-.4.4 1.5 1.5.7-1.9m1.6 3l-1.2 1.2 1.2 1.3 1.4-.1-1.4-2.4m1.1-5.6v1.7h1.8l-.4-1.9-1.4.2m2.5 4.1v1.5h1.5l-1.1-1.1-.4-.4m1.5 3.4l.6.6 1.1-1.1-1.7.5m1.8-6.8v1.8l1.5.1v-1.9h-1.5m-2.3-3.6l.9 1.7.8-.8-.8-.8h-.9m-16.5 10.7l-1 1 1.7 1.7 1.9.1v-3.1l-1.3-1.7-1.3 2m4.2-2.1l.6 1.8h1.3v-1.5l-1.9-.3m-7.1-10.2l-1.3 1.3v1.4l-1.5 1.5-2.6-1.9-2.2 1.1v1.5l-2.7-1.9-2 .8.6 3.1 1.9-.6v2l2 .5 1.9-1.9 2.6-1.1 2.2.6h3.2l2.3-2.3-2.2-2.2 1.5-1.5-2.5-1.5-1.2 1.1" transform="matrix(.97915 0 0 .97845 49.018 -58.17)"/><path d="M415.7 160.1h-2.8l-1.7-1.7-1.1 2.3 1.5 1.5.6 1.7 3.3-1.1 1.1 1.1 2.2-.9.9.9V162l-1.5-1.5h-1.3l-1.2-.4m2.5 13.5h-1.1l.4 1.6 2.3.1-1.6-1.7m.4 3.4l-1.1 1.1.9.9 2.2.5-1.4-1.4-.6-1.1m9.3-16.5v1.7h1.3l1.3-1.3-2.6-.4m448.5-28.7l1.4-4.9 5.2-5 5.8-5.8 2.6-2.6 5.1-2.2 3.7-2.1 3.4-3.4 3.5-3.5 4.3-1.7 3.1-4.4 5.8-1.7 3.1-3.2 3.7-1.7 2.4-1.4 2.7 2.7 3.9-1.2 3.5 2.6 2.3-2.3 4.1-2.2v-2l-4.1.9-4.8-.3-3.1-.9 1-3.1 3.2-2.2-2.7-.7V78l1.9.2.3-3.1 1.7-2.4 2.4-2.4 4.1-1.5h1.2l3.1-4.3s2.9-.9 3.9-1.9c1-1 0 2.9 0 2.9l2.2 1.9 1.7 1.7-1.9 3.9s2.6 0 3.6-1 0 2 0 2v3.6l-3.9 2.6 3.1.5 1.9-1.9 4 1.5v-1.8l3.1 3.1L970 85l1.9-.5 1.9-2.4v2.2L975 87h-3.6v1.4l2.9.9-1.5 4.4-3.9.3-3.6 3.9-1.9 4.1-3.6 1.2-2.6-1H954l-2.9 4.3 1.3 2.6v4.3l-2.8 2.8-2.2-1.7-2.2 1.7H942l-1.9-1.5-1.7-1-.3 1.6 1.3 1.3-1.5.7-1 1 3 .5v2.3l2.3 2.3 3.7-1h2.6l.2 3.2 1.5-1.5 2.6 2.6 2.8 2.8 1.4 4.9.7 3.9-2.7 4.4h-2.6l-3.6 1.5-1.2 2.7 2.9-1.2h1.9l-2.7 3.2 1.7 1.7 2.2-.9v-3.2l2-1.5 3.7-.1 2.1-2.1 1-1.7 2.6.2 2-.3 3.7-.2v2.4h3.1l.9-1.6h3l1.8-1.8 2.2-.3 1.9 1.5 2.7-2 1.3 3 2.5 2.5v3.6l-3.4 1.4-2.2 4.8h-3.6l-1 1.5 4 2.6-1.3 1.3 2.9 4.4 1.2 5.4v6.1l1 4.8 1.7 4.1.9 5.4 1.7 5.3 3.2 2.9v4.9l1.7 6.8 2.9 3.2 1.9 1.9-2.9 2.6-3.1-1.5-4.3 1.4-2.2 5.1-3.6 5.1 1.9 1.9-1.4 4.8v2.6l2.9 4.4v2.7l-3.2-1.5-2.4-2.4-2 .2 1.9 4.9v3.2l3.1 1.4-3.1 3.1h-2v4.4l-1.9 1.9 2.6 4.3 2 2 2.4 2.4 3.2 3.2.7 4.8.5 3.7 4.7 2.5 2.8 2.8h4.8l-1.3-2.9v-1.4l1.6-1.6 1.2-2.6 4.4 4.4.9 3.9 4.4 3.1 4.4 1 1.7-1.7h2.8l3.3 3.3-1.4 3.2-3.4 1 1 4.1 3.6 6 3.1.8 2.5 2.5 5.8-.7 3.4 2.7 1.2 3.1-2 1.4-2.9 1.9-1.7 3.7 1.2 6.8 3.4 5.3 3 1.1 1.4 1.4 4.9 1.2v2l-3.7.5v3.1l-1.4 3.1 1.7 6.1 2.9 1.2 4.4 4.4 3.2 3.1.7 5.4 1.7 7.1.9 4.6v3.4l-1.9-2.6h-4.9l-3.1-1.6-2.5-2.5h-3.4l-3.1-3.1-6-2.7-5.6-2.4-6.5-3.4-1.9-2.6-3.1-2-3.4-.7-7.3-2.2-4.8-2.6-4.6-3.1-2.2-4.1-4.9-4.9-3.4-3.6v-3.6l-2.4-2.4-.5-3.9-2.9-4.1-3.1-.7v-1.4l1.4-1.4 1.2-2.6-1.6-2.8 1.5-1.5 1.3-1.3-1.7-5.1-.9-5.4-2-6.3-3.2-4.3-1.4-5.6-1.5-5.3-1.7-4.3-2-6.3-2-1.7-.2-3.4 1.2-4.1v-5.2l-2-2-2.2-4.3h-2.2l-2.1-.8-2-2-2.4-3.1-3.6-2.2v-3.9l3.2-3.1-1.1-1.1-2.6 2.6-3.7 2v3.6l-1 2.7 2 1.9 3 3 2.8 2.8h3.4l-.3 2.2-1.5-.2-1.6 2.3 2.1 2.1v5.4l1.7 4.1.3 6.5-1.2 3.9-1.4-3.4-3.1-1.5v4.3l-2.6-2.6-1.7-1.7-1.4-2.9-4.8-4.4 1.4 3.7-1.4 4.1h-4.6v2.7l-1.5 5.6-1.9 2.2.2 7.5 3.1 2-.5 4.8 3.1 4.8v5.1l.9 6.7 2.8 2.8v3.1l2.4 2.4 2.2-.3 2-1.8 1.4-1.4h2.6l-.2 3.2-2.7.9v4.6l-5.1.9 1.2 6-.5 2.6-3.2 1.4v3.6l-1.2 3.2s-4 .9-3.2.2c.8-.8-1.5-1.5-1.5-1.5v-2.2l.7-2.2 2.8-.9-1.3-1.3-3.1 1.2-3.2.5v1.5l-4.8 2.2-2.4 2.9-2.7.7-2.2 2.2-.9 2.6.8 3.2 1.9 1.9-2.2 2.4-3.6-1.4 1.1 3.7-2.6 2.6-2.4 2.2h-2l-2 1.9 1.4 2.2 1 1-2.9 1.9h-3.9l-3.8 3.8-2.5 2.5-2.7 4.6-2.9 2.9-2.9 5.8-.5 5.6 2.7 5.4-2.6 2.6-.9 5.4 1.5 3.9 2.4 2.4-2 3.4v10.7l-1 4.3v5.8l1.7 1.9v8.7l-1.5 5.8v4.8l-2.6 4.3v4.3l-1.4 3.7 1.5 3.4h2.6l2-2h2.8l2.2-2.2 2.5-2.5 1.7 1.7 2 1v2.2l1.6 3 2 2 1.8-1.8v-2.7l-2.4-1v-2.6l1.9-2v1.7l2 1.5 1-.3 1 1v5.3l3.4-1.4v-1.7l1.9-2.6 1.2-1 1.9 1.4.4-2.8-1.6-1.6-1.5-2.9-1.9-3.4 3.1-1.7 1.9-1.9 3.7-.9h4.4l3.7.4 1.6 1.6s3.9-.7 4.8-.7 3.2-1 3.2-1l2.1 2.1-1.6 1.6-1.2 1.2-1 1.9h6l.7 2.2 2.6 2.6 3.1-.4 1.6 1.6 1.7 3.2.5 6.5 2.2 6.8 3.5 5 4.3 4.3 1.7 1.7.9 2.9 3.4 3.4 2.4 4.1.9 2.4 3.1 4.8 2.6 2.6v7.1l-1 6.1 1.9 6.1-.2 6.3 1.9 4.9 1.4 5.4 1 4.9 1 6.6v6.5l-1 3.4v14.8l-1 6.1 1 6.3-.3 8.2v3.9l-3.4 5.6-2.4 5-2.6 4.8h-2.2l-4.3 1.7-3.6 2-2.5-1v-2.3l-1.3-1.3-1.3 2.9v3.1l-1.4-1.4-2.2-2.2v1.7l-.7 4.3.7 2.9-.9 3.3-1.4 1.4v4.4l-3.2-.2-1.4-1.4 1.2-3.9 2-4.1v-3.4l-1.8-4-3.7-3.7-1.9-1.9-1.5-3.9-3.2-3.2-3.1-1-.1-3.3 2.1-2.1 1.9-1.9v-3.4l2.4-2.4 2.7-1.4 2.8.9 2.5-2.5 1.5-3.1-2.7-4.3 1.4-3.6-1.7-3.7-.3-3.9-2.4-3.2.7-2.7-1.9-3.2-.9-3.7-3.4-3.6 2.6-2.6v-3.7l-2.1-2.1-2.5-2.5-.7-2.2h-2.9l-4.1 2.2-1 3.4-2.7 4.4-3.1 3.9 1.4 4.3-3.6 2.9-3.6 2-3.1 1-.9 3.1h-3l-3.2-1.9-2.4-.9v-3.9l-2.7-2.4-2.2-2.2-3.7-.9-2 2-3.9-1-3.2-.8-4.9.7h-4.6l-1.9 1.9-5.1 1.9-5.1-1-2.1-4.2-2.5-2.5s-2.9-1.7-2.9-2.4-3.2-3.2-3.2-3.2l-4.1-.7-1.7-4.1-3.9-3.1-2.7-2.7-3.7-1-1.4-3.6-3.4-1.5-2-2-6.8-.7H826l-4.1 2.2-5.1-.9-3.9 1.4h-4.3l-5.8 4.3-2.7 2.7-5.4 3.1-2.6 2.6-1.9 5.6-1.4 3.4 1.9 2.4 2.6-2.1 2.1 2.1 2.4 2.4 1.4 5.4-1.4 2.9-1 7.3v4.6l-1.9 4.8 2.6 4.9 1.5 1.5v4.8l-3.6 1-2.3 5.4-3.3 3.3-5.6 2-6.3-.5-4.6-.9-3.4 2-4.8 2.7-3.6-1.9-3.2-1.2-4.3 1.9-3.6 3.6-2.6 2.6-1.4 5-3 3-3.9 2.7-5.4 2.6-4.2 4.2-2.1 2.1h-5.4l-4.9 1.5h-7l-5.1.7-4.6-1.5-1.4-2.6-2.4-2.4h-6.5l-6-.9-2.4-1.5-7.8 1.1h-4.9l-4 4-4.4 1-4.3 1.2-6.1-.5-4.2-1.8-2.6-2.6-2.5-5.2-3.1-3.1-4.4-1.7h-4.3l-4.8 1.3-3.3-3.3H615l-3.9-2.9-2 2-2.6 2.6-2.1 4.3-2.3 2.3-.7 4.4 2.1 2.6v3.8l3 3v4.1l-4 2.6-3.8 3.8h-8.1l-4.6-1.2-4.8.9-3.4-1-4.9-1.7-2.7-2.7-3.2-3.2-3.9-1.2-4.6 1.9-2.9-2.9-3.7-1.6-3 3h-3.7l-1.2 3.6h-4.4l-5.6 3.6-3.4 3.4H527l-.7 3.6-4 .9-2.8 2.8-5.1-.2-4.3 2.4-2.2 2.2-4.9-.9-1.5-2.6-1.9-3.4-.9-3.5-2.6 2.6-4.4 1.7-4.1-1.4-4.6-1.2v-4.1l-3.6-2.2-1.4-3.1-2.9-1.9-.7-4.1-2.4-2.2-3.2-1.4-2.1-2.1h-4.3l-2.1 2.1-4.3.7-1.7-1.7-3.7.7-2-2-1.9-1.9v-2.6l-1.9-2.2-2.7.8-1.9 3.9-3.7.7-2.2-4.4-1.2-3.9-.9-4.4-2.9-5.1v-4.1l-2.7-2.6v-5.6l-2-6.8-2.9-2.9-1.9-1.9-2-4.2-2.1-2.1-2.9-1.2v-3.1h2.4l2-2.7-.9-2.4h-3.1l-2.6 2.6-3.6.2-2.6.1-2.8 2.8-4.6 1.7-4.1 2.2-1.9-2.7-3.6 1.7h-2.9l1-4.6 4.1-1.9v-2.4h-3.4l-3.1-1.9-1.9 1.9-3.4-1 1.1-4-2.5-2.5-3.4 2-3.7-1-.9-3 2.1-2.1v-3.2l.9-2.4-1.4-4.3-2.6-1.2h-3.1l-1.5-3.1h-4.3l-3.4-2-3.7-.3-2 2.9h-4.3l-3.7 1-3.1-1.7-3.7.7H330l-4.4-2.3h-1.8l-2 2-3.4.7-3.2-1.7h-2.9l-3.9-1.2-5.8.2-4.3-.8-3.1.8-2.7-2.4-3.9-2H285l-1.2 3.7 1.2 2.6-2.4 2.4 1.9 1.2 1.9 1.9 2.3 2.3-2.1 2.1h-2.4l-2.9-2.9-4.4.2-2.9 1.2 1.2 4.3-1.2 3.1-2.9.8-3.4-.8-1.4 3.6 1.1 2.5 2.4 2.4 1.6 1.6.7 2.9 2.4 2.4-2.4 3.2-2.2 2.2h-3.7l-3.8.3-2-2-1.4-2.8h-1.7l-1.8 1.8h-3l-3.3-3.3-.6-1.9-2.5-2.5v-4.3l-2.1-2.1h-3.9l-3.2 1.2-1.2-2.6-3.2-2.6-2.9-1.5-3.9 1.9-3.6.5-2.9-.9-2-3.9-2.9-2.6-2 3.4H210v-2.7l2-2-1.4-2.9-1.7-4.4-.7-4.6-2.6-3.1-4.1-1.5-1.2-2.9-2.2-2.2-4.1.7h-2.4v-3.2l-1.2-3.4-4.2-.8-2.1 2.1-3.9 1.4-3.4-1.9h-3.6l-1.7 2.6H164l-.9 1.9-2.2 2.2-.3 3.2-4.2-.8-2.5-2.5V547l1.1-3.3-1.8-1.8h-2.9l-1.2 2.7-2.2 1.6h-3.3l-2.6 2.6-2.2 2.2v3.1l-2.9 1.2-3.1-.2-2.2 2.2-2.7 1.9 1.1 3.3 2.5 2.5-1 4.4-2.2 2.2 2.2 1.4 3.2 3.1 2 2-.9 4.4.9 5.8v4.7l-1.8 1.8-1.7-1.9-2.6-.3.3 3.1 1.4 3 2.1 2.1-1.7 1.7-2.9.3h-5.2s-2 .3-3.7.3c-1.6 0-1.3-1.3-1.3-1.3l-2.6-.7-1.2-1.2-3.1-.5v2.4l-2.4 1-2.9 3.4h-3.2l-3.6 1-2.1-.6-1.7 1.7v2.8l1.8 1.8 1 3.2-.9 3.2-.8 3-2 2v1.2l-1.7 1.5-3.7 6.1v4.8l1 5.8-.7 4.4.3 5.4-4.1 1.9-2.7-1.2-3.9 1.4-3.7-.8-.5-3.2-1.9-5.6-.3-4.1-2.7-1.9v-2.2l-1.4-3.6-2.4-3.1 1.5-2.6 1-2.9-2.6-2.7-.9-3.1-2.9-.3-.6-1.8-2.1-2.1-3.7-.5-2.4-2.4-.7-5.4-2.4-2.2.7-3.4-2.9-2.4-1.5-3.9-2.6-1.2-3.7-2.6-1.2-4.1-2.6-3.9-.9-3.4-1.9-.3-1.4-1.7-1.7-2.4-2.2.3-1.4-4.1.5-7.8-.7-5.8-1.4-2.9-1.7-2.6.9-4.9-2-1.9-1.4-2.7 1-3.1-.9-3.4 1.9-1.9 2-.3 2.7 3.4 2.7.9 1.2-2.6 2.9-1.2 3.9-.2h2l2.6.9.5-4.3-1.4-2.6.7-2.2 2 .3 1.9 1.4 2 1.9 1.5-1.5 2.4 1 3.9.5 2.9 1.2.7-3.1-2-1.5-2.9-.7-1.9-1.9-2-.7 2.6-2.7 3.7-1.7 3.2 1.4 2.9-1.2 2.7 2.9 4.1 4.4 3.7-3.7 2.6-1.5-.7-3.7 2.4-2.4 2.4.3-.2-2.7 6.3-.8 1.2-2.9 1.4-1.7-2.9-1.4v-3.6l-2.7-3.1-1-3.9-2.6-1.5-2.7-3.1 1-3.6-1-5.3-3.2-2.4-3.7-2.9-1.2-3.9-2.6-2-.9-2.4 2.2-2.6 1.7-3.7v-3.6l-1.9-3.4-1.9-2.9 1.7-1.4 1-2.6h2L73 447l1.2-4.6.3-2.7-1.4-3.4-1.9-1.9-2.6-.3-1.9-2-1.5-2.2-2.3 2-1.8-1.8-1.5-2.6 1.5-2.7 3.2-3.2 2.2-2.6.9-3.1 2.6-.2 1.9 2 1 2.6 3.4 1.2 3.2-1 .9-3.4 1-3.7-2.6-2.6 1.7-1.2-.2-2.9 1-4.1 1.9-4.4 1.4-3.7 3.4-1 1.2-2.6 3.2-2.7v-5.8l-2.9-2.7-3.2-.9 1-2.6.9-2.7-2.4-2.4-1.5-3.4.5-2.4 3.2-3.2 1.9-3.4-.9-3.1 2.7-.7 4.1-2.6v-3.6l1.7-2 4.3-.2 1.9-2.2.2-2.6 3.6-1.4 2.9-3.9 3.9.2 3.4-2 4.6 1 .7-2.6 1.5-1.5 2.9 1.4 2.4 2.6 3.7 1.2 1.4 3.1 1.4 3.4 2-2-.3-4.9-3.1-2.7V328l2.7-.7.9-.9-3.7-1.5-2.2-2.6 38.1-.2 7.1-2.6v-4.4l1.2-11.2h4.8l4.1-3.2v-4.4l3.1-1.2v-5.8l2.7-.2 6-4.8 2.9 1.4L209 274l.4-3.1 5.2-5.2h8.7l2.7-4.8v-9.2l5.4-2.7 7.1-3.6 4.9 1.9h2.9l2.4 2.4 2.9-2-.7 3.6 2.9-.3 4.1.2v2.7l.9 3.1-1.9-1.2-2-2-1.8 1.8.9 3.2v3.2l2.9 1.5 2.2 2.2v3.6l2.5 1.2v4l2.8 2.8 1.4 4.8v4.9l-.9 4.3 1 2.4.1 5.2 3 3-.2 3.7-.7 6.1-3 5.2-4.5 4.5h-4.8l-5.3 1-4.6-1.7-5-2.8-3.1-3.1v-4.6l-3.2-3.2-1.5-3.6-1.2-3.4-2.2-3.7-1.2-6.3-2.4-1 .8-3.8 2-2-2.4-2.4-1.1 3-1.6 1.6.7 3.7.1 4.3-1.9 1.9 2.5 2.5-.7 3.7-2.4 5.3-4.2 1.3-3.3 3.3-1.3 6-3.1 3.1 1 3.6 1.5 4.4-2.5 4.3 3.5 3.5 3.7 3.7 4.3-3.1.9-4.3-2.2-2.2.3-3.7v-2.9l2.9-3.1h2.9l1 7.7.9 5 3 3 1.9 3.9 4.8 1.4 1.4-1.4-1.2-2.9 2.9-2.4.2-6 5.3.9 4.9-1.9 4.1 2.2 4.6-1.4h3.1l2 2 2.9 4.4-2.4 2.4v3.7l2.1-2.6 3-3 4.1-.9 3.4-4.9v-4.3l1.4-2.9 4.4-2.2v-2.7l4.3-2.6v-4.3l-.7-4.1h2.9l.9 2.1 3.8 3.8 2.9 4.4v6l-1 3.1-1.5 1.5-2.6-2.6-3.6-.9-5.4 1.9v4.4l1.4 4.1v3.4l3.9 1 3.7 1.7 4.3-2V336l4.4-1 4.3 2-.7-2.7 6.6 1.2 3.6-.7 6.5.9h3.7l1.9 3.4h1.7V336l5.4-1.7h2.9l1.2 4.4h-3.2l-1 3.1-2.6.9 3.9 3.6h2.7l5.1-2.2 4.8.9 5.3 5.3 1.8-1.8h3.6l4.5-1.4 1.8 1.8-.5 2.4-2.7 1.9v2.9l3.2 2.7.3-3.1 1.4-1.4 3.4.9v-2.7l3.2-.5.7-4.1-.5-4.9 3.1-1.5 2.6-.8 3.1 3.1 1.4-1.4 3.5 4.3 4 4 3.2 3.2 2.1 4.3 4 4 2.7 4.3 2.9 3.9v3.4l2.4 3.7 3.4-2v-3.6l3.9-3.6-2.7-.9-1.9-4.4.7-4.8-3.2-2.2-1.8-3.7 1.6-1.6 3.4-1.7v-2.7l.9-4.1 1.5-2v-2.6l-2.2-.7 1.2-3.4 1.9-2.4 3.4-1.2 3.7-1.8 1.3-1.3 2.9-2.9 2.2-4.9 1.7-4.1 1.9-4.1 3.2-1.7 2 2.9h4.1l2 2h3.6l1.5 5.8-1.7 1.7-.8 6.2-4.8 4.8-1.4 4.4 2.9 2.6-1 5.8-.9 4.6-3.4 5.1-1.2 7.3-1.9 6.5-1.4 3.2 1.3 4.5 3 3-.5 2.7-3.7 2.9-.7 6.3-3.7 1-4.4 4.4-2.6 3.7-2.4 1.4-4.3-.9-2.6 1.7-2.8-1.8-1.8-1.8-2.6-.9v3.2l2.6 3.9 2.6 1.2 3.4 2.4 2.9-.2 2 2.9h3.1s1.3-2.3.6-3c-.7-.7 1.8-1.8 1.8-1.8h2.2l1-1 4.3-1.2 3.4-1.9v-3.6l1.5-1.5 2.6-2.6 2.1-2.1 1-4.1-.9-3.6-.3-3.2 2.3-2.3 2.3-2.3h3.6l3.9-.5 1.1 3.3 1.6 1.6 2 5.3-2.7 2.7.2 4.1v2.6l3.4 3.4 3.9.9v-2.4l-3.8-1.1-1.4-1.4v-2l-.3-3.1 2.7-.9 1-2.2-1-3.2 1.2-2.7-1.7-3.4-2.2-2-1.4-1.4-4.2-1.4-2.4-2.4-2 2-2.6 1.2-1.4-1.9H441l-.5-3.2 2-2-.5-5.4 2.4-3.7 1.5-4.4 3.4-3.4-1.2-3.7-1-3.2.4-3.5-2.5-2.5 2.7-2.7 4.3-4.3h3.6l2-3.2 1.4-3.6-1.2-2.9 1.2-2.6h2.7l-.9 3.6v4.9l-.7 4.4-3.1 3.1v7.4l3.6 2.7 2 1.7 2.6-1.6 2.6 2.6 2.9 2.7v-2l-1.1-2.6-2-2-3.1-1.5v-1.4l-2.6-2.6-1.2-3.7 3.6-2.4 1.7 1.7 2.7 2.7 2-1.9-.7-2.2-.3-2 2-2 3.4.7 2.8-.4 2.3 2.3 4.4 2.4-1.2 3.4 1.1 1.1 3 3h4.6l.7-2.7-1.9-2.6.2-2.4-3.2-1.2-2.4-3.9-1.4-1.4 1-4.1 1.5-3.4-1.4-1.4-.9-4.3 3.4-3.1h8l4.1 1.5v-1h6.6l4.4-1.9h3.2l1.7-1.7-1.7-2.6-2-.7-1.7-1.7 2-2c1.3-1.3 1.3 1.3 1.3 1.3l2-.5-1.4-1.5.9-2.1-1.4-1.4 1.7-2.4 2.4-1.9-2.4-.2-.2-2.6 4.8.2 1.9-3.9 4.7-1.8 1.8-1.8 6.4-.9 1.6-1.6 4.6-1.4 1-1.2-3.1-1 1.7-1.7 4.4-1 3.7-.5.9-1.9 3.1-.5-1.6 3.1v2.5l2.1-2.1 5.3.2.5-2.7 3.4-.7 3.4.7-1.5-2-2-1.5-1-1.9h3.7l3.9-1.2h1.2l-.3-2.9-1.4-1v-4.1l.9-2.7 2.6-6.3 3.1-2.2 2.7-2.9 3.4 2 2.6-.3.8 3.5-2.6 2.6-2.2 2.9 5.4.3 1.1-1.1h3.3l2.5 2.5-2.2 2.2s-.2 2.2.9 2.2c1 0 3.7 1.2 3.7 1.2l.9-2.9-1.5-1.5 3.7-2h3.4l3.5-2.5 2 2 2.6-1.3 2 2 1.7 3.4 2 1.7 1.2-1.4 1.8 1.8 2.3 2.3-.3 3.6-3.4-.7 1.4 1.4 3.4 1.9 2.1 3.7-2 2v3.4l-1.7 2.4-1.6 3.3-2 2-3.4 4.1v1.7l-1 4.8-2.6 2.6-1 5.3-4.1 1-1.3 3.8-2.8 2.8-.7 4.4-.9 3.1 3.1-1.4-.7-3.4 3.1-1.9s2.7-.9 4.3-.9c1.5 0 2-3.1 2-3.1l2.9-2.4 2.7-1 1.6-3.1-1.3-1.3-2-.2.2-1.4-.2-2.7 2.6-.2h2l2.9.7 3.4 1.4.7-2 2.1-3 1.8 1.8v3.4l2 2.9h2.4l-2.4-2.2 1.6-1.6 3.1-3.1 4.3-2.2 6.5-1.2 5.1-1.5 1.3 2-1.2 1.2 2.8 2.8h5.3l.2-1.4.5-1.9 2 3.2 3.6-1.4 3.6-3.1s3.7-.7 4.6-.7 0-3.1 0-3.1l-.5-3.4-2.6-3.9.7-3.9.5-2 2 2 2.1-1.6 1.8 1.8 2.7 1.9.7-2 1.4-.3 1.4 1.5 1.4-1s-.2-3.1 1.1-3.1 1.6-1.6 1.6-1.6l3.7 2.9 1.2-1.2 4.1 1.4-1.4 4.2h2l2 2v3.2l3.2-2 1.7 1.7v3.7l-2.2.7-1.4 1.4 2.4 2.4s1.9-.9 1.9-1.7c0-.9 1.5 1.5 1.5 1.5v2.7l3.5-.1 3.3 3.3 2.6 1.7 3.6.7 1.5-1.5 3.9 2 .3-3.2-1.7-5.6-1-2.6v-2.4l-2.2-2.2v-3.1l4.3.5 2.4 2.4 3.7-1h4.3l-.9-4.4 2.4-4.4 4.4-1 3.2-.2 3.7 1v-2.6l-4-1.8 1.4-1.4 1.9-2 3.2.2 2.6-2.6-1.2-.7-2.6-2.6-2.9-1.5V254l-1.2-1-1.7 4.4-2-1.4v-3.6l3.7-3.4-.5-2.4-3.6-2.2 2.2-2.2h3.2l4.8-2.4 1.4-3.9 6.3-2.4 4.9-2.2s.7.7.7 1.7-3.2 2.2-3.2 2.2l-1.2 4.6 2.9-1.4 2.6-2.6 3.2 1-.9 6.6 2.9-2.7v-3.2l-1-5.4.7-2.4 1.5-4.3 3.6-1.7 5.1-2.2 3.1 2.2s-1.4 2-2.6 3.1 1.2 1.9 1.2 1.9h3.7l2.4-2.7s2.7 2.9 3.2 3.4-.5-3.9-.5-3.9l4.6-2.6 3.2 1.7 3.6-.2 3.2-3.2 3.4-4.3V212l4.3-6.3 3.6-3.6 3.2-3.9 5.6-.9 4.7-.3 2.3 2.3 4.8 4.8 4.3-1.9 3.1-2.5h3.3l-1.6-1.6v-2.4l3.2-3.2v-5.6l1.5-2.9h2.6l2.2-2.2v-3.4l4.3-3.1 1-4.1-1.7-1.7.7-2-2.4-3.4 1.9-3.4 1.8-1.8 3.2 3.2-2.5 2.5 2.6 2.6h3.9l2.7-1 3.7-1.7 3.4-.9.9-2.7-1-2.7-1.9-.3-5.8-2.6-4.3.7-1-2.4h-3.4v-1.9l.9-3.2 3.1-1.5.3-3.6 2.7-1.5h2.4l-1-2.9 1-3.1 3.6-4.1z" transform="matrix(.97915 0 0 .97845 49.018 -58.17)"/><path d="M900.2 459.2l-1.5 1.6v4.3l2.5-1 1.3 1.3 1.5-1.5.6-2.9-1.6-2.4-2.8.6m41-15.2l-1.2.3-.9-2.5v-2.2l3.8 1 1.9.9 1 2.4 2.1 2.1 3.7.7.9 2.4 4.1 2.7h2.2l1.8 2.5 1.5 4 2.3 2.3 4.3 4.5 2.8.7 3.8 1.5 3.7 3.2 5 2.8 3.2 2.8 4.3 2.2 3.7 2.2 2.4 1.9 4.1 1.6-.6 1.9-1.5 1.5-2.8.9h-2.2l.6 3.1-.6 2.2v1.8l2.5 3.8s2.4 2.6 1.9 3.1c-.4.4.1 4.6.1 4.6l1.9 1.9 2.9 2.9 2.5 1.6h3.8l2.2 2.2h2.5l1.3 2.8 3.2.1 2-2 3.5 2 2.1 2.7s.7 1.8 0 1.8-4.7-1.9-4.7-1.9l-1.7 1.7h-3.8l-1.2 3 .7 2.9 2.4 2.4 1.8 3.8-2.4 1.9-1.9-2.4-2.5-2.5-4.4-4.1v-2.8l-2.9-2.9-2.8-2.8-1.9-2.5-2.4-4.6-2.9-2.8-3.1-1.8-2.9-.9-2.5-5.3-5.4-7.5-4.4-4.4-3.7-3.7-3.2-4.4-2.1-3.4-5.6-2.5-4.4-1.9-2.7-.3-3.5-4.9v-2.2l-3.8-3.8-2.1-3.8-4.1-1.3 1-2.9V452l3.4 1 .6-2.9-2-2V447l-2-2-2.7-1zm124.4 76.9l.6 3.1.3 2.9 1.2.4V525l.9-1.9v-2.6l-3 .4m10.1 1.7v1.3l1.9 1v-2.2l-1.9-.1m-6-11.9l1.8.7.6-2.4-.9-4.7 1.6-1.6-.3-3.4-2.5-.7-.7 3.8 1 1-.8 2.9.2 4.4m4.4-19.4l-.7.7.6 2.5 1.2-1.8-1.1-1.4m1.8-9l.7-3.8-1-2.4.6-2.5 2-2 .5 2.7-.4 2.8.6 3.2-1 2.4-2-.4m-83.8-222.9v3.2l-.3 2.9 1.8 1.2 1.2 1.5.1 2.6 2.4.9-.6-2.6-1-2.1 1-3.4v-4.1l-2.8-1.2-1.8 1.1m57.3 15.4l-2.1.7 1 2.2h7l2.2-2.2-2.8-.9-2.8 1.2-2.5-1m10.2 108.6l-.9 2.6-1.4 1.4 1.6 1.6.9 2-.3 2.7-.2 3.4 1.5 1.5 1.7-1v-3.5l1.6-1.5-1.3-3-2.1-2.1.2-2.6-1.3-1.5m6.3 22.9v2.2l1.5.7 1-1.3-2.5-1.6m11.9 43.2v5.8h2.1l-.6-2.5v-3.5l-1.5.2m-15.9-182.3l-1.9 1.3 1 1 1.4-1.4 1.4-1.4-1.9.5M867.1 90.1l-1.4-.5-1.2 1.2-2.6 1.4-2.1 2.1.2 3.6-.9.9.5 2.9 1.7 2.5 1.7 4.1 2.7.6 1.8-1.8 1.4-2.5-1.5-1.6 2.3-3.3-.4-3.5V92l-2.2-1.9M23 323.8l2.6.6 2.3-.6.9-1.7 2.1.3 1.9 1.9.1 2.6 1.6.5.3 2.1 2.4.4.5-1.9-1.3-1.3 1.1-1.1.7.7 2.3 1.9v2.9l-.3 2.5 1.4 2.2 1.4.9.5 3.3-1.2 2.5-5.7 2.9-8.6-10.2-5-11.4" transform="matrix(.97915 0 0 .97845 49.018 -58.17)"/></g></svg>