<svg xmlns="http://www.w3.org/2000/svg" viewBox="0 0 512.17 512.17" width="512" height="512"><g fill="#ffca28"><path d="M281.642 229.633l-8.533 85.333a8.577 8.577 0 0 0 2.167 6.579 8.559 8.559 0 0 0 6.332 2.807h136.533c.06.009.119 0 .162 0a8.53 8.53 0 0 0 8.533-8.533 8.91 8.91 0 0 0-.375-2.534l-8.363-83.652a8.534 8.534 0 0 0-8.491-7.68H290.141c-4.386 0-8.064 3.319-8.499 7.68zm16.222 9.386h104.013l6.827 68.267H291.037l6.827-68.267zm-.606-119.466l-22.972 38.272a8.533 8.533 0 0 0 1.289 10.428c2.756 2.773 7.066 3.277 10.419 1.28l38.281-22.963 38.272 22.963a8.527 8.527 0 0 0 10.428-1.28 8.544 8.544 0 0 0 1.28-10.428l-22.963-38.272 22.963-38.281a8.531 8.531 0 0 0-1.28-10.419 8.526 8.526 0 0 0-10.428-1.289l-38.272 22.972-38.281-22.972c-3.354-2.005-7.654-1.493-10.419 1.289a8.523 8.523 0 0 0-1.289 10.419l22.972 38.281zm17.263-4.395l-8.038-13.397 13.397 8.038a8.495 8.495 0 0 0 8.781 0l13.406-8.038-8.047 13.397a8.536 8.536 0 0 0 0 8.781l8.047 13.397-13.406-8.038a8.521 8.521 0 0 0-4.386-1.212 8.532 8.532 0 0 0-4.395 1.212l-13.397 8.038 8.038-13.397a8.536 8.536 0 0 0 0-8.781zm9.711 233.941a8.534 8.534 0 0 0-8.491-7.68H196.274c-4.386 0-8.064 3.319-8.499 7.68l-8.533 85.333a8.577 8.577 0 0 0 2.167 6.579 8.559 8.559 0 0 0 6.332 2.807h136.533c.06.009.128 0 .162 0a8.53 8.53 0 0 0 8.533-8.533 8.91 8.91 0 0 0-.375-2.534l-8.362-83.652zM197.17 426.753l6.827-68.267H308.01l6.827 68.267H197.17z"/><path d="M187.741 204.886h136.533a8.554 8.554 0 0 0 6.323-2.807 8.573 8.573 0 0 0 2.167-6.579l-1.698-16.879c-.461-4.685-4.574-8.073-9.335-7.637-4.693.469-8.107 4.651-7.646 9.335l.751 7.501H197.17l6.827-68.267h61.252a8.536 8.536 0 0 0 8.533-8.533 8.53 8.53 0 0 0-8.533-8.533h-68.975c-4.386 0-8.064 3.319-8.499 7.68l-8.533 85.333a8.577 8.577 0 0 0 2.167 6.579 8.56 8.56 0 0 0 6.332 2.807zm-42.709 144.213a8.534 8.534 0 0 0-8.491-7.68H17.074c-4.386 0-8.064 3.319-8.499 7.68L.042 434.432a8.577 8.577 0 0 0 2.167 6.579 8.559 8.559 0 0 0 6.332 2.807h136.533c.06.009.128 0 .162 0a8.53 8.53 0 0 0 8.533-8.533 8.91 8.91 0 0 0-.375-2.534l-8.362-83.652zM17.97 426.753l6.827-68.267H128.81l6.827 68.267H17.97zm493.824 5.999l-8.363-83.652a8.534 8.534 0 0 0-8.491-7.68H375.474c-4.386 0-8.064 3.319-8.499 7.68l-8.533 85.333a8.577 8.577 0 0 0 2.167 6.579 8.559 8.559 0 0 0 6.332 2.807h136.533c.06.009.128 0 .162 0a8.53 8.53 0 0 0 8.533-8.533 8.84 8.84 0 0 0-.375-2.534zm-135.424-5.999l6.827-68.267H487.21l6.827 68.267H376.37zm-282.496-102.4h136.533c.06.009.119 0 .162 0a8.53 8.53 0 0 0 8.533-8.533 8.91 8.91 0 0 0-.375-2.534l-8.363-83.652a8.534 8.534 0 0 0-8.491-7.68H102.408c-4.386 0-8.064 3.319-8.499 7.68l-8.533 85.333a8.577 8.577 0 0 0 2.167 6.579 8.557 8.557 0 0 0 6.331 2.807zm16.256-85.334h104.013l6.827 68.267H103.304l6.826-68.267z"/></g></svg>