<svg xmlns="http://www.w3.org/2000/svg" viewBox="272 159.3 485.3 271"><path fill="#3AB54B" d="M409 401.5l-3.6-.2-.6-3h-1.4l.2-4-3.2-2.6-4.7.3-3.4.5-2.8-3.6-2.2-1.4-4.4-2.8-.4-.3-6.9 2.2.1 14.2-1.8.2-2-3-1.8-1-3 .8-1.6 1.5-.2-1.4.7-1.6-.5-1.1-3.2-1.3-1.3-3.5-1.6-1-.1-1.7 2.7.4.1-2.8 2.7-.7 2.2.5.5-3.6-.5-2.2-2.6.1-2.3-.9-3.2 1.7-2.7.9-1.7-.8.3-2.2-1.7-2.5-2 .1-2.6-3.1 1.6-3.2-.8-.8 2.4-5.3 2.8 2.5.3-2.8 5.9-5 4.6-.1 6.2 3.1 3.2 1.7 2.9-1.8 4.6-.1 3.5 2.2.7-1.2 3.9.2.6-1.8-4.7-3.2 2.8-2.3-.5-1.3 2.6-1.2-1.9-3.1 1.4-1.8 10.5-1.7 1.4-1.2 7-1.8 2.6-2 5.3 1.1.9 4.9 2.7-1.1 3.9 1.7-.2 2.5 2.3-.3 8-5.1-1.6 2.4 3.4 3.5 6.1 11.2 1.4-2.1 4 2.6 4-1.1 1.7.8 1.4 2.6 1.9.8 1.2 1.8 3.6-.6 1.6 2.9-2.2 3.1-2.3.4-.1 4-1.7 2.1-5.5-1.4-2 7.2-1.5.9-5.4 1.5 2.6 6.7-2 1.1.2 2.3-2.1-.7-1.4-1.3-4.1-.4-4.6-.1-1 .4-4-1.6-1.4.7-.4 2.4-4.9-1.3-1.6.4-.6 1.7-1.7.7-3.6 2.6-1.3 2.7h-1.4z"/><path fill="#FFF" d="M412.2 340.8l5 1.1.9 5 2.9-1.2 3.6 1.6-.2 2.6 2.7-.3 7-4.5-1 1.5 3.6 3.7 6.3 11.6 1.5-2.3 3.9 2.6 4-1.1 1.5.8 1.3 2.5 2 .8 1.2 1.8 3.6-.6 1.5 2.6-2.1 2.8-2.3.4-.1 4.2-1.6 1.9-5.6-1.4-2 7.3-1.4.9-5.5 1.6 2.5 6.8-1.9 1 .2 2.2-1.7-.5-1.4-1.4-4.2-.4-4.7-.1-1 .4-4-1.6-1.6.8-.4 2.2-4.6-1.3-1.8.5-.6 1.7-1.6.7-3.7 2.6-1.2 2.7h-1l-.8-1.8-3.6-.1-.8-3.1h-1.4l.2-3.8-3.3-2.8-4.8.3-3.3.6-2.7-3.5-2.3-1.5-4.3-2.8-.5-.4-7.2 2.4.1 14.1-1.4.2-2-2.9-1.9-1.1-3.2.8-1.2 1.3-.2-.9.7-1.6-.5-1.3-3.3-1.3-1.3-3.5-1.5-1-.1-1.3 2.7.4.1-2.9 2.4-.6 2.5.6.5-3.9-.5-2.5-2.8.2-2.4-1-3.3 1.8-2.6.9-1.4-.7.3-2.1-1.8-2.8-2.1.1-2.4-2.8 1.6-3.2-.8-.9 2.2-4.8 2.9 2.5.3-3.2 5.8-4.9 4.4-.1 6.2 3.1 3.3 1.8 3-1.9 4.4-.1 3.6 2.3.8-1.3 3.9.2.7-2.1-4.5-3.1 2.7-2.2-.5-1.3 2.7-1.2-2-3.2 1.3-1.6 10.5-1.7 1.4-1.2 7-1.8 2.5-2m-.2-.5l-.2.1-2.4 2-6.9 1.8h-.1l-.1.1-1.3 1.1-10.3 1.6h-.2l-.1.2-1.3 1.6-.2.3.2.3 1.7 2.7-2.2 1-.4.2.2.4.4.9-2.4 2-.5.4.6.4 4.2 2.9-.5 1.4-3.6-.2h-.3l-.2.2-.6.9-3.2-2-.1-.1h-.2l-4.4.1h-.1l-.1.1-2.7 1.7-3.1-1.7-6.2-3.1-.1-.1h-.1l-4.4.1h-.2l-.1.1-5.8 4.9-.2.1v.2l-.2 2.2-2.2-1.9-.5-.4-.3.6-2.2 4.8-.1.3.2.2.6.6-1.5 2.9-.1.3.2.3 2.4 2.8.2.2h.2l1.8-.1 1.5 2.4-.3 1.9-.1.4.3.2 1.4.7.2.1.2-.1 2.6-.9 3-1.7 2.2.9h.2l2.4-.2.4 2-.4 3.3-1.9-.5h-.2l-2.4.6-.4.1v.4l-.1 2.3-2.2-.3-.6-.1v.6l.1 1.3v.2l.2.1 1.4.9 1.2 3.3.1.2.2.1 3.1 1.2.4.9-.6 1.4-.1.1v.1l.2.9.2 1 .7-.7 1.1-1.2 2.9-.7 1.6.9 1.9 2.8.2.3h.3l1.4-.2.4-.1v-.4l-.1-13.8 6.6-2.2.3.2 4.4 2.8 2.2 1.4 2.6 3.4.2.2.3-.1 3.3-.6 4.6-.3 3 2.5-.2 3.5v.5h1.5l.5 2.7.1.4h.4l3.3.1.6 1.5.1.3h1.6l.1-.3 1.2-2.5 3.5-2.5 1.6-.7.2-.1.1-.2.5-1.4 1.5-.4 4.5 1.3.5.1.1-.5.4-2 1.2-.6 3.8 1.5.2.1.2-.1.9-.4 4.5.1 3.9.4 1.3 1.2.1.1h.1l1.7.5.7.2-.1-.8-.2-1.8 1.6-.8.4-.2-.2-.4-2.3-6.2 5-1.4h.2l1.4-.9.2-.1.1-.2 1.9-6.8 5.1 1.2.3.1.2-.2 1.6-1.9.1-.1v-.2l.1-3.8 1.9-.3h.2l.1-.2 2.1-2.8.2-.3-.2-.3-1.5-2.6-.2-.3-.3.1-3.3.5-1-1.6-.1-.1-.1-.1-1.8-.8-1.3-2.4-.1-.1-.1-.1-1.5-.8-.2-.1-.2.1-3.8 1.1-3.7-2.4-.4-.3-.3.4-1 1.6-5.9-10.8v-.2l-3.3-3.4.8-1.2 1.4-2-2.1 1.3-6.9 4.4-2 .2.2-2v-.4l-.3-.1-3.6-1.6-.2-.1-.2.1-2.4.9-.8-4.4-.1-.3-.3-.1-5-1.1.1.9z"/><path fill="#3AB54B" d="M346.5 407.9v-.3h-1.1l-.8-1-.6.1-1.2-1.1-2.2-1 .3-1.9-.5-1.5 4.3-.7.7 1.1 1.2.7-.6 1 1.5 1.3-.8 1.1 1 .9 1.4.6.1 2.9-1.5.1z"/><path fill="#FFF" d="M344.6 400.8l.6 1 1.1.6-.6.9 1.5 1.3-.8 1.2 1.2 1 1.3.6.1 2.5-1 .1-1.1-2.1v-.5h-1.2l-.8-1-.6.1-1.1-1.1-2.1-.9.3-1.8-.5-1.3 3.7-.6m.3-.5h-.3l-3.9.6-.7.1.2.6.4 1.2-.3 1.7-.1.4.4.2 2 .9 1 1 .2.2h.2l.3-.1.6.8.2.2h.9v.1l.1.1 1.1 2.1.2.3h.3l1-.1h.5v-.5l-.1-2.5v-.3l-.3-.1-1.2-.6-.8-.7.5-.8.3-.4-.3-.3-1.2-1 .3-.6.3-.4-.4-.3-1-.6-.5-.9.1-.3z"/><path fill="#3AB54B" d="M352.8 409.8l1-1.8-.6-.8-.8.2-3.7 2.9-.1-2.9-1.1-.5-1.4-1.2.8-1.2-1.5-1.3.5-.9-.9-.3-.7-1.2 1-.9 2.2 1.1 1.3.2.2-.2-1.4-2.1 1-.7 1 .2 1.9 2.3 1 .2.4-.8 1.9-1.8 1.6 2.2 1.4 2.5 1.3.2 1.2 1.4-2.6.3-.5 2.6-.5 1.4-1 .8.1 1.8-1 .3-2-2zm-7-.1l-1.5-1.7-.5-1.5-.1-.3 1-.2.8 1h1.4v.8l1.4 2.5-2.5-.6z"/><path fill="#FFF" d="M348.6 398.5l.8.1 1.9 2.3 1.2.3.5-1 1.7-1.5 1.5 2 1.4 2.6 1.3.2.9 1-2.3.3-.5 2.8-.5 1.3-1 .8.1 1.8-.7.2-1.8-1.9 1-1.8-.8-1.1-1 .3-3.3 2.7-.1-2.5-1.3-.6-1.2-1 .8-1.2-1.5-1.3.6-.9-1.1-.6-.6-1 .7-.6 2.1 1.1 1.5.2.4-.4-1.4-2 .7-.6m-3.9 7.8l.8 1h1.2v.6l1.1 2.1-1.9-.5-1.4-1.7-.4-1.4.6-.1m10.1-8.3l-.4.4-1.7 1.5-.1.1v.1l-.3.6-.7-.1-1.8-2.1-.1-.1h-.2l-.8-.1h-.2l-.2.1-.7.5-.4.3.3.4 1.1 1.6-1-.2-2-1-.3-.2-.3.2-.7.6-.3.3.2.4.6 1 .1.1.1.1.6.4-.3.5-.2.4.3.3 1.1 1-.5.8-.3.4.3.3.8.7h-1.1l-.7-.8-.2-.2h-.3l-.6.1-.6.1.2.6.4 1.4v.1l.1.1 1.4 1.7.1.1h.2l1.9.5.6.2v.3l.3-.2.2.1-.1-.1.4-.3 3.2-2.6.6-.2.4.5-.8 1.5-.2.3.2.3 1.8 1.9.2.2.3-.1.7-.2.4-.1v-.4l-.1-1.5.8-.7.1-.1v-.1l.5-1.3.4-2.5 1.9-.2.9-.1-.6-.7-.9-1-.1-.1h-.2l-1.1-.1-1.3-2.4-1.5-2 .2-1.3zm-7.6 9.7v-.6h.1l1 .5.1 2.2-.1-.1-1.1-2z"/><path fill="#3AB54B" d="M303 359.7l-2.6.3-.7-1-.9.7-1.2-.7-2.1-.1-3.2-1.1-2.8-.3-2.1.1-1.5 1.2-1.7.2v-2.3l-1-2.2 1.8-1v-1.6l-.8-1.8-.1-2.4h2.9l2.9-1.7.6-2.7 2.3-1.5-.3-2.2 1.9-1 3.1-1.9 3.2 1.3.3 1.1 1.3-.5 3 1.2.3 2.6-.6 1.2 1.7 3 1.2 1-.1.8 1.7.8 1 1.4-1.3 1.3-2.3-.2-.3.3.6 1.3.7 3.3-2.6.3-.7.8-.2 2.6z"/><path fill="#FFF" d="M297.5 336.9l3 1.3.4 1.2 1.5-.6 2.7 1.2.3 2.3-.6 1.3 1.8 3.2 1.1.9-.2.9 1.9.8.8 1.3-1.1 1-2.3-.2-.5.4.7 1.5.7 2.9-2.4.3-.9 1-.2 2.3-1.1-.4-2.5.2-.7-1-1 .8-1-.6-2.2-.1-3.1-1.1-2.8-.4-2.2.1-1.5 1.2-1.3.2v-2l-.9-2.1 1.7-.9V352l-.8-1.8-.1-2.1h2.7l3-1.8.7-2.7 2.3-1.6-.3-2.2 1.7-.8 2.7-2.1m0-.5l-.2.1-3 1.9-1.7.8-.3.2v.4l.2 1.9-2 1.4-.2.1v.2l-.6 2.5-2.7 1.6h-3.1v.5l.1 2.1v.2l.7 1.7v1.5l-1.4.8-.4.2.2.4.8 2v2.5l.5-.1 1.3-.2h.1l.1-.1 1.4-1.1 2-.1 2.7.3 3.1 1.1h.2l2.1.1.9.6.3.2.3-.2.6-.5.4.6.2.2h.3l2.4-.2 1 .4.6.2.1-.7.2-2.1.6-.7 2.2-.2.6-.1-.1-.5-.7-2.9-.5-1.2.1-.1 2.1.1h.2l.2-.1 1.1-1 .3-.3-.2-.4-.8-1.3-.1-.1-.1-.1-1.5-.7.1-.5.1-.3-.2-.2-1.1-.8-1.6-2.8.5-1.1.1-.1v-.1l-.3-2.3v-.3l-.3-.1-2.7-1.2-.2-.1-.2.1-1 .4-.2-.7-.1-.2-.2-.1-2.9-1.3-.4-.1z"/><path fill="#3AB54B" d="M347.3 401.5l-2-1-.6.5-4.1.6-2.7-1.8-3.2.2.5-1.9-.7-2.4-1.5-1.3-1.6-.5-1.2-1.3.6-.8 2.5.7 4.1.6 4 1.9.4.6 1.6-.6 2.8.9.8 1.6 2.1 1-.9.6 1.4 2-.6.7z"/><path fill="#FFF" d="M330.9 392.1l2.4.7 4.1.6 3.8 1.8.5.7 1.7-.6 2.6.8.8 1.5 1.8.9-.7.5 1.4 2-.4.4-1.5-.2-2.1-1.1-.7.6-3.9.6-2.7-1.8-3 .2.4-1.6-.7-2.6-1.6-1.4-1.5-.4-1-1.2.3-.4m-.2-.6l-.2.3-.3.5-.2.3.3.3 1 1.2.1.1h.1l1.4.4 1.4 1.2.6 2.3-.4 1.5-.2.7h.7l2.8-.2 2.6 1.7.2.1h.2l3.9-.6h.1l.1-.1.4-.4 1.8.9h.2l1.5.2h.3l.2-.2.4-.4.3-.3-.2-.3-1.1-1.6.3-.2.7-.5-.8-.4-1.6-.8-.8-1.4-.1-.2-.2-.1-2.6-.8h-.2l-.2.1-1.3.5-.3-.4-.1-.1-.1-.1-3.8-1.8h-.2l-4.1-.6-2.3-.7-.3-.1z"/><path fill="#3AB54B" d="M406.5 415.1h-1.7v-2.3l-3.5-1.4-3-1.8-1.9-1.7-3.2-2.5-1.4-3.8-.8-.6-3 .2-1.3-.9-.3-3-3.5-1.8-2.2 2-2.3 1.3.5 2h-3.7l-.1-14.5 7.5-2.5.6.4 4.3 2.9 2.3 1.5 2.7 3.4 3.1-.5 5-.3 3.5 2.9-.2 3.7h1.3l.6 3.1 3.5.1.8 1.7h.7l1.2-2.6 3.7-2.6 1.8-.8 1.2.6-2.4 2.5 1.7 1.1 2-.9 3.8 2.2-4 2.9-2.2-.4-1.3.2-.5-1.3.5-1.4-3.2.7-.9 2.3-1.4 2.2-2.3-.2-.6 1.2 2 .8.6 2.9-1.7 3.8z"/><path fill="#FFF" d="M382.5 384.1l.5.4 4.3 2.8 2.3 1.5 2.7 3.5 3.3-.6 4.8-.3 3.3 2.8-.2 3.8h1.4l.6 3.1 3.6.1.8 1.8h1l1.2-2.7 3.7-2.6 1.6-.7.8.4-2.3 2.4 2.1 1.4 2-.9 3.3 2-3.6 2.6-2.1-.4-1.2.1-.4-1 .6-1.7-3.8.9-.9 2.3-1.3 2-2.3-.2-.7 1.6 2.1.9.6 2.7-1.6 3.6-2.1-.7H405l.1-2.2-3.7-1.5-2.9-1.8-1.8-1.7-3.2-2.5-1.4-3.8-.9-.7-3 .2-1.1-.8-.3-3-3.8-2-2.4 2.2-2.4 1.3.5 1.9h-3.2l-.1-14.1 7.1-2.4m.1-.5l-.2.1-7.2 2.4-.3.1v.4l.1 14.1v.5h4.3l-.1-.6-.4-1.5 2.1-1.1h.1l2.1-2 3.2 1.7.3 2.7v.2l.2.1 1.1.8.1.1h.2l2.9-.2.7.5 1.3 3.6v.1l.1.1 3.2 2.5 1.8 1.7 2.9 1.8 3.4 1.4-.1 1.8v.5h2l2 .7.4.2.2-.4 1.6-3.6.1-.2v-.2l-.6-2.7-.1-.3-.2-.1-1.6-.7.4-.8 2 .1h.3l.2-.2 1.3-2v-.1l.8-2.1 2.6-.6-.3.9-.1.2.1.2.4 1 .1.3h.4l1.1-.1 2.1.3h.2l.2-.1 3.6-2.6.6-.4-.7-.4-3.3-2-.2-.1-.2.1-1.7.8-1.3-.9 1.9-2 .5-.5-.7-.3-.8-.4-.2-.1-.2.1-1.6.7-3.7 2.6-.1.1-.1.1-1.1 2.4h-.4l-.6-1.4-.1-.3h-.3l-3.2-.1-.5-2.7-.1-.4h-1.3l.2-3.3v-.3l-.2-.2-3.3-2.8-.2-.1h-.2l-4.8.3-3 .5-2.5-3.3-.1-.1h-.1l-2.3-1.5-4.3-2.8-.5-.3-.3.1z"/><path fill="#3AB54B" d="M416.3 407.1l-3.3.3.3-2.7 3.2.7 1-1.2 2.2.4 3.2-2.4-2.9-1.7-2 1-2.4-1.7 2.3-2.4-.7-.3.7-2 2-.6 4.5 1.3.4-2.1 1.8-.9 4 1.6 1-.4 4.7.1 4.2.4 1.4 1.4 2 .6-.6 1.2-4.4 2.1-1 1.5-3.6.4-1.1 2.4-3.1-.5-1.8.7-2.5 1.6.4.8-1 1-5.4.6z"/><path fill="#FFF" d="M426.6 393.1l4 1.6 1-.4 4.7.1 4.2.4 1.4 1.4 1.7.5-.4.9-4.4 2-1 1.5-3.6.4-1.1 2.3-3-.5-1.9.7-2.7 1.7.4.9-.8.8-5.3.5-3.5-1.2-3 .3.3-2.1 3 .6 1-1.1 2.1.4 3.6-2.6-3.3-2-2 .9-2.1-1.4 2.3-2.4-.8-.4.6-1.7 1.8-.5 4.6 1.3.4-2.2 1.8-.7m0-.6l-.2.1-1.6.8-.2.1v.2l-.3 1.7-4.1-1.2h-.2l-1.8.5-.2.1-.1.2-.6 1.7-.2.4.4.2.2.1-1.9 1.9-.4.4.5.3 2.1 1.4.2.2.3-.1 1.8-.8 2.4 1.4-2.8 2.1-1.9-.3h-.3l-.2.2-.8.9-2.8-.6-.5-.1-.4.7-.3 2.1-.1.6.6-.1 2.9-.3 3.4 1.1h.2l5.3-.5h.2l.1-.1.8-.8.2-.2-.1-.3-.2-.5 2.3-1.5 1.8-.7 2.8.5.4.1.2-.4.9-2.1 3.3-.4h.2l.1-.2.9-1.4 4.3-2 .2-.1.1-.2.4-.9.2-.5-.5-.2-1.6-.5-1.3-1.3-.1-.1h-.2l-4.2-.4-4.7-.1h-.2l-.8.3-3.8-1.5-.1.1z"/><path fill="#3AB54B" d="M351.2 400.6l-1.9-2.3-.7-.1-1.9-.9-.8-1.5-2.4-.7-1.8.6-.6-.8-3.8-1.8-4.1-.6-2.2-.6-.4.5-3.8-3.5-3.1-1.4-2.8-2.7 2.4-.7 2.2-3.1-1.7-1.7 4.3-1.7v-.4l-2.6.7.1-2.3 1.6-1.3 2.6-.3.4-1.2-.6-2.4 1.2-2.3v-1l-4-1.4-1.7.1-1.7-2-2.1.7-3.8-1.6.1-1-.9-1.7-2.3-.2-.3-1.7.7-.9-1.8-2.4-2.8.4-.7-.2-.7 1-1.4-.2-.7-3.1-.7-1.7.8-.6 2.3.2.9-.8-.7-1-2-.9.2-.9-1.1-.8-1.8-3.3.6-1.4-.2-2.1-2.5-1.1-1.6.7-.4-1.4-3-1.3-.9-3.1-.2-2.4-1.4-1.3 1.3-1.8-.8-5 2-3.1-.4-1 3.1-3-2.9-2.7 6.1-7.6 2.6-3.4 1-2.9-4.1-4.3 1.2-4.2-2.5-4.9 1.9-5.8-3.3-8 2.6-5.4-4.3-4.9.4-5.7 2.4-.8 4.7-3.2 3-3 4.7 5 7.7 1.9 10.6 8.7 2.2 3.6.2 5-3.2 3.8-4.7 1.9-12.5-5.3-1.6.7 4.4 4.9.2 3.2.2 6.6 3.5 1.9 1.9 1.4.3-2.6-1.7-2.9 2-2.8 6.8 4.1 2.1-1.4-1.9-4.8 6.7-6.9 2.8.4 2.4 2.2 1.5-4.3-2.3-4.3 1.4-4.4-2.2-5.1 8.5 2.6 1.7 4.6-3.6.9v3.7l2 2.2 4-1.4.7-4.6 6-3.6 9.9-6.6 2.6.5-2.8 4.7 3 .7 2-2.5 5.3-.2 4.3-3.3 3.1 4.5 2.9-4.6-2.9-4.6 1.6-3 8.5 2.5 3.9 2.5 9.9 8.6 1.7-3.5-2.8-4.1-.1-1.6-3.4-.8 1-4-1.5-6.4-.1-2.9 5.2-8.1 1.8-8.4 2.2-2 7.7 2.6.6 5.4-2.6 7.2 1.7 2.7.9 6-.6 11 3.1 4.8-1.2 5.1-5.4 10 2.7.9 1.1-2.4 3.1-1.8.7-3.4 2.4-3.5-1.6-4.2 1.3-4.9-3-.6-.7-4.6 2.2-8.2-3.7-7.1 5.1-6.1-.7-6.8 1.9-.3 1.5 5.5-1.1 8.5 2.4 1.3-1.2-6 4.9-3.7 6-.5 4.5 4.5-2.2-6.6-.3-10.5 5.1-2.1 6.8.4 5.7-1.3-2.2-5.2 3.4-7.3 3.3-.3 5.4-5.5 7.3-1.5.9-3.2 7.7-1.1 2.2 2.5 6.2-6.1 5 .2.7-5 2.7-5.5 6.8-5.5 5.2 4.5-3.7 3 6.1 1.8.7 5.6 2.3-2.6 8.4.2 6.4 5.9 2.3 4.5-.7 6-3.2 3.3-7.4 5.9-1.9 2.8 3.2 1.3 4 2.5 2.7-2 1.4 6.1 1-2 4.6-1.6 9.2 1.7.7 4.6 11.3 1.4.2-7.5 6.3 1.8 4.5-.1 4.6 5.3 1.3 6.2-1.6 3.8 3.4 6.8 4.1 3.2 2.7-9.2 4.7 4.1 4.7-2.4 5.4 2.7 2-2.4 4.3 1.2-2-8.1 3.9-4.3 25.6 6.1 2.4 5.4 7.2 6.5 11.2-1.6 5.8 1.4 2.4 3.6-.3 6 3.2 2.1 3.6-1.6 5.1-.2 5.3 1.6 5.4-.9 4.8 6.9 3.1-2.2-2.2-5 1.4-3.9 9.2 2.3 5.8-.5 8.1 3.9 4 3.5 6.9 5.9 7.4 7.4-.2 4.4 1.3 1.2-.6-4.8 8 1.1 5.8 6.8-3 3.2-4.5.7-.1 6.3-1.3 1.5-2.9-.2-2.2-2.3-3.8-1.9-.6-2.9-2.6-1-3.3.9-1.7-2.6.5-2.1-2.7 1.3 1.2 3.1-1.7 3-.1.1-3.7 3-3.2-.4 2.2 3 1.7 5.3 1.3 1.6.3 2.7-.8 1.9-5.3-1.3-7.8 4.5-2.5.7-4.2 4.1-4 3.5-1.1 2.8-4.1-4-7.4 4.4-1.3-2-2.6 2.3-3.6-.7-.8 3.4-3.3 5.2.1 1.9 3.2 1.2-.4 7.9-2.6.2-1.1 3.9 1.2 2.2-5 2.5-1 5.4-4.2 1.1-.8 4.6-4.4 4.5-1.2-3.5-1.2-6.7-1.6-10.7 1.4-7.1 2.4-3.1.2-2.5 4.4-1.2 5-6.7 4.8-5.7 5-4.5 2.1-7.9-2.9.4-1.7 4.8-7.4 6.7-2.3-7.3-6.9 1.9-6.9 9.3 2.4 3.5-6.6 1.5-4.7.6.2-4-4-.8-3.5 2.7-8.7-1-9.1 1.6-9 10.3-10.4 11.4 4.1.6 1.4 3 2.4.9 1.8-2.3 3.3.3 4.2 5.3.1 4.1-2.2 4.5-.2 5.2-1.3 6.9-4.3 6.1-.9 2.8-3.9 4.7-3.8 4.5-1.8 2.3-3.9 2.3-1.9.1-1.7-1.8-3.5 2.6-.6 1.7-.7-1.2v-2.2l1.5-.1.4-4.3-.8-3.5 2.7-1.5 3.3.7 1.8-3.7 1-4.5 1.1-1.6 1.3-3.2-4.2 1.1-2.4 1.7H586l-1.2-4.1-3.2-2.9-5-1.4-1.1-4.4-1-2.7-1-1.9-1.7-4.6-2.4-1.7-4.1-1.4-3.6.1-3.4.8-2.1 2.1 1.4 1v2.8l-1.6 1.5-2.4 4.6v2l-4.2 2.9-3.4-1.7-3.4.4-1.5-1.5-1.5-.4-4.1 3-3.7.7-2.6 1.1-3.6-.7h-2.7l-1.8-2.3-2.7-2-2.8-.6-3.5.6-2.7.8-4.2-1.9-.5-3.3-3.2-1.1-2.5-.5-3-1.8-2.7 4.3 1.2 2.6-2.9 3.3-4.2-1.1-2.8-.2-1.9-2-2.9-.1-2.4-1.3-4.1 2-5.3 3.7-3 .8-1.3.4-1.5-2.7-3.6.6-1.2-1.9-2-.9-1.4-2.6-1.4-.7-4 1.1-3.7-2.5-1.6 2.5-6.5-12-3.7-3.8.4-.7-6 3.9-3 .3.2-2.7-3.3-1.5-3.1 1.2-.9-5.1-4.8-1-2.5 2-7 1.8-1.4 1.2-10.5 1.7-1.1 1.4 2.1 3.3-2.7 1.2.5 1.2-2.6 2.1 4.4 3-.8 2.5-4-.2-.9 1.4-3.7-2.4-4.3.1-3 1.9-3.4-1.9-6.1-3.1-4.2.1-5.6 4.7-.4 3.6-3-2.6-2 4.3.8.9-1.6 3.2 2.2 2.6 2.1-.1 1.9 3-.3 2 1.5.7-1.5 2.7-2.7.7-2.6 3.9 2.5 3.6-.3 2.6 3.1 4.6-1.8 1.7-.5 1-2 .3zm17.6-157.8l-.8-3.9-5.1-2.4-.4-5.1 2.9-2-.1-5 5.4-8.1-2.6-1.2 6.8-9.2-.8-4.9 6.4-5.9 9.3-7.5 9.3-2.2 4.8-4.5 5.7-1.7 2.1 5.1-2 3.9-10 5.8-8.6 5.3-8.7 10.1-4.1 9.8-4.4 9.1.6 7.4 5.5 7.3-2 .9-9.2-1.1z"/><path fill="#FFF" d="M511.1 169.9l4.8 4.2-3.8 3.1 6.3 1.9.8 6 2.6-2.9 8.2.2 6.3 5.8 2.3 4.4-.7 5.8-3.1 3.2-7.4 5.9-2.1 3.1 3.5 1.4 4.2 2.6 2.5-1.9 1.4 6.4 1.2-2.6 4.5-1.6 9 1.7.7 4.6 11.7 1.4.2-7.5 6 1.7 4.5-.1 4.5 5.1 1.3 6-1.7 3.8 3.5 7 4.4 3.5 2.7-9.2 4.5 4 4.8-2.4 5.4 2.7 2.1-2.5 4.6 1.2-2-8.4 3.7-4.1 25.3 6.1 2.4 5.4 7.3 6.6 11.3-1.6 5.6 1.4 2.3 3.5-.3 6 3.5 2.3 3.8-1.6 5-.2 5.3 1.6 5.3-.9 4.9 7 3.5-2.5-2.3-5.1 1.3-3.6 9 2.3 5.8-.5 8.1 3.8 3.9 3.4 6.9 5.9 7.3 7.3-.2 4.4 1.9 1.7-.7-5.1 7.6 1.1 5.5 6.5-2.8 3-4.6.7-.1 6.5-1.1 1.3-2.6-.2-2.1-2.3-3.7-1.9-.6-2.9-2.8-1.1-3.2.9-1.5-2.4.6-2.5-3.4 1.6 1.3 3.2-1.6 2.8-3.6 2.9-3.6-.5 2.5 3.4 1.7 5.2 1.3 1.7.3 2.5-.7 1.6-5.2-1.3-7.8 4.5-2.5.7-4.3 4.1-4.1 3.5-1 2.5-4-3.9-7.3 4.4-1.3-2.1-2.7 2.4-3.8-.8-.9 3.6-3.4 5.2.1 2.1 3.2 1.2-.4 7.5-2.6.2-1.2 4.1 1.2 2.1-4.9 2.5-1 5.4-4.2 1.1-.8 4.7-4 4.2-1-3.1-1.2-6.7-1.6-10.6 1.3-7 2.4-3.1.2-2.4 4.4-1.2 5-6.8 4.8-5.7 5-4.6 2.3-8.4-3.4.5-1.7 4.9-7.1 6.4-2.3-7.1-7.2 2-7 9.6 2.3 3.4-6.3 1.4-4.3.6.2-4-4.4-.8-3.5 2.7-8.6-.9-9.2 1.6-9.1 10.3-10.8 11.8 4.4.6 1.4 3 2.7 1 1.8-2.4 3.1.3 4 5.2.1 3.9-2.2 4.5-.2 5.3-1.3 6.9-4.2 6-.9 2.8-3.8 4.7-3.8 4.5-1.8 2.3-3.7 2.3-1.8.1-1.8-1.9-3.8 2.8-.4 1.3-.4-.7v-1.9l1.4-.1.4-4.5-.7-3.4 2.4-1.4 3.4.7 1.9-3.9 1-4.5 1.1-1.5 1.5-3.8-4.6 1.2-2.4 1.6h-4.3l-1.1-3.9-3.3-3-4.9-1.4-1-4.3-1-2.7-1-1.9-1.7-4.6-2.5-1.7-4.2-1.4-3.7.1-3.5.8-2.3 2.3 1.5 1.1v2.5l-1.6 1.5-2.5 4.7v1.9l-4 2.7-3.4-1.6-3.3.4-1.5-1.5-1.7-.5-4.1 3.1-3.7.7-2.6 1.1-3.5-.7h-2.6l-1.7-2.2-2.8-2.1-2.8-.6-3.5.6-2.7.8-4-1.8-.5-3.3-3.3-1.1-2.5-.5-3.1-1.9-2.9 4.7 1.1 2.6-2.7 3-4-1.1-2.8-.2-1.9-2-2.9-.1-2.4-1.4-4.3 2.1-5.3 3.7-3 .7-1.1.4-1.5-2.6-3.6.6-1.2-1.8-2-.9-1.3-2.6-1.5-.8-4 1.1-3.9-2.6-1.5 2.3-6.3-11.6-3.6-3.7 1-1.5-7 4.5-2.7.3.2-2.6-3.6-1.6-2.9 1.2-.9-5-5-1.1-2.5 2-7 1.8-1.4 1.2-10.5 1.7-1.3 1.6 2 3.2-2.7 1.2.5 1.3-2.7 2.2 4.5 3.1-.7 2.1-3.9-.2-.8 1.3-3.6-2.3-4.5.1-3 1.9-3.3-1.8-6.2-3.1-4.4.1-5.8 4.9-.3 3.2-2.9-2.5-2.2 4.8.8.9-1.6 3.2 2.4 2.8 2.1-.1 1.8 2.8-.3 2.1 1.4.7-1.3 2.4-2.7.7-2.8 4.1 2.5 3.7-.3 2.6 3.1 4.5-1.7 1.5-.5 1-1.2-.3-1.9-2.3-.8-.1-1.8-.9-.9-1.5-2.6-.8-1.7.6-.5-.7-3.8-1.8-4.1-.6-2.4-.7-.3.5-3.6-3.3-3.2-1.5-2.4-2.3 2-.6 2.3-3.4-1.6-1.6 4.1-1.7-.1-.9-2.5.7.1-1.8 1.5-1.2 2.7-.3.4-1.4-.6-2.3 1.1-2.2v-1.3L327 365h-1.6l-1.7-2-2.1.7-3.6-1.5.1-.9-1-1.9-2.2-.2-.2-1.4.7-.9-1.8-2.6-2.9.4-.8-.2-.7 1-1-.2-.7-2.9-.7-1.5.5-.4 2.3.2 1.1-1-.8-1.3-1.9-.8.2-.9-1.1-.9-1.8-3.1.6-1.3-.3-2.3-2.7-1.2-1.5.6-.4-1.2-3-1.3-.9-3-.2-2.5-1.4-1.2 1.2-1.7-.8-5 2-3.1-.4-1 3.2-3.1-2.9-2.7 6-7.4 2.6-3.5 1-3.1-4.2-4.3 1.2-4.1-2.5-4.9 1.9-5.8-3.3-8 2.6-5.5-4.3-5 .4-5.4 2.3-.7 4.8-3.2 2.9-2.8 4.6 4.9 7.7 1.9 10.6 8.6 2.2 3.5.2 4.8-3.1 3.7-4.6 1.9-12.5-5.3-2.1.9 4.6 5.1.2 3.1.2 6.8 3.6 2 2.2 1.7.4-3.1-1.7-2.8 1.8-2.5 6.8 4.1 2.4-1.6-1.9-4.9 6.5-6.7 2.6.4 2.6 2.4 1.6-4.8-2.3-4.3 1.4-4.4-2.1-4.7 7.8 2.4 1.6 4.2-3.5.9v4l2.2 2.4 4.3-1.5.7-4.6 5.9-3.5 9.8-6.5 2.1.4-2.8 4.6 3.5.8 2-2.6 5.3-.2 4.2-3.2 3.2 4.6 3.2-5.1-2.9-4.6 1.5-2.7 8.3 2.4 3.9 2.5 10.2 8.8 1.9-4-2.8-4.1-.1-1.7-3.4-.8.9-3.8-1.5-6.5-.1-2.7 5.2-8 1.8-8.4 2.1-1.9 7.4 2.5.6 5.2-2.7 7.3 1.7 2.8.9 5.9-.6 11.1 3.1 4.7-1.2 5-5.5 10.2 3.2 1 1.1-2.5 3.1-1.8.7-3.5 2.4-3.5-1.6-4.3 1.3-5.1-3.1-.6-.7-4.4 2.2-8.3-3.6-7 5-6-.7-6.6 1.4-.2 1.5 5.2-1.1 8.7 3 1.6-1.3-6.4 4.7-3.6 5.8-.5 5.2 5.2-2.5-7.6-.3-10.3 4.9-2 6.7.4 6.1-1.3-2.3-5.4 3.3-7 3.2-.3 5.5-5.5 7.4-1.5.9-3.1 7.4-1.1 2.3 2.6 6.3-6.2 5.2.2.8-5.2 2.7-5.3 5.7-4.9m-101.5 9.7l2 4.8-1.9 3.7-9.9 5.7-8.6 5.3-8.7 10.2-4.2 9.8-4.4 9.1.6 7.5 5.4 7.1-1.7.7-9.2-1.1-.7-3.8-5.1-2.3-.4-4.8 2.9-2-.1-5.1 5.6-8.3-2.6-1.2 6.7-9-.8-4.9 6.3-5.9 9.3-7.4 9.3-2.2 4.8-4.5 5.4-1.4m101.5-10.3l-.3.3-6.6 5.3-.1.1v.1l-2.7 5.3v.2l-.7 4.8-4.7-.2h-.2l-.2.2-5.9 5.9-1.9-2.2-.2-.2h-.3l-7.4 1.1h-.3l-.1.3-.9 2.9-7.1 1.5h-.1l-.1.1-5.3 5.4-3 .3h-.3l-.1.3-3.3 7-.1.2.1.2 2 4.8-5.4 1.2-6.7-.4h-.2l-4.9 2-.3.1v.3l.3 10.3v.2l1.8 5.6-3.7-3.7-.2-.2h-.2l-5.8.5h-.1l-.1.1-4.7 3.6-.2.2.1.3 1.1 5.3-1.8-.9 1.1-8.3v-.2l-1.5-5.2-.1-.4-.4.1-1.4.2-.5.1v.5l.6 6.4-4.9 5.9-.2.3.2.3 3.6 6.9-2.2 8.1v.2l.7 4.4.1.3.3.1 2.6.5-1.2 4.6v.2l.1.1 1.5 4-2.3 3.3-.1.1v.1l-.7 3.3-2.9 1.7-.1.1-.1.1-.9 2.1-2.2-.7 5.2-9.7v-.2l1.2-5 .1-.2-.1-.2-3-4.6.6-10.9v-.2l-.9-5.9v-.1l-.1-.1-1.6-2.6 2.6-7.1v-.2l-.6-5.2v-.3l-.3-.1-7.4-2.5-.3-.1-.2.2-2.1 1.9-.1.1v.2l-1.8 8.3-5.1 7.9-.1.1v.2l.1 2.7 1.5 6.4-.9 3.7-.1.5.5.1 3 .7.1 1.3v.1l.1.1 2.7 3.9-1.5 3.1-9.7-8.4-3.9-2.5h-.2l-8.3-2.4-.4-.1-.2.4-1.5 2.7-.1.3.2.3 2.8 4.3-2.6 4.2-2.8-4-.3-.4-.4.3-4 3.1-5.1.2h-.2l-.1.2-1.8 2.3-2.5-.6 2.4-4 .4-.6-.7-.1-2.1-.4h-.2l-.2.1-9.8 6.5-5.8 3.5-.2.1v.2l-.6 4.3-3.7 1.3-1.9-2.1v-3.5l3.2-.8.5-.1-.2-.5-1.6-4.2-.1-.2-.2-.1-7.8-2.4-1-.3.4 1 2 4.5-1.3 4.2-.1.2.1.2 2.2 4.1-1.3 3.9-2.1-1.9-.1-.1h-.2l-2.6-.4h-.3l-.2.2-6.5 6.7-.2.2.1.3 1.7 4.5-1.8 1.2-6.5-3.9-.4-.2-.3.4-1.8 2.5-.2.3.2.3 1.6 2.7-.2 2.1-1.5-1.1-3.4-1.8-.2-6.5-.2-3.2v-.2l-.1-.1-4.1-4.6 1.2-.5 12.3 5.2.2.1.2-.1 4.6-1.9h.1l.1-.1 3.1-3.7.1-.1v-.2l-.2-4.8v-.1l-.1-.1-2.2-3.5v-.1l-.1-.1-10.6-8.6-.1-.1h-.1l-7.5-1.8-4.5-4.8-.3-.4-.4.4-2.9 2.8-4.7 3.1-2.2.7-.3.1v.3l-.4 5.4v.2l.1.2 4.1 4.7-2.5 5.2-.1.2.1.2 3.2 7.8-1.8 5.6-.1.2.1.2 2.4 4.7-1.1 4-.1.3.2.2 3.9 4-.9 2.7-2.6 3.4-6 7.4-.3.4.3.3 2.5 2.3-2.8 2.7-.3.2.1.3.3.7-1.9 2.9-.1.2v.2l.8 4.8-1.1 1.5-.3.4.3.3 1.2 1.1.2 2.3.9 3 .1.2.2.1 2.7 1.2.3 1 .2.5.5-.2 1.3-.5 2.3 1 .2 1.9-.5 1.2-.1.2.1.2 1.8 3.1.1.1.1.1.9.7-.1.6-.1.4.4.2 1.8.8.5.8-.6.6-2-.1h-.2l-.2.1-.6-.2-.3.2.1.3.6 1.5.7 2.9.1.3.3.1 1 .2.3.1.2-.3.5-.7.5.1h.2l2.6-.4 1.4 2-.5.6-.1.2v.2l.2 1.4.1.4h.4l2 .2.8 1.6-.1.7v.4l.3.1 3.6 1.5.2.1.2-.1 1.8-.6 1.5 1.8.2.2h1.7l3.7 1.3v.8l-1.1 2.1-.1.2v.2l.6 2.2-.3 1-2.4.3h-.1l-.1.1-1.5 1.2-.2.1v.2l-.1 1.8v.7l.7-.2 1.5-.4-3.3 1.4-.7.3.5.5 1.3 1.3-2 2.9-1.9.6-.8.3.6.6 2.4 2.3.1.1h.1l3.1 1.4 3.5 3.2.4.4.3-.4.1-.2 2 .6 4.1.6 3.6 1.7.4.6.2.3.4-.1 1.5-.5 2.3.7.8 1.4.1.1.1.1 1.8.9h.2l.6.1 1.8 2.1.1.1h.2l1.2.3.4.1.2-.3.4-.9 1.6-1.4.3-.3-.2-.4-3-4.3.3-2.4v-.2l-.1-.2-2.4-3.4 2.5-3.6 2.5-.6.2-.1.1-.2 1.3-2.4.2-.5-.5-.2-1.1-.5.2-1.7v-.2l-.1-.2-1.8-2.8-.2-.2h-.3l-1.8.1-2-2.4 1.5-2.9.2-.3-.2-.3-.6-.6 1.8-3.9 2.4 2.1.7.6.1-1 .3-3 5.5-4.6 4.1-.1 6.1 3 3.3 1.8.3.1.2-.2 2.9-1.8 4.2-.1 3.5 2.2.4.3.3-.4.7-1.1 3.6.2h.4l.1-.4.7-2.1.1-.4-.3-.2-4-2.7 2.2-1.8.3-.2-.1-.3-.3-.8 2.2-1 .5-.2-.3-.5-1.8-2.9.9-1.2 10.3-1.6h.1l.1-.1 1.3-1.1 6.9-1.8h.1l.1-.1 2.3-1.9 4.5.9.8 4.7.1.6.6-.2 2.7-1.1 3.1 1.4-.2 2.2-.1.6.6-.1 2.7-.3h.1l.1-.1 5.2-3.3.2.2 3.5 3.6 6.2 11.5.4.7.5-.7 1.2-1.9 3.4 2.3.2.1.2-.1 3.8-1.1 1.2.6 1.3 2.4.1.2.2.1 1.8.8 1.1 1.7.2.3.3-.1 3.3-.5 1.3 2.3.2.4.4-.1 1.1-.4 2.9-.7h.1l.1-.1 5.3-3.7 4-1.9 2.2 1.2.1.1h.1l2.7.1 1.7 1.9.1.1h.2l2.7.2 4 1.1.3.1.2-.2 2.7-3 .2-.2-.1-.3-1-2.4 2.5-4 2.7 1.6h.2l2.5.5 3 1 .5 3v.3l.2.1 4 1.8.2.1.2-.1 2.6-.8 3.4-.6 2.6.5 2.6 2 1.7 2.1.2.2h2.8l3.5.7h.1l.1-.1 2.5-1 3.6-.7h.1l.1-.1 3.9-2.9 1.3.4 1.4 1.4.2.2h.2l3.2-.3 3.2 1.6.3.1.2-.2 4-2.7.2-.2v-2.1l2.4-4.5 1.5-1.4.2-.2v-3l-.2-.1-1.1-.8 1.8-1.8 3.3-.8 3.6-.1 4 1.3 2.3 1.6 1.7 4.5 1 1.9 1 2.7 1 4.3.1.3.3.1 4.8 1.3 3.1 2.9 1.1 3.8.1.4h4.9l.1-.1 2.4-1.6 3.6-1-1.1 2.8-1.1 1.5-.1.1v.1l-.9 4.4-1.7 3.5-3-.6h-.2l-.2.1-2.4 1.4-.3.2.1.4.7 3.3-.4 4-1 .1h-.5v2.5l.1.1.4.7.5.9.4-1 .4-1.1 3.3-2.4 1.5 1.5.2.2h.2l1.8-.1h.1l.1-.1 3.7-2.3h.1l.1-.1 1.8-2.3 3.8-4.5 3.8-4.7.1-.1v-.1l.9-2.8 4.2-5.9.1-.1v-.1l1.3-6.9.2-5.2 2.1-4.4.1-.1v-.1l-.1-3.9v-.2l-.1-.1-4-5.2-.1-.2h-.2l-3.1-.3h-.3l-.2.2-1.6 2.1-2.2-.8-1.3-2.8-.1-.2h-.3l-3.5-.5L608 332l9-10.2 9-1.6 8.5.9h.2l.2-.1 3.3-2.6 3.7.7-.2 3.5v.6l.6-.1 4.3-.6 6.3-1.4.7-.2-.4-.6-2.1-3.1 6.7-9.1 6.6-1.8 2.2 6.7.2.7.6-.5 7.1-6.4.1-.1v-.1l1.6-4.6 2.4-.4-2 7.5-4.9 4.5-4.8 5.7-4.9 6.7-4.2 1.1-.3.1v.4l-.1 2.3-2.3 2.9-.1.1v.1l-1.3 6.9v.2l1.6 10.6 1.2 6.7 1 3.1.3.8.6-.6 4-4.2.1-.1v-.1l.8-4.3 3.9-1.1.3-.1.1-.3.9-5.2 4.7-2.4.5-.2-.3-.5-1.1-1.9 1-3.6 2.3-.2h.4v-.4l.4-7.5v-.4l-.3-.1-2.9-1.1-.1-1.6 3.3-5.1v-.2l.8-3.2 3.3.7h.2l.2-.2 2.3-2 1 1.6.3.4.4-.3 7-4.2 3.7 3.6.5.5.3-.7 1-2.4 4-3.4 4.2-4 2.4-.7h.2l7.7-4.4 5 1.3.4.1.2-.4.7-1.6.1-.1v-.1l-.3-2.5v-.1l-.1-.1-1.2-1.6-1.6-5.1v-.2l-1.8-2.5 2.5.3h.2l.2-.1 3.6-2.9.1-.1v-.1l1.6-2.8.1-.2-.1-.2-1.1-2.8 2-1-.4 1.5v.2l.1.2 1.5 2.4.2.3.4-.1 3-.8 2.4.9.6 2.6.1.2.2.1 3.7 1.9 2.1 2.2.1.1h.2l2.6.2h.3l.2-.2 1.1-1.4.1-.1v-.2l.1-6 4.2-.6h.2l.1-.1 2.8-3 .3-.3-.3-.3-5.5-6.5-.1-.1h-.2l-7.6-1.1-.6-.1v-.6l-.2-.2-7.4-7.3-6.9-5.9-3.9-3.4h-.2l-8.1-3.8-.1-.1h-.1l-5.7.5-8.9-2.3-.4-.1-.2.4-1.3 3.6-.1.2.1.2 2.1 4.7-2.7 1.9-4.6-6.6-.2-.3-.3.1-5.2.9-5.2-1.5h-.2l-5 .2h-.2l-3.5 1.5-3-2 .3-5.7v-.2l-.2.3-2.3-3.5-.1-.2h-.2l-5.6-1.4h-.2l-11.1 1.6-7.1-6.4-2.3-5.3-.1-.2-.2-.1-25.3-6.1-.3-.1-.2.2-3.7 4.1-.2.2.1.3 1.8 7.6-3.8-1-.3-.1-.2.2-1.8 2.2-5.1-2.5-.2-.1-.2.1-4.5 2.2-4.2-3.8-.6-.5-.2.8-2.5 8.5-3.7-3-3.4-6.7 1.6-3.6.1-.1v-.2l-1.3-6v-.1l-.1-.1-4.5-5.1-.2-.2h-4.6l-5.9-1.7-.6-.2v.7l-.1 6.9-10.8-1.3-.6-4.2-.1-.4-.4-.1-9-1.6h-.2l-4.5 1.6-.2.1-.1.2-.6 1.3-1.1-5-.2-.8-.6.5-2.2 1.7-3.9-2.4-2.9-1.2 1.7-2.5 7.3-5.9 3.1-3.2.1-.1v-.2l.7-5.8v-.2l-.1-.1-2.3-4.4v-.1l-.1-.1-6.3-5.8-.1-.1h-.2l-8.2-.2h-.2l-.2.2-1.8 2.1-.6-4.9v-.3l-.3-.1-5.5-1.6 3.1-2.5.5-.4-.4-.4-4.8-4.2-.6-.6zm226.5 105.4l.2-3.5v.3l.5 3.8-.7-.6zM409.9 179l-.4.1-5.5 1.6h-.1l-.1.1-4.7 4.4-9.2 2.2h-.1l-.1.1-9.3 7.4-6.3 5.9-.2.2v.3l.7 4.7-6.6 8.9-.4.5.6.3 2.1 1-5.2 7.8-.1.1v.2l.1 4.8-2.6 1.8-.2.2v.3l.4 4.8v.3l.3.1 4.8 2.2.7 3.6.1.4h.4l9.2 1.1h.1l.1-.1 1.7-.7.6-.3-.4-.5-5.3-7-.5-7.2 4.3-9 4.2-9.8 8.6-10.1 8.5-5.3 9.9-5.7.1-.1.1-.1 1.9-3.7.1-.2-.1-.2-2-4.8-.2-.6z"/><path fill="#3AB54B" d="M418.6 416l.2-2.9-.9-.2.4-1.1-1.2-.6-1 1-.3 1.4-.6.7-1.6-.1-1 1.7-1-.7-2.1 1.1-1.1-.6 1.6-3.7-.6-2.4-2.1-1 .9-1.9 2.3.1 1.3-1.9.9-2.4 4.3-1-.7 2.1.3.7 1.6-.1-1.5 1.7-2.9-.6-.2 1.5 2.7-.2 3.5 1.2 5.5-.6.7 3.3.7-.3 2 .9-.1 1.5.4 2.3h-3.2l-1.8-.3-1.7 1.6-1.3.3-1.1.9z"/><path fill="#FFF" d="M416.6 401.9l-.6 1.7.4 1 1.2-.1-1 1.1-3-.6-.3 2.1 3-.3 3.5 1.2 5.3-.5.7 3.3.9-.4 1.7.8-.1 1.4.4 2h-2.9l-1.9-.3-1.7 1.6-1.3.3-1 .7-1.1-1.1.3-3-.8-.2.3-1.1-1.5-.8-1.2 1.2-.3 1.4-.4.5-1.7-.1-.9 1.6-1-.7-2 1.1-.8-.4 1.6-3.6-.6-2.7-2.1-.9.7-1.6 2.3.2 1.3-2 .9-2.4 3.7-.4m.8-.7l-.9.2-3.8.9-.3.1-.1.3-.9 2.3-1.1 1.7-2-.1h-.3l-.1.3-.7 1.6-.2.5.5.2 1.8.8.5 2.2-1.5 3.4-.2.4.4.2.8.4.2.1.2-.1 1.8-1 .7.5.5.3.3-.5.7-1.3 1.4.1h.2l.2-.2.4-.5.1-.1v-.1l.3-1.3.8-.9.8.4-.2.7-.1.5.5.1.4.1-.2 2.5v.2l.2.2 1.1 1.1.3.3.4-.3.9-.7 1.2-.3h.1l.1-.1 1.6-1.4 1.7.2h3.5l-.1-.6-.4-1.9.1-1.3v-.3l-.3-.1-1.7-.8-.2-.1-.2.1-.4.1-.6-2.8-.1-.4h-.4l-5.2.5-3.4-1.1h-.2l-2.4.2.1-.9 2.5.5.3.1.2-.2 1-1.1.9-.9-1.3.1-.8.1-.2-.5.5-1.5.3-1.1z"/><path fill="#3AB54B" d="M389.9 421l-.2-2.8-2-.1-3.2-3.1-2.2-.4-3.2-1.8-1.8-.3-1.2.7-1.8-.1-2 2-2.8.8-.6-2.8.4-3.6-2.2-1.2.7-2.4-1.8-.2.7-3.4-1.2-3.3 1.4-1.4 3.3-.8 2 1.1 1.9 2.9 1.3-.2h2.9l-.4-1.8 2.6-1.4 2.4-2.3 4.1 2.1.3 3 .9.7 3-.2 1.1.8 1.4 3.8 3.2 2.5 1.8 1.7 2.9 1.7 3.9 1.6-.1 2.6-1.2-.2-1.1-.8-.4 1.1-2.3.7-.5 2.7-1.7 1.1-2.2.5-.6 1.6-2.3.5-3.2-1.6zm-20.4-18.2l2.1-1-1.8-2-.8-2-1.9.8-.3 3.2 2.7 1z"/><path fill="#FFF" d="M382.9 395.2l3.8 2 .3 3 1.1.8 3-.2.9.7 1.4 3.8 3.2 2.5 1.8 1.7 2.9 1.8 3.7 1.5-.1 2.2-.8-.1-1.3-.9-.4 1.3-2.4.7-.6 2.8-1.6 1-2.2.5-.6 1.5-2.1.5-2.9-1.3-.3-2.9-2.1-.1-3.2-3.1-2.2-.4-3.1-1.8-2-.3-1.2.7-1.9-.1-2 2-2.5.7-.5-2.5.4-3.7-2.2-1.2.7-2.5-1.9-.2.6-3.1 2.6.9 2.5-1.2-2-2.2-.8-2.1-2.3 1-.3 2.7-.9-2.4 1.2-1.3 3.2-.8 1.9 1.1 2 2.9 1.4-.2h3.2l-.5-1.9 2.4-1.3 2.7-2.5m-.1-.7l-.3.2-2.3 2.2-2.3 1.3-.3.2.1.4.3 1.3h-2.5l-1.1.1-1.8-2.7-.1-.1-.1-.1-1.9-1.1-.2-.1h-.2l-3.2.8h-.1l-.1.1-1.2 1.3-.2.2.1.3.9 2.4.3.7-.6 3.1-.1.5.5.1 1.3.2-.6 1.9-.1.4.3.2 1.9 1.1-.4 3.4v.2l.5 2.5.1.5.5-.1 2.5-.7h.1l.1-.1 1.8-1.9 1.6.1h.1l.1-.1 1.1-.6 1.7.3 3 1.7h.2l2.1.4 3.1 3 .1.1h.2l1.7.1.2 2.5v.3l.3.1 2.9 1.3.2.1h.2l2.1-.5.3-.1.1-.3.5-1.3 2-.5h.2l1.6-1 .2-.1v-.2l.5-2.5 2.1-.6.2-.1.1-.2.2-.6.8.6.1.1h.1l.8.1.5.1v-.5l.1-2.2v-.3l-.3-.1-3.7-1.5-2.9-1.7-1.8-1.7-3.1-2.4-1.3-3.7-.1-.1-.1-.1-.9-.7-.1-.1h-.2l-2.9.2-.7-.5-.3-2.8v-.3l-.2-.1-3.8-2-.5-.3zm-15.5 4.3l1.5-.6.6 1.7v.1l.1.1 1.6 1.7-1.7.8-2.4-.8v-.4l.3-2.6z"/><path fill="#3AB54B" d="M311.6 388.3l.6-1.8-3.1-1.2.7-1.1 3-1.6-.1-.3-.3.3-.6-.3-4.5-1-.2-1.4-2.2.4-1 2.1-2.3 3.2-1.4-.7-1.3.6-1.7-1 1-.6.4-1.3.8-1.2-.3-.8 1-.6.4.7 1.4.1.3-.1-.3-.3.2-.6-.9-1-.4-1.7-1.1-.7.2-1.4-1.1-1-1.1-.2-2.1-1.2-1.7.3-.7.7h-1.1l-.7.9-2.2.4-1 .8-1.4-1.1h-1.7l-1.7-.5-1.4 1.1-.2-1.4-1.7-1.2.6-1.9 1-1.3.2.1-.5-1.5 2.6-3.8 1.4-.5.2-1.1-1.5-4.1 1.6-.2 1.6-1.2 2.2-.1 2.9.4 3.2 1 2.2.1.9.6 1.1-.8.9 1.1 2.4-.2.8.4.2-2.1 1-1.1 2.5-.3 1 .2.7-1.1.9.3 3.1-.5 1.9 2.9-.7 1 .2 1.1 2.2.2 1.1 2.1-.1.7 3.3 1.5 2.2-.7 1.8 2h1.5l4.4 1.5v1.5L330 371l.6 2.3-.5 1.6-2.8.3-1.3 1.1-.1 1.9-2.4.3-1.8 1.4-2.7.2-2.3 1.5-1.1.8 1.3 1.3 1.2.9 3.2-.3-.7 1.9-3.2.7-3.9 2.3z"/><path fill="#FFF" d="M313.1 355.3l1.8 2.6-.7.9.2 1.4 2.2.2 1 1.9-.1.9 3.6 1.5 2.2-.7 1.7 2h1.6l4.1 1.4v1.3l-1.1 2.2.6 2.3-.4 1.4-2.7.3-1.4 1.2-.1 1.8-2.2.3-1.9 1.3-2.6.2-2.4 1.5-1.3 1 1.5 1.5 1.4 1 2.9-.2-.5 1.4-3.1.7-3.8 2.3-1.5-.8.6-1.8-3.1-1.2.5-.8 3.2-1.6-.4-.8-.5.4-.4-.2-4.4-1-.2-1.5-2.6.5-1 2.2-2.2 3-1.3-.7-1.3.6-1.3-.7.7-.4.5-1.4.8-1.3-.2-.7.6-.3.3.6 1.7.1.7-.3-.5-.4.2-.6-1-1-.5-1.8-1-.7.2-1.4-1.3-1.1-1.2-.2-2.1-1.3-1.9.4-.7.6h-1.2l-.7 1-2.1.4-1 .6-1.3-1h-1.8l-1.7-.5-1.2.9-.2-1.1-1.5-1.1.5-1.7.8-1.1.6.2-.7-1.9 2.5-3.6 1.4-.5.3-1.2-1.4-3.9 1.3-.2 1.5-1.2 2.2-.1 2.8.4 3.1 1.1 2.2.1 1 .6 1-.8.7 1 2.5-.2 1.1.4.2-2.3.9-1 2.4-.3 1 .2.7-1 .8.2 3.4-.4m.3-.5h-.3l-2.8.4-.7-.2-.3-.1-.2.3-.5.8-.7-.1h-.2l-2.4.3h-.2l-.1.1-.9 1-.1.1v.2l-.1 1.6-.5-.2h-.2l-2.2.2-.6-.8-.3-.4-.4.3-.8.6-.8-.5-.1-.1h-.1l-2.1-.1-3.1-1.1h-.1l-2.8-.4-2.2.1h-.2l-.4.2-1.4 1.1-1.2.2-.6.1.2.6 1.4 3.7-.2.8-1.1.4-.1.1-.1.1-2.5 3.6-.2.2.1.2.4.9-.2.3-.8 1.1v.2l-.5 1.7-.1.3.3.2 1.4 1 .2.9.1.8.6-.5 1-.7 1.5.4h1.8l1.2.9.3.2.3-.2.9-.6 2-.4h.2l.1-.2.6-.8h1.1l.1-.1.6-.5 1.5-.3 1.9 1.2.1.1h.1l1 .1 1 .8-.2 1.1v.3l.3.2.9.6.4 1.5v.1l.1.1.8.8-.1.3-.1.3-1-.1-.1-.3-.2-.5-.5.3-.6.3-.3.2.1.4.1.5-.7 1.1-.4 1.2-.6.3-.7.4.7.4 1.3.7.2.1.2-.1 1.1-.5 1.1.6.4.2.3-.3 2.2-3 .9-2 1.8-.4.1 1v.3l.3.1 4.3 1 .3.2-2.3 1.2-.1.1-.1.1-.5.8-.3.5.6.2 2.6 1-.5 1.4-.1.4.4.2 1.5.8.2.1.2-.1 3.7-2.2 3-.7.3-.1.1-.2.5-1.4.3-.7-.8.1-2.7.2-1.2-.8-1.1-1 .9-.7 2.3-1.4 2.5-.2h.1l.1-.1 1.8-1.3 2.1-.3.4-.1v-.4l.1-1.6 1.2-.9 2.6-.3h.3l.1-.3.4-1.4v-.2l-.6-2.1 1-2.1.1-.1V367h-.5l-4.1-1.4h-1.6l-1.6-1.9-.2-.3-.3.1-2 .6-3.1-1.3v-.6l-.1-.1-1-1.9-.1-.2h-.3l-1.9-.2-.1-.8.6-.7.2-.3-.2-.3-1.8-2.6v-.3z"/></svg>